<?xml version="1.0" encoding="utf-8"?>
<svg viewBox="0 0 500 500" width="500" height="500" xmlns="http://www.w3.org/2000/svg" xmlns:bx="https://boxy-svg.com">
  <rect x="8.508" y="7.824" width="477.861" height="479.591" style="fill: rgb(216, 216, 216);"/>
  <path d="M 12.837 215.306 H 104.75 L 96.75 200.306 L 149.75 230.306 L 96.75 260.306 L 104.75 245.306 H 12.837 V 215.306 Z" style="fill: rgb(16, 8, 246);" transform="matrix(0.999999, 0.001399, -0.001399, 0.999999, 0.255244, 2.916376)" bx:shape="arrow 12.837 200.306 136.913 60 30 53 8 1@dea1d615"/>
  <path d="M 12.837 215.306 H 104.75 L 96.75 200.306 L 149.75 230.306 L 96.75 260.306 L 104.75 245.306 H 12.837 V 215.306 Z" style="fill: rgb(167, 164, 255);" transform="matrix(0.999999, 0.001399, -0.001399, 0.999999, 331.814301, 1.617894)" bx:shape="arrow 12.837 200.306 136.913 60 30 53 8 1@dea1d615"/>
  <path d="M 12.837 215.306 H 104.75 L 96.75 200.306 L 149.75 230.306 L 96.75 260.306 L 104.75 245.306 H 12.837 V 215.306 Z" style="fill: rgb(238, 8, 246);" transform="matrix(-0.04154, -0.999137, 0.999137, -0.04154, 34.559689, 492.502838)" bx:shape="arrow 12.837 200.306 136.913 60 30 53 8 1@dea1d615"/>
</svg>