<?xml version="1.0" encoding="utf-8"?>
<svg viewBox="0 0 500 500" width="500" height="500" xmlns="http://www.w3.org/2000/svg">
  <rect x="20.629" y="85.736" width="470.069" height="328.962" style=""/>
  <path d="M 70.403 279.621 C 62.803 279.621 56.46 277.958 51.373 274.631 C 46.293 271.298 42.476 266.734 39.923 260.941 C 37.37 255.141 36.093 248.564 36.093 241.211 L 36.093 240.121 C 36.093 232.694 37.43 226.091 40.103 220.311 C 42.776 214.531 46.613 209.978 51.613 206.651 C 56.606 203.318 62.573 201.651 69.513 201.651 C 74.406 201.651 78.883 202.414 82.943 203.941 C 87.003 205.468 90.37 207.411 93.043 209.771 L 93.043 226.111 L 84.873 226.111 L 83.773 214.141 C 82.666 213.274 81.393 212.548 79.953 211.961 C 78.513 211.368 76.916 210.914 75.163 210.601 C 73.41 210.294 71.51 210.141 69.463 210.141 C 64.503 210.141 60.303 211.414 56.863 213.961 C 53.43 216.514 50.826 220.028 49.053 224.501 C 47.286 228.981 46.403 234.151 46.403 240.011 L 46.403 241.211 C 46.403 247.558 47.35 252.981 49.243 257.481 C 51.13 261.974 53.886 265.401 57.513 267.761 C 61.14 270.114 65.556 271.291 70.763 271.291 C 73.19 271.291 75.566 270.998 77.893 270.411 C 80.22 269.824 82.146 269.061 83.673 268.121 L 84.813 257.551 L 92.833 257.551 L 92.833 274.001 C 89.986 275.774 86.586 277.154 82.633 278.141 C 78.673 279.128 74.596 279.621 70.403 279.621 ZM 124.429 278.531 L 102.719 278.531 L 102.719 271.971 L 108.349 271.191 L 134.839 202.741 L 143.639 202.741 L 169.659 271.191 L 175.229 271.971 L 175.229 278.531 L 153.469 278.531 L 153.469 271.971 L 159.199 270.981 L 154.199 257.031 L 123.859 257.031 L 118.699 270.981 L 124.429 271.971 L 124.429 278.531 Z M 138.379 217.631 L 127.029 248.441 L 151.079 248.441 L 139.939 217.631 L 139.319 215.911 L 138.999 215.911 L 138.379 217.631 ZM 210.312 278.531 L 183.092 278.531 L 183.092 271.971 L 191.572 270.511 L 191.572 210.811 L 183.092 209.351 L 183.092 202.801 L 216.872 202.801 C 222.386 202.801 227.042 203.624 230.842 205.271 C 234.642 206.918 237.532 209.304 239.512 212.431 C 241.492 215.551 242.482 219.368 242.482 223.881 C 242.482 228.321 241.519 232.051 239.592 235.071 C 237.666 238.091 234.932 240.371 231.392 241.911 C 227.852 243.458 223.652 244.281 218.792 244.381 L 201.822 244.701 L 201.822 270.511 L 210.312 271.971 L 210.312 278.531 Z M 245.762 278.531 L 233.112 278.531 L 216.242 240.691 L 226.502 240.581 L 240.502 270.881 L 245.762 271.821 L 245.762 278.531 Z M 201.822 210.811 L 201.822 236.631 L 215.832 236.631 C 221.552 236.631 225.716 235.538 228.322 233.351 C 230.922 231.164 232.222 227.971 232.222 223.771 C 232.222 219.784 230.972 216.628 228.472 214.301 C 225.979 211.974 222.112 210.811 216.872 210.811 L 201.822 210.811 ZM 291.093 278.531 L 255.183 278.531 L 255.183 271.971 L 263.663 270.511 L 263.663 210.811 L 255.183 209.351 L 255.183 202.741 L 263.663 202.741 L 287.863 202.741 C 295.776 202.741 301.963 204.451 306.423 207.871 C 310.883 211.291 313.113 216.418 313.113 223.251 C 313.113 226.618 312.046 229.628 309.913 232.281 C 307.779 234.934 304.959 236.904 301.453 238.191 C 304.506 238.818 307.126 240.041 309.313 241.861 C 311.499 243.681 313.189 245.901 314.383 248.521 C 315.583 251.141 316.183 254.014 316.183 257.141 C 316.183 264.081 313.926 269.381 309.413 273.041 C 304.906 276.701 298.799 278.531 291.093 278.531 Z M 273.913 242.981 L 273.913 270.511 L 291.093 270.511 C 295.779 270.511 299.416 269.358 302.003 267.051 C 304.583 264.744 305.873 261.474 305.873 257.241 C 305.873 254.254 305.396 251.704 304.443 249.591 C 303.489 247.471 302.033 245.841 300.073 244.701 C 298.113 243.554 295.639 242.981 292.653 242.981 L 273.913 242.981 Z M 273.913 210.811 L 273.913 234.961 L 290.523 234.961 C 294.203 234.961 297.179 233.894 299.453 231.761 C 301.719 229.628 302.853 226.721 302.853 223.041 C 302.853 218.948 301.569 215.888 299.003 213.861 C 296.436 211.828 292.723 210.811 287.863 210.811 L 273.913 210.811 ZM 354.904 279.621 C 350.017 279.621 345.631 278.684 341.744 276.811 C 337.857 274.938 334.551 272.291 331.824 268.871 C 329.097 265.458 327.014 261.408 325.574 256.721 C 324.134 252.034 323.414 246.864 323.414 241.211 L 323.414 240.121 C 323.414 234.494 324.134 229.331 325.574 224.631 C 327.014 219.931 329.097 215.864 331.824 212.431 C 334.551 208.991 337.857 206.334 341.744 204.461 C 345.631 202.588 350.017 201.651 354.904 201.651 C 360.077 201.651 364.624 202.588 368.544 204.461 C 372.464 206.334 375.754 208.991 378.414 212.431 C 381.067 215.864 383.071 219.931 384.424 224.631 C 385.777 229.331 386.454 234.494 386.454 240.121 L 386.454 241.211 C 386.454 246.864 385.777 252.034 384.424 256.721 C 383.071 261.408 381.067 265.458 378.414 268.871 C 375.754 272.291 372.464 274.938 368.544 276.811 C 364.624 278.684 360.077 279.621 354.904 279.621 Z M 354.904 271.091 C 359.937 271.091 364.007 269.841 367.114 267.341 C 370.221 264.841 372.501 261.344 373.954 256.851 C 375.414 252.358 376.144 247.144 376.144 241.211 L 376.144 240.011 C 376.144 234.111 375.407 228.934 373.934 224.481 C 372.461 220.021 370.161 216.531 367.034 214.011 C 363.914 211.498 359.871 210.241 354.904 210.241 C 350.364 210.241 346.514 211.508 343.354 214.041 C 340.194 216.574 337.801 220.071 336.174 224.531 C 334.541 228.991 333.724 234.151 333.724 240.011 L 333.724 241.211 C 333.724 247.111 334.541 252.308 336.174 256.801 C 337.801 261.294 340.194 264.798 343.354 267.311 C 346.514 269.831 350.364 271.091 354.904 271.091 ZM 421.634 278.531 L 394.414 278.531 L 394.414 271.971 L 402.894 270.511 L 402.894 210.811 L 394.414 209.351 L 394.414 202.741 L 402.894 202.741 L 413.254 202.741 L 450.424 261.821 L 450.734 261.721 L 450.734 210.811 L 441.414 209.351 L 441.414 202.741 L 460.154 202.741 L 468.634 202.741 L 468.634 209.351 L 460.154 210.811 L 460.154 278.531 L 450.784 278.531 L 412.634 219.141 L 412.324 219.241 L 412.324 270.511 L 421.634 271.971 L 421.634 278.531 Z" transform="matrix(1, 0, 0, 1, 0, 0)" style="fill: rgb(255, 255, 255); white-space: pre;"/>
</svg>