<?xml version="1.0" encoding="utf-8"?>
<svg viewBox="0 0 500 500" width="500" height="500" xmlns="http://www.w3.org/2000/svg">
  <rect x="4.181" y="3.496" width="490.845" height="486.517" style="fill: rgb(1, 90, 4);"/>
  <path d="M 60.679 267.098 C 53.966 267.098 48.362 265.625 43.869 262.678 C 39.376 259.731 36.002 255.698 33.749 250.578 C 31.496 245.458 30.369 239.648 30.369 233.148 L 30.369 232.178 C 30.369 225.618 31.549 219.785 33.909 214.678 C 36.269 209.578 39.659 205.555 44.079 202.608 C 48.492 199.661 53.766 198.188 59.899 198.188 C 64.219 198.188 68.176 198.865 71.769 200.218 C 75.356 201.565 78.329 203.281 80.689 205.368 L 80.689 219.808 L 73.469 219.808 L 72.499 209.228 C 71.519 208.461 70.392 207.818 69.119 207.298 C 67.846 206.778 66.436 206.381 64.889 206.108 C 63.342 205.828 61.662 205.688 59.849 205.688 C 55.469 205.688 51.759 206.815 48.719 209.068 C 45.686 211.321 43.386 214.428 41.819 218.388 C 40.259 222.341 39.479 226.908 39.479 232.088 L 39.479 233.148 C 39.479 238.761 40.312 243.551 41.979 247.518 C 43.652 251.491 46.092 254.521 49.299 256.608 C 52.499 258.695 56.399 259.738 60.999 259.738 C 63.146 259.738 65.246 259.475 67.299 258.948 C 69.359 258.428 71.062 257.755 72.409 256.928 L 73.419 247.588 L 80.509 247.588 L 80.509 262.128 C 77.989 263.688 74.982 264.908 71.489 265.788 C 67.996 266.661 64.392 267.098 60.679 267.098 ZM 111.924 267.098 C 107.324 267.098 103.361 266.015 100.034 263.848 C 96.707 261.688 94.137 258.698 92.324 254.878 C 90.517 251.065 89.614 246.705 89.614 241.798 L 89.614 240.788 C 89.614 235.881 90.517 231.518 92.324 227.698 C 94.137 223.878 96.707 220.881 100.034 218.708 C 103.361 216.528 107.291 215.438 111.824 215.438 C 116.424 215.438 120.387 216.528 123.714 218.708 C 127.041 220.881 129.611 223.871 131.424 227.678 C 133.231 231.478 134.134 235.848 134.134 240.788 L 134.134 241.798 C 134.134 246.731 133.231 251.108 131.424 254.928 C 129.611 258.748 127.051 261.731 123.744 263.878 C 120.431 266.025 116.491 267.098 111.924 267.098 Z M 111.924 260.008 C 114.804 260.008 117.217 259.218 119.164 257.638 C 121.111 256.058 122.584 253.898 123.584 251.158 C 124.577 248.411 125.074 245.291 125.074 241.798 L 125.074 240.788 C 125.074 237.288 124.577 234.168 123.584 231.428 C 122.584 228.681 121.104 226.518 119.144 224.938 C 117.177 223.358 114.737 222.568 111.824 222.568 C 108.944 222.568 106.524 223.358 104.564 224.938 C 102.597 226.518 101.124 228.681 100.144 231.428 C 99.164 234.168 98.674 237.288 98.674 240.788 L 98.674 241.798 C 98.674 245.291 99.164 248.411 100.144 251.158 C 101.124 253.898 102.604 256.058 104.584 257.638 C 106.564 259.218 109.011 260.008 111.924 260.008 ZM 165.184 266.128 L 141.124 266.128 L 141.124 260.328 L 148.624 259.048 L 148.624 223.488 L 141.124 222.198 L 141.124 216.358 L 156.764 216.358 L 157.364 222.848 C 158.957 220.488 161.01 218.661 163.524 217.368 C 166.044 216.081 168.957 215.438 172.264 215.438 C 175.577 215.438 178.424 216.205 180.804 217.738 C 183.177 219.271 184.96 221.571 186.154 224.638 C 187.72 221.818 189.79 219.581 192.364 217.928 C 194.944 216.268 197.95 215.438 201.384 215.438 C 206.47 215.438 210.487 217.178 213.434 220.658 C 216.38 224.138 217.854 229.375 217.854 236.368 L 217.854 259.048 L 225.344 260.328 L 225.344 266.128 L 201.244 266.128 L 201.244 260.328 L 208.744 259.048 L 208.744 236.278 C 208.744 231.371 207.9 227.898 206.214 225.858 C 204.527 223.818 202.027 222.798 198.714 222.798 C 195.554 222.798 193.017 223.911 191.104 226.138 C 189.184 228.358 188.07 231.155 187.764 234.528 L 187.764 259.048 L 195.264 260.328 L 195.264 266.128 L 171.214 266.128 L 171.214 260.328 L 178.704 259.048 L 178.704 236.278 C 178.704 231.618 177.837 228.205 176.104 226.038 C 174.37 223.878 171.864 222.798 168.584 222.798 C 165.824 222.798 163.557 223.365 161.784 224.498 C 160.004 225.638 158.637 227.235 157.684 229.288 L 157.684 259.048 L 165.184 260.328 L 165.184 266.128 ZM 254.688 285.258 L 230.678 285.258 L 230.678 279.418 L 237.718 278.128 L 237.718 223.488 L 230.218 222.198 L 230.218 216.358 L 245.488 216.358 L 246.318 222.428 C 247.978 220.161 249.994 218.431 252.368 217.238 C 254.748 216.038 257.501 215.438 260.628 215.438 C 264.734 215.438 268.244 216.551 271.158 218.778 C 274.071 220.998 276.294 224.108 277.828 228.108 C 279.361 232.115 280.128 236.801 280.128 242.168 L 280.128 243.128 C 280.128 247.915 279.354 252.101 277.808 255.688 C 276.254 259.275 274.038 262.071 271.158 264.078 C 268.278 266.091 264.814 267.098 260.768 267.098 C 257.701 267.098 255.008 266.585 252.688 265.558 C 250.374 264.525 248.404 262.998 246.778 260.978 L 246.778 278.128 L 254.688 279.418 L 254.688 285.258 Z M 257.958 260.008 C 262.251 260.008 265.501 258.445 267.708 255.318 C 269.914 252.191 271.018 248.128 271.018 243.128 L 271.018 242.168 C 271.018 238.361 270.528 235.011 269.548 232.118 C 268.568 229.218 267.104 226.941 265.158 225.288 C 263.211 223.628 260.781 222.798 257.868 222.798 C 255.288 222.798 253.078 223.381 251.238 224.548 C 249.398 225.715 247.911 227.308 246.778 229.328 L 246.778 253.568 C 247.911 255.621 249.391 257.208 251.218 258.328 C 253.044 259.448 255.291 260.008 257.958 260.008 ZM 309.015 267.098 C 303.615 267.098 299.398 265.365 296.365 261.898 C 293.332 258.431 291.815 253.035 291.815 245.708 L 291.815 223.488 L 286.105 222.198 L 286.105 216.358 L 291.815 216.358 L 300.875 216.358 L 300.875 245.798 C 300.875 251.105 301.655 254.755 303.215 256.748 C 304.782 258.741 307.222 259.738 310.535 259.738 C 313.755 259.738 316.415 259.085 318.515 257.778 C 320.615 256.478 322.202 254.631 323.275 252.238 L 323.275 223.488 L 316.605 222.198 L 316.605 216.358 L 323.275 216.358 L 332.335 216.358 L 332.335 259.048 L 338.035 260.328 L 338.035 266.128 L 324.195 266.128 L 323.595 258.768 C 322.028 261.435 320.012 263.488 317.545 264.928 C 315.078 266.375 312.235 267.098 309.015 267.098 ZM 361.95 266.908 C 358.27 266.908 355.35 265.828 353.19 263.668 C 351.03 261.508 349.95 258.051 349.95 253.298 L 349.95 223.078 L 342.08 223.078 L 342.08 216.358 L 349.95 216.358 L 349.95 204.358 L 359.01 204.358 L 359.01 216.358 L 369.82 216.358 L 369.82 223.078 L 359.01 223.078 L 359.01 253.298 C 359.01 255.685 359.487 257.448 360.44 258.588 C 361.387 259.721 362.657 260.288 364.25 260.288 C 365.324 260.288 366.52 260.188 367.84 259.988 C 369.16 259.788 370.187 259.611 370.92 259.458 L 372.17 265.388 C 370.85 265.788 369.23 266.141 367.31 266.448 C 365.397 266.755 363.61 266.908 361.95 266.908 ZM 399.717 267.098 C 395.117 267.098 391.114 266.048 387.707 263.948 C 384.307 261.841 381.681 258.918 379.827 255.178 C 377.967 251.438 377.037 247.115 377.037 242.208 L 377.037 240.188 C 377.037 235.461 378.011 231.238 379.957 227.518 C 381.911 223.791 384.504 220.848 387.737 218.688 C 390.971 216.521 394.504 215.438 398.337 215.438 C 402.817 215.438 406.567 216.358 409.587 218.198 C 412.607 220.038 414.884 222.621 416.417 225.948 C 417.951 229.275 418.717 233.191 418.717 237.698 L 418.717 243.358 L 386.427 243.358 L 386.287 243.588 C 386.347 246.781 386.907 249.611 387.967 252.078 C 389.021 254.545 390.544 256.485 392.537 257.898 C 394.531 259.305 396.924 260.008 399.717 260.008 C 402.784 260.008 405.474 259.571 407.787 258.698 C 410.101 257.825 412.101 256.621 413.787 255.088 L 417.337 260.978 C 415.557 262.691 413.204 264.141 410.277 265.328 C 407.344 266.508 403.824 267.098 399.717 267.098 Z M 386.607 236.048 L 386.697 236.278 L 409.647 236.278 L 409.647 235.078 C 409.647 232.685 409.227 230.548 408.387 228.668 C 407.547 226.781 406.291 225.291 404.617 224.198 C 402.944 223.111 400.851 222.568 398.337 222.568 C 396.311 222.568 394.471 223.158 392.817 224.338 C 391.164 225.518 389.801 227.121 388.727 229.148 C 387.654 231.168 386.947 233.468 386.607 236.048 ZM 449.717 266.128 L 425.657 266.128 L 425.657 260.328 L 433.157 259.048 L 433.157 223.488 L 425.657 222.198 L 425.657 216.358 L 441.247 216.358 L 442.037 222.708 L 442.127 223.578 C 443.534 221.038 445.274 219.045 447.347 217.598 C 449.414 216.158 451.784 215.438 454.457 215.438 C 455.404 215.438 456.377 215.525 457.377 215.698 C 458.371 215.865 459.081 216.025 459.507 216.178 L 458.317 224.598 L 452.017 224.228 C 449.624 224.075 447.614 224.618 445.987 225.858 C 444.361 227.098 443.104 228.761 442.217 230.848 L 442.217 259.048 L 449.717 260.328 L 449.717 266.128 Z" transform="matrix(1, 0, 0, 1, 0, 0)" style="white-space: pre;"/>
</svg>