<?xml version="1.0" encoding="utf-8"?>
<svg viewBox="0 0 500 500" width="500" height="500" xmlns="http://www.w3.org/2000/svg">
  <defs>
    <linearGradient gradientUnits="userSpaceOnUse" x1="254.851" y1="371.639" x2="254.851" y2="452.11" id="gradient-1" gradientTransform="matrix(0.02039, 0.999792, -0.35252, 0.007188, 365.369354, 214.04715)">
      <stop offset="0" style="stop-color: rgba(65, 111, 170, 1)"/>
      <stop offset="1" style="stop-color: rgba(37, 63, 96, 1)"/>
    </linearGradient>
    <linearGradient gradientUnits="userSpaceOnUse" x1="254.851" y1="371.639" x2="254.851" y2="452.11" id="gradient-0" gradientTransform="matrix(0.02039, 0.999792, -0.35252, 0.007188, 415.157555, 211.152236)">
      <stop offset="0" style="stop-color: rgba(65, 111, 170, 1)"/>
      <stop offset="1" style="stop-color: rgba(37, 63, 96, 1)"/>
    </linearGradient>
    <radialGradient gradientUnits="userSpaceOnUse" cx="323.084" cy="242.85" r="119.194" id="gradient-2" gradientTransform="matrix(0.70372, -0.019428, 0.027597, 0.999619, 89.147737, 6.358094)">
      <stop offset="0" style="stop-color: rgb(110, 180, 77);"/>
      <stop offset="1" style="stop-color: rgb(60, 117, 24);"/>
    </radialGradient>
  </defs>
  <g>
    <rect y="-130" width="125" height="125" style="fill: rgb(216, 216, 216);"/>
    <rect y="-130" width="125" height="125" style="fill: rgb(216, 216, 216);" x="375"/>
    <rect width="125" height="125" style="fill: rgb(216, 216, 216);" x="505"/>
    <rect width="125" height="125" style="fill: rgb(216, 216, 216);" x="-130"/>
    <rect width="125" height="125" style="fill: rgb(216, 216, 216);" x="-130" y="375"/>
    <rect width="125" height="125" style="fill: rgb(216, 216, 216);" y="505"/>
    <rect y="505" width="125" height="125" style="fill: rgb(216, 216, 216);" x="375"/>
    <rect width="125" height="125" style="fill: rgb(216, 216, 216);" x="505" y="375"/>
  </g>
  <rect x="209.74" y="428.097" width="30.683" height="80.471" style="fill: url(#gradient-1);"/>
  <rect x="259.528" y="425.202" width="30.683" height="80.471" style="fill: url(#gradient-0);"/>
  <polygon style="stroke: rgb(0, 0, 0); fill: rgb(117, 81, 81);" points="1.035 376.861 49.976 327.92 49.976 170.749 3.371 124.144 127.101 0.414 168.348 0.414 168.348 33.56 343.207 33.56 343.207 0.551 500.652 0.551 500.652 153.395 476.741 153.395 476.741 356.599 500.102 356.599 500.102 499.046 374.425 499.046 311.677 436.298 188.605 436.298 188.605 500.184 53.687 500.184 108.436 445.435 74.558 411.557 -0.479 486.594"/>
  <circle style="stroke: rgb(0, 0, 0); fill: url(#gradient-2);" cx="288.474" cy="240.523" r="119.194"/>
  <rect x="100.032" y="69.449" width="56.735" height="65.419" style="fill: rgb(35, 35, 35);"/>
  <rect x="87.875" y="208.392" width="46.893" height="101.892" style="fill: rgb(35, 35, 35);"/>
  <rect x="384.866" y="387.282" width="84.524" height="86.261" style="fill: rgb(35, 35, 35);"/>
  <rect x="387.76" y="39.344" width="91.471" height="21.999" style="fill: rgb(35, 35, 35);"/>
  <rect x="388.761" y="77.554" width="91.471" height="21.999" style="fill: rgb(35, 35, 35);"/>
</svg>