<?xml version="1.0" encoding="utf-8"?>
<svg viewBox="0 0 500 500" width="500" height="500" xmlns="http://www.w3.org/2000/svg">
  <rect x="24.957" y="103.915" width="441.501" height="289.14" style="fill: rgb(139, 139, 139);"/>
  <path d="M 63.373 278.531 L 36.153 278.531 L 36.153 271.971 L 44.633 270.511 L 44.633 210.811 L 36.153 209.351 L 36.153 202.801 L 69.933 202.801 C 75.446 202.801 80.103 203.624 83.903 205.271 C 87.703 206.918 90.593 209.304 92.573 212.431 C 94.553 215.551 95.543 219.368 95.543 223.881 C 95.543 228.321 94.58 232.051 92.653 235.071 C 90.726 238.091 87.993 240.371 84.453 241.911 C 80.913 243.458 76.713 244.281 71.853 244.381 L 54.883 244.701 L 54.883 270.511 L 63.373 271.971 L 63.373 278.531 Z M 98.823 278.531 L 86.173 278.531 L 69.303 240.691 L 79.563 240.581 L 93.563 270.881 L 98.823 271.821 L 98.823 278.531 Z M 54.883 210.811 L 54.883 236.631 L 68.893 236.631 C 74.613 236.631 78.776 235.538 81.383 233.351 C 83.983 231.164 85.283 227.971 85.283 223.771 C 85.283 219.784 84.033 216.628 81.533 214.301 C 79.04 211.974 75.173 210.811 69.933 210.811 L 54.883 210.811 ZM 135.461 278.531 L 108.241 278.531 L 108.241 271.971 L 116.721 270.511 L 116.721 210.811 L 108.241 209.351 L 108.241 202.741 L 135.461 202.741 L 135.461 209.351 L 126.971 210.811 L 126.971 270.511 L 135.461 271.971 L 135.461 278.531 ZM 171.214 278.531 L 143.994 278.531 L 143.994 271.971 L 152.474 270.511 L 152.474 210.811 L 143.994 209.351 L 143.994 202.741 L 152.474 202.741 L 162.834 202.741 L 200.004 261.821 L 200.314 261.721 L 200.314 210.811 L 190.994 209.351 L 190.994 202.741 L 209.734 202.741 L 218.214 202.741 L 218.214 209.351 L 209.734 210.811 L 209.734 278.531 L 200.364 278.531 L 162.214 219.141 L 161.904 219.241 L 161.904 270.511 L 171.214 271.971 L 171.214 278.531 ZM 260.946 279.621 C 253.939 279.621 247.869 278.001 242.736 274.761 C 237.596 271.514 233.639 267.011 230.866 261.251 C 228.086 255.491 226.696 248.828 226.696 241.261 L 226.696 240.011 C 226.696 232.378 228.092 225.691 230.886 219.951 C 233.679 214.204 237.506 209.718 242.366 206.491 C 247.226 203.264 252.742 201.651 258.916 201.651 C 264.816 201.651 269.822 202.328 273.936 203.681 C 278.049 205.034 281.562 206.858 284.476 209.151 L 284.476 224.451 L 276.046 224.451 L 274.956 213.471 C 273.249 212.358 271.166 211.514 268.706 210.941 C 266.239 210.368 263.322 210.081 259.956 210.081 C 255.622 210.081 251.719 211.331 248.246 213.831 C 244.779 216.331 242.039 219.811 240.026 224.271 C 238.012 228.731 237.006 233.944 237.006 239.911 L 237.006 241.261 C 237.006 247.301 237.932 252.568 239.786 257.061 C 241.646 261.554 244.362 265.041 247.936 267.521 C 251.509 270.001 255.846 271.241 260.946 271.241 C 264.419 271.241 267.352 270.938 269.746 270.331 C 272.139 269.724 274.256 268.934 276.096 267.961 L 276.096 250.161 L 261.576 249.641 L 261.576 242.091 L 286.346 242.091 L 286.346 271.451 C 284.166 273.498 281.036 275.371 276.956 277.071 C 272.876 278.771 267.539 279.621 260.946 279.621 ZM 350.526 278.531 L 323.306 278.531 L 323.306 271.971 L 331.786 270.511 L 331.786 210.811 L 323.306 209.351 L 323.306 202.741 L 350.526 202.741 L 350.526 209.351 L 342.036 210.811 L 342.036 270.511 L 350.526 271.971 L 350.526 278.531 ZM 393.21 279.621 C 385.61 279.621 379.266 277.958 374.18 274.631 C 369.1 271.298 365.283 266.734 362.73 260.941 C 360.176 255.141 358.9 248.564 358.9 241.211 L 358.9 240.121 C 358.9 232.694 360.236 226.091 362.91 220.311 C 365.583 214.531 369.42 209.978 374.42 206.651 C 379.413 203.318 385.38 201.651 392.32 201.651 C 397.213 201.651 401.69 202.414 405.75 203.941 C 409.81 205.468 413.176 207.411 415.85 209.771 L 415.85 226.111 L 407.68 226.111 L 406.58 214.141 C 405.473 213.274 404.2 212.548 402.76 211.961 C 401.32 211.368 399.723 210.914 397.97 210.601 C 396.216 210.294 394.316 210.141 392.27 210.141 C 387.31 210.141 383.11 211.414 379.67 213.961 C 376.236 216.514 373.633 220.028 371.86 224.501 C 370.093 228.981 369.21 234.151 369.21 240.011 L 369.21 241.211 C 369.21 247.558 370.156 252.981 372.05 257.481 C 373.936 261.974 376.693 265.401 380.32 267.761 C 383.946 270.114 388.363 271.291 393.57 271.291 C 395.996 271.291 398.373 270.998 400.7 270.411 C 403.026 269.824 404.953 269.061 406.48 268.121 L 407.62 257.551 L 415.64 257.551 L 415.64 274.001 C 412.793 275.774 409.393 277.154 405.44 278.141 C 401.48 279.128 397.403 279.621 393.21 279.621 ZM 483.823 278.531 L 426.103 278.531 L 426.103 271.971 L 434.583 270.511 L 434.583 210.811 L 426.103 209.351 L 426.103 202.741 L 482.213 202.741 L 482.213 220.961 L 473.983 220.961 L 472.843 210.661 L 444.833 210.661 L 444.833 235.331 L 472.793 235.331 L 472.793 243.401 L 444.833 243.401 L 444.833 270.831 L 474.503 270.831 L 475.653 260.361 L 483.823 260.361 L 483.823 278.531 Z" transform="matrix(0.6633460521697998, 0, 0, 0.6633460521697998, 10.746614456176758, 56.16855239868164)" style="white-space: pre;"/>
  <path d="M 93.873 385.131 L 36.153 385.131 L 36.153 378.571 L 44.633 377.111 L 44.633 317.411 L 36.153 315.951 L 36.153 309.341 L 92.263 309.341 L 92.263 327.561 L 84.033 327.561 L 82.893 317.261 L 54.883 317.261 L 54.883 341.931 L 82.843 341.931 L 82.843 350.001 L 54.883 350.001 L 54.883 377.431 L 84.553 377.431 L 85.703 366.961 L 93.873 366.961 L 93.873 385.131 ZM 128.849 385.131 L 104.069 385.131 L 104.069 378.571 L 110.629 377.431 L 134.109 346.661 L 112.349 317.101 L 105.739 315.951 L 105.739 309.341 L 130.309 309.341 L 130.309 315.951 L 123.179 316.631 L 139.939 340.001 L 155.859 316.631 L 148.579 315.951 L 148.579 309.341 L 173.299 309.341 L 173.299 315.951 L 166.379 317.101 L 145.819 346.661 L 168.619 377.431 L 175.329 378.571 L 175.329 385.131 L 150.449 385.131 L 150.449 378.571 L 157.789 377.891 L 139.829 353.271 L 121.929 377.891 L 128.849 378.571 L 128.849 385.131 ZM 229.611 385.131 L 202.391 385.131 L 202.391 378.571 L 210.881 377.111 L 210.881 317.101 L 193.701 317.101 L 192.191 327.611 L 184.491 327.611 L 184.491 309.341 L 247.471 309.341 L 247.471 327.611 L 239.871 327.611 L 238.311 317.101 L 221.131 317.101 L 221.131 377.111 L 229.611 378.571 L 229.611 385.131 ZM 284.112 385.131 L 256.892 385.131 L 256.892 378.571 L 265.372 377.111 L 265.372 317.411 L 256.892 315.951 L 256.892 309.401 L 290.672 309.401 C 296.185 309.401 300.842 310.224 304.642 311.871 C 308.442 313.518 311.332 315.904 313.312 319.031 C 315.292 322.151 316.282 325.968 316.282 330.481 C 316.282 334.921 315.319 338.651 313.392 341.671 C 311.465 344.691 308.732 346.971 305.192 348.511 C 301.652 350.058 297.452 350.881 292.592 350.981 L 275.622 351.301 L 275.622 377.111 L 284.112 378.571 L 284.112 385.131 Z M 319.562 385.131 L 306.912 385.131 L 290.042 347.291 L 300.302 347.181 L 314.302 377.481 L 319.562 378.421 L 319.562 385.131 Z M 275.622 317.411 L 275.622 343.231 L 289.632 343.231 C 295.352 343.231 299.515 342.138 302.122 339.951 C 304.722 337.764 306.022 334.571 306.022 330.371 C 306.022 326.384 304.772 323.228 302.272 320.901 C 299.779 318.574 295.912 317.411 290.672 317.411 L 275.622 317.411 ZM 350.11 385.131 L 328.4 385.131 L 328.4 378.571 L 334.03 377.791 L 360.52 309.341 L 369.32 309.341 L 395.34 377.791 L 400.91 378.571 L 400.91 385.131 L 379.15 385.131 L 379.15 378.571 L 384.88 377.581 L 379.88 363.631 L 349.54 363.631 L 344.38 377.581 L 350.11 378.571 L 350.11 385.131 Z M 364.06 324.231 L 352.71 355.041 L 376.76 355.041 L 365.62 324.231 L 365 322.511 L 364.68 322.511 L 364.06 324.231 ZM 439.377 386.221 C 431.777 386.221 425.434 384.558 420.347 381.231 C 415.267 377.898 411.45 373.334 408.897 367.541 C 406.344 361.741 405.067 355.164 405.067 347.811 L 405.067 346.721 C 405.067 339.294 406.404 332.691 409.077 326.911 C 411.75 321.131 415.587 316.578 420.587 313.251 C 425.58 309.918 431.547 308.251 438.487 308.251 C 443.38 308.251 447.857 309.014 451.917 310.541 C 455.977 312.068 459.344 314.011 462.017 316.371 L 462.017 332.711 L 453.847 332.711 L 452.747 320.741 C 451.64 319.874 450.367 319.148 448.927 318.561 C 447.487 317.968 445.89 317.514 444.137 317.201 C 442.384 316.894 440.484 316.741 438.437 316.741 C 433.477 316.741 429.277 318.014 425.837 320.561 C 422.404 323.114 419.8 326.628 418.027 331.101 C 416.26 335.581 415.377 340.751 415.377 346.611 L 415.377 347.811 C 415.377 354.158 416.324 359.581 418.217 364.081 C 420.104 368.574 422.86 372.001 426.487 374.361 C 430.114 376.714 434.53 377.891 439.737 377.891 C 442.164 377.891 444.54 377.598 446.867 377.011 C 449.194 376.424 451.12 375.661 452.647 374.721 L 453.787 364.151 L 461.807 364.151 L 461.807 380.601 C 458.96 382.374 455.56 383.754 451.607 384.741 C 447.647 385.728 443.57 386.221 439.377 386.221 ZM 516.66 385.131 L 489.44 385.131 L 489.44 378.571 L 497.93 377.111 L 497.93 317.101 L 480.75 317.101 L 479.24 327.611 L 471.54 327.611 L 471.54 309.341 L 534.52 309.341 L 534.52 327.611 L 526.92 327.611 L 525.36 317.101 L 508.18 317.101 L 508.18 377.111 L 516.66 378.571 L 516.66 385.131 ZM 573.394 386.221 C 568.507 386.221 564.12 385.284 560.234 383.411 C 556.347 381.538 553.04 378.891 550.314 375.471 C 547.587 372.058 545.504 368.008 544.064 363.321 C 542.624 358.634 541.904 353.464 541.904 347.811 L 541.904 346.721 C 541.904 341.094 542.624 335.931 544.064 331.231 C 545.504 326.531 547.587 322.464 550.314 319.031 C 553.04 315.591 556.347 312.934 560.234 311.061 C 564.12 309.188 568.507 308.251 573.394 308.251 C 578.567 308.251 583.114 309.188 587.034 311.061 C 590.954 312.934 594.244 315.591 596.904 319.031 C 599.557 322.464 601.56 326.531 602.914 331.231 C 604.267 335.931 604.944 341.094 604.944 346.721 L 604.944 347.811 C 604.944 353.464 604.267 358.634 602.914 363.321 C 601.56 368.008 599.557 372.058 596.904 375.471 C 594.244 378.891 590.954 381.538 587.034 383.411 C 583.114 385.284 578.567 386.221 573.394 386.221 Z M 573.394 377.691 C 578.427 377.691 582.497 376.441 585.604 373.941 C 588.71 371.441 590.99 367.944 592.444 363.451 C 593.904 358.958 594.634 353.744 594.634 347.811 L 594.634 346.611 C 594.634 340.711 593.897 335.534 592.424 331.081 C 590.95 326.621 588.65 323.131 585.524 320.611 C 582.404 318.098 578.36 316.841 573.394 316.841 C 568.854 316.841 565.004 318.108 561.844 320.641 C 558.684 323.174 556.29 326.671 554.664 331.131 C 553.03 335.591 552.214 340.751 552.214 346.611 L 552.214 347.811 C 552.214 353.711 553.03 358.908 554.664 363.401 C 556.29 367.894 558.684 371.398 561.844 373.911 C 565.004 376.431 568.854 377.691 573.394 377.691 ZM 640.022 385.131 L 612.802 385.131 L 612.802 378.571 L 621.282 377.111 L 621.282 317.411 L 612.802 315.951 L 612.802 309.401 L 646.582 309.401 C 652.095 309.401 656.752 310.224 660.552 311.871 C 664.352 313.518 667.242 315.904 669.222 319.031 C 671.202 322.151 672.192 325.968 672.192 330.481 C 672.192 334.921 671.228 338.651 669.302 341.671 C 667.375 344.691 664.642 346.971 661.102 348.511 C 657.562 350.058 653.362 350.881 648.502 350.981 L 631.532 351.301 L 631.532 377.111 L 640.022 378.571 L 640.022 385.131 Z M 675.472 385.131 L 662.822 385.131 L 645.952 347.291 L 656.212 347.181 L 670.212 377.481 L 675.472 378.421 L 675.472 385.131 Z M 631.532 317.411 L 631.532 343.231 L 645.542 343.231 C 651.262 343.231 655.425 342.138 658.032 339.951 C 660.632 337.764 661.932 334.571 661.932 330.371 C 661.932 326.384 660.682 323.228 658.182 320.901 C 655.688 318.574 651.822 317.411 646.582 317.411 L 631.532 317.411 Z" transform="matrix(0.6633460521697998, 0, 0, 0.6633460521697998, 10.746614456176758, 56.16855239868164)" style="white-space: pre;"/>
  <rect x="0.718" y="-0.833" width="497.771" height="106.48" style="fill: rgb(139, 139, 139);"/>
  <rect x="1.151" y="392.622" width="497.771" height="106.48" style="fill: rgb(139, 139, 139);"/>
</svg>