<?xml version="1.0" encoding="utf-8"?>
<svg viewBox="0 0 500 500" width="500" height="500" xmlns="http://www.w3.org/2000/svg" xmlns:bx="https://boxy-svg.com">
  <defs>
    <linearGradient gradientUnits="userSpaceOnUse" x1="299.191" y1="162.645" x2="299.191" y2="325.661" id="gradient-0" gradientTransform="matrix(0.005361, 1.062962, -0.367953, 0.004183, 428.311207, -84.425381)">
      <stop offset="0" style="stop-color: rgb(63, 116, 48);"/>
      <stop offset="1" style="stop-color: rgb(22, 57, 3);"/>
    </linearGradient>
  </defs>
  <g transform="matrix(1, 0, 0, 1, 1.709145, 0)">
    <rect y="-130" width="125" height="125" style="fill: rgb(216, 216, 216);"/>
    <rect y="-130" width="125" height="125" style="fill: rgb(216, 216, 216);" x="375"/>
    <rect width="125" height="125" style="fill: rgb(216, 216, 216);" x="505"/>
    <rect width="125" height="125" style="fill: rgb(216, 216, 216);" x="-130"/>
    <rect width="125" height="125" style="fill: rgb(216, 216, 216);" x="-130" y="375"/>
    <rect width="125" height="125" style="fill: rgb(216, 216, 216);" y="505"/>
    <rect y="505" width="125" height="125" style="fill: rgb(216, 216, 216);" x="375"/>
    <rect width="125" height="125" style="fill: rgb(216, 216, 216);" x="505" y="375"/>
  </g>
  <polygon style="stroke: rgb(0, 0, 0); fill: rgb(22, 54, 33);" points="0.848 376.602 39.104 338.346 39.104 158.425 2.392 121.713 2.392 45.383 45.725 2.05 183.324 2.05 183.324 106.889 494.72 106.889 494.72 157.33 404.508 157.33 404.508 495.603 2.162 495.603"/>
  <rect x="70.264" y="340.242" width="421.786" height="147.426" style="stroke: rgb(0, 0, 0); fill: rgb(41, 100, 61);"/>
  <rect x="223.641" y="12.663" width="158.666" height="118.998" style="stroke: rgb(0, 0, 0); fill: rgb(41, 100, 61);"/>
  <rect x="308.497" y="151.734" width="62.254" height="173.285" style="fill: url(#gradient-0);"/>
  <rect x="95.421" y="174.198" width="183.554" height="36.582" style="fill: rgb(65, 65, 65);"/>
  <rect x="99.271" y="239.661" width="36.582" height="73.165" style="fill: rgb(65, 65, 65);"/>
  <rect x="167.944" y="240.944" width="80.867" height="24.388" style="fill: rgb(65, 65, 65);"/>
  <rect x="168.586" y="284.587" width="105.896" height="26.314" style="fill: rgb(65, 65, 65);"/>
  <path d="M 99.914 82.421 m -48.777 0 a 48.777 48.777 0 1 0 97.554 0 a 48.777 48.777 0 1 0 -97.554 0 Z M 99.914 82.421 m -29.266 0 a 29.266 29.266 0 0 1 58.532 0 a 29.266 29.266 0 0 1 -58.532 0 Z" style="fill: rgb(177, 173, 38);" bx:shape="ring 99.914 82.421 29.266 29.266 48.777 48.777 1@348fe0b4"/>
  <path d="M 308.818 71.189 m -31.769 0 a 31.769 31.769 0 1 0 63.538 0 a 31.769 31.769 0 1 0 -63.538 0 Z M 308.818 71.189 m -19.062 0 a 19.062 19.062 0 0 1 38.124 0 a 19.062 19.062 0 0 1 -38.124 0 Z" style="fill: rgb(177, 173, 38);" bx:shape="ring 308.818 71.189 19.062 19.062 31.769 31.769 1@97812d25"/>
  <path d="M 420.169 417.439 m -44.605 0 a 44.605 44.605 0 1 0 89.21 0 a 44.605 44.605 0 1 0 -89.21 0 Z M 420.169 417.439 m -26.764 0 a 26.764 26.764 0 0 1 53.528 0 a 26.764 26.764 0 0 1 -53.528 0 Z" style="fill: rgb(177, 173, 38);" bx:shape="ring 420.169 417.439 26.764 26.764 44.605 44.605 1@fe752f41"/>
  <path d="M 135.854 418.08 m -44.605 0 a 44.605 44.605 0 1 0 89.21 0 a 44.605 44.605 0 1 0 -89.21 0 Z M 135.854 418.08 m -26.764 0 a 26.764 26.764 0 0 1 53.528 0 a 26.764 26.764 0 0 1 -53.528 0 Z" style="fill: rgb(177, 173, 38);" bx:shape="ring 135.854 418.08 26.764 26.764 44.605 44.605 1@37f6ea0a"/>
  <rect x="164.094" y="405.886" width="220.778" height="25.672" style="fill: rgb(177, 173, 38);"/>
</svg>