<?xml version="1.0" encoding="utf-8"?>
<svg viewBox="0 0 500 500" width="500" height="500" xmlns="http://www.w3.org/2000/svg" xmlns:bx="https://boxy-svg.com">
  <rect x="4.18" y="5.227" width="487.383" height="487.383" style="fill: rgb(216, 216, 216);"/>
  <path d="M 50.928 219.634 H 387.721 L 379.721 204.634 L 432.721 234.634 L 379.721 264.634 L 387.721 249.634 H 50.928 V 219.634 Z" style="" transform="matrix(0.999936, 0.011337, -0.011337, 0.999936, 2.663357, -0.562295)" bx:shape="arrow 50.928 204.634 381.793 60 30 53 8 1@cc60ee27"/>
  <path d="M 86.184 308.218 L 78.724 308.218 L 78.724 306.498 L 80.954 306.108 L 80.954 295.418 L 78.644 295.418 L 78.644 293.428 L 80.954 293.428 L 80.954 291.548 C 80.954 289.975 81.364 288.758 82.184 287.898 C 83.011 287.031 84.164 286.598 85.644 286.598 C 85.951 286.598 86.284 286.625 86.644 286.678 C 87.004 286.731 87.374 286.801 87.754 286.888 L 87.434 288.938 C 87.267 288.905 87.044 288.875 86.764 288.848 C 86.491 288.821 86.231 288.808 85.984 288.808 C 85.191 288.808 84.601 289.041 84.214 289.508 C 83.834 289.975 83.644 290.655 83.644 291.548 L 83.644 293.428 L 86.874 293.428 L 86.874 295.418 L 83.644 295.418 L 83.644 306.108 L 86.184 306.498 L 86.184 308.218 ZM 93.476 308.508 C 91.936 308.508 90.762 308.131 89.956 307.378 C 89.156 306.625 88.756 305.565 88.756 304.198 C 88.756 303.258 89.012 302.441 89.526 301.748 C 90.046 301.048 90.792 300.505 91.766 300.118 C 92.739 299.731 93.906 299.538 95.266 299.538 L 97.906 299.538 L 97.906 298.088 C 97.906 297.195 97.632 296.501 97.086 296.008 C 96.546 295.515 95.782 295.268 94.796 295.268 C 94.176 295.268 93.639 295.345 93.186 295.498 C 92.732 295.645 92.319 295.851 91.946 296.118 L 91.656 298.178 L 89.576 298.178 L 89.576 294.788 C 90.242 294.255 91.016 293.848 91.896 293.568 C 92.782 293.288 93.762 293.148 94.836 293.148 C 96.636 293.148 98.046 293.578 99.066 294.438 C 100.086 295.291 100.596 296.518 100.596 298.118 L 100.596 305.238 C 100.596 305.431 100.599 305.618 100.606 305.798 C 100.606 305.978 100.616 306.161 100.636 306.348 L 102.076 306.498 L 102.076 308.218 L 98.206 308.218 C 98.119 307.818 98.056 307.458 98.016 307.138 C 97.969 306.818 97.936 306.498 97.916 306.178 C 97.396 306.845 96.746 307.398 95.966 307.838 C 95.186 308.285 94.356 308.508 93.476 308.508 Z M 93.866 306.248 C 94.759 306.248 95.576 306.035 96.316 305.608 C 97.056 305.181 97.586 304.665 97.906 304.058 L 97.906 301.378 L 95.166 301.378 C 93.926 301.378 92.996 301.675 92.376 302.268 C 91.756 302.861 91.446 303.525 91.446 304.258 C 91.446 304.905 91.649 305.398 92.056 305.738 C 92.456 306.078 93.059 306.248 93.866 306.248 ZM 112.021 308.508 C 111.055 308.508 110.218 308.321 109.511 307.948 C 108.798 307.581 108.205 307.038 107.731 306.318 L 107.481 308.218 L 105.161 308.218 L 105.161 289.008 L 102.931 288.628 L 102.931 286.888 L 107.851 286.888 L 107.851 295.178 C 108.318 294.518 108.895 294.015 109.581 293.668 C 110.268 293.321 111.075 293.148 112.001 293.148 C 113.221 293.148 114.261 293.478 115.121 294.138 C 115.981 294.805 116.641 295.735 117.101 296.928 C 117.561 298.121 117.791 299.511 117.791 301.098 L 117.791 301.378 C 117.791 302.805 117.561 304.051 117.101 305.118 C 116.641 306.185 115.981 307.015 115.121 307.608 C 114.261 308.208 113.228 308.508 112.021 308.508 Z M 111.341 306.318 C 112.608 306.318 113.548 305.868 114.161 304.968 C 114.781 304.061 115.091 302.865 115.091 301.378 L 115.091 301.098 C 115.091 299.958 114.955 298.958 114.681 298.098 C 114.408 297.231 113.991 296.555 113.431 296.068 C 112.878 295.581 112.171 295.338 111.311 295.338 C 110.485 295.338 109.785 295.538 109.211 295.938 C 108.645 296.338 108.191 296.878 107.851 297.558 L 107.851 304.088 C 108.191 304.775 108.651 305.318 109.231 305.718 C 109.811 306.118 110.515 306.318 111.341 306.318 ZM 126.935 308.218 L 119.785 308.218 L 119.785 306.498 L 122.015 306.108 L 122.015 295.548 L 119.785 295.158 L 119.785 293.428 L 124.425 293.428 L 124.655 295.308 L 124.685 295.568 C 125.105 294.815 125.621 294.225 126.235 293.798 C 126.848 293.365 127.551 293.148 128.345 293.148 C 128.631 293.148 128.921 293.175 129.215 293.228 C 129.515 293.275 129.728 293.321 129.855 293.368 L 129.495 295.868 L 127.625 295.758 C 126.911 295.718 126.315 295.881 125.835 296.248 C 125.348 296.615 124.975 297.108 124.715 297.728 L 124.715 306.108 L 126.935 306.498 L 126.935 308.218 ZM 138.55 308.218 L 131.4 308.218 L 131.4 306.498 L 133.62 306.108 L 133.62 295.548 L 131.4 295.158 L 131.4 293.428 L 136.32 293.428 L 136.32 306.108 L 138.55 306.498 L 138.55 308.218 Z M 136.32 289.778 L 133.49 289.778 L 133.49 286.888 L 136.32 286.888 L 136.32 289.778 ZM 147.094 308.508 C 145.754 308.508 144.587 308.195 143.594 307.568 C 142.6 306.941 141.83 306.075 141.284 304.968 C 140.737 303.855 140.464 302.568 140.464 301.108 L 140.464 300.538 C 140.464 299.131 140.727 297.871 141.254 296.758 C 141.78 295.645 142.54 294.765 143.534 294.118 C 144.527 293.471 145.714 293.148 147.094 293.148 C 148.287 293.148 149.33 293.345 150.224 293.738 C 151.124 294.131 151.88 294.668 152.494 295.348 L 152.564 298.908 L 150.454 298.908 L 149.994 296.328 C 149.68 296.008 149.29 295.751 148.824 295.558 C 148.364 295.365 147.817 295.268 147.184 295.268 C 146.384 295.268 145.68 295.505 145.074 295.978 C 144.467 296.451 143.997 297.085 143.664 297.878 C 143.324 298.671 143.154 299.558 143.154 300.538 L 143.154 301.108 C 143.154 302.181 143.31 303.115 143.624 303.908 C 143.937 304.701 144.387 305.315 144.974 305.748 C 145.567 306.181 146.267 306.398 147.074 306.398 C 147.987 306.398 148.744 306.148 149.344 305.648 C 149.95 305.148 150.32 304.461 150.454 303.588 L 152.874 303.588 L 152.904 303.668 C 152.857 304.515 152.607 305.308 152.154 306.048 C 151.694 306.781 151.044 307.375 150.204 307.828 C 149.357 308.281 148.32 308.508 147.094 308.508 ZM 160.054 308.508 C 158.514 308.508 157.341 308.131 156.534 307.378 C 155.734 306.625 155.334 305.565 155.334 304.198 C 155.334 303.258 155.591 302.441 156.104 301.748 C 156.624 301.048 157.371 300.505 158.344 300.118 C 159.317 299.731 160.484 299.538 161.844 299.538 L 164.484 299.538 L 164.484 298.088 C 164.484 297.195 164.211 296.501 163.664 296.008 C 163.124 295.515 162.361 295.268 161.374 295.268 C 160.754 295.268 160.217 295.345 159.764 295.498 C 159.311 295.645 158.897 295.851 158.524 296.118 L 158.234 298.178 L 156.154 298.178 L 156.154 294.788 C 156.821 294.255 157.594 293.848 158.474 293.568 C 159.361 293.288 160.341 293.148 161.414 293.148 C 163.214 293.148 164.624 293.578 165.644 294.438 C 166.664 295.291 167.174 296.518 167.174 298.118 L 167.174 305.238 C 167.174 305.431 167.177 305.618 167.184 305.798 C 167.184 305.978 167.194 306.161 167.214 306.348 L 168.654 306.498 L 168.654 308.218 L 164.784 308.218 C 164.697 307.818 164.634 307.458 164.594 307.138 C 164.547 306.818 164.514 306.498 164.494 306.178 C 163.974 306.845 163.324 307.398 162.544 307.838 C 161.764 308.285 160.934 308.508 160.054 308.508 Z M 160.444 306.248 C 161.337 306.248 162.154 306.035 162.894 305.608 C 163.634 305.181 164.164 304.665 164.484 304.058 L 164.484 301.378 L 161.744 301.378 C 160.504 301.378 159.574 301.675 158.954 302.268 C 158.334 302.861 158.024 303.525 158.024 304.258 C 158.024 304.905 158.227 305.398 158.634 305.738 C 159.034 306.078 159.637 306.248 160.444 306.248 ZM 175.96 308.448 C 174.866 308.448 174 308.128 173.36 307.488 C 172.72 306.841 172.4 305.815 172.4 304.408 L 172.4 295.418 L 170.06 295.418 L 170.06 293.428 L 172.4 293.428 L 172.4 289.858 L 175.09 289.858 L 175.09 293.428 L 178.3 293.428 L 178.3 295.418 L 175.09 295.418 L 175.09 304.408 C 175.09 305.115 175.23 305.638 175.51 305.978 C 175.796 306.311 176.176 306.478 176.65 306.478 C 176.97 306.478 177.323 306.448 177.71 306.388 C 178.103 306.335 178.41 306.285 178.63 306.238 L 179 307.998 C 178.606 308.118 178.126 308.225 177.56 308.318 C 176.986 308.405 176.453 308.448 175.96 308.448 ZM 187.136 308.508 C 185.77 308.508 184.59 308.185 183.596 307.538 C 182.61 306.898 181.846 306.011 181.306 304.878 C 180.773 303.745 180.506 302.448 180.506 300.988 L 180.506 300.688 C 180.506 299.228 180.773 297.931 181.306 296.798 C 181.846 295.658 182.61 294.765 183.596 294.118 C 184.59 293.471 185.76 293.148 187.106 293.148 C 188.473 293.148 189.65 293.471 190.636 294.118 C 191.63 294.765 192.393 295.655 192.926 296.788 C 193.466 297.921 193.736 299.221 193.736 300.688 L 193.736 300.988 C 193.736 302.455 193.466 303.755 192.926 304.888 C 192.393 306.021 191.633 306.908 190.646 307.548 C 189.66 308.188 188.49 308.508 187.136 308.508 Z M 187.136 306.398 C 187.99 306.398 188.706 306.165 189.286 305.698 C 189.866 305.225 190.303 304.581 190.596 303.768 C 190.896 302.955 191.046 302.028 191.046 300.988 L 191.046 300.688 C 191.046 299.648 190.896 298.718 190.596 297.898 C 190.303 297.085 189.863 296.445 189.276 295.978 C 188.696 295.505 187.973 295.268 187.106 295.268 C 186.246 295.268 185.526 295.505 184.946 295.978 C 184.36 296.445 183.923 297.085 183.636 297.898 C 183.343 298.718 183.196 299.648 183.196 300.688 L 183.196 300.988 C 183.196 302.028 183.343 302.955 183.636 303.768 C 183.923 304.581 184.363 305.225 184.956 305.698 C 185.543 306.165 186.27 306.398 187.136 306.398 ZM 202.933 308.218 L 195.783 308.218 L 195.783 306.498 L 198.013 306.108 L 198.013 295.548 L 195.783 295.158 L 195.783 293.428 L 200.423 293.428 L 200.653 295.308 L 200.683 295.568 C 201.103 294.815 201.619 294.225 202.233 293.798 C 202.846 293.365 203.549 293.148 204.343 293.148 C 204.629 293.148 204.919 293.175 205.213 293.228 C 205.513 293.275 205.726 293.321 205.853 293.368 L 205.493 295.868 L 203.623 295.758 C 202.909 295.718 202.313 295.881 201.833 296.248 C 201.346 296.615 200.973 297.108 200.713 297.728 L 200.713 306.108 L 202.933 306.498 L 202.933 308.218 Z" transform="matrix(3.4719200134277344, 0, 0, 3.7921290397644043, -251.9243927001953, -784.5546875)" style="fill: rgb(51, 51, 51); white-space: pre;"/>
</svg>