<?xml version="1.0" encoding="utf-8"?>
<svg viewBox="0 0 500 500" width="500" height="500" xmlns="http://www.w3.org/2000/svg">
  <g transform="matrix(1, 0, 0, 1, 1.709145, 0)">
    <rect y="-130" width="125" height="125" style="fill: rgb(216, 216, 216);"/>
    <rect y="-130" width="125" height="125" style="fill: rgb(216, 216, 216);" x="375"/>
    <rect width="125" height="125" style="fill: rgb(216, 216, 216);" x="505"/>
    <rect width="125" height="125" style="fill: rgb(216, 216, 216);" x="-130"/>
    <rect width="125" height="125" style="fill: rgb(216, 216, 216);" x="-130" y="375"/>
    <rect width="125" height="125" style="fill: rgb(216, 216, 216);" y="505"/>
    <rect y="505" width="125" height="125" style="fill: rgb(216, 216, 216);" x="375"/>
    <rect width="125" height="125" style="fill: rgb(216, 216, 216);" x="505" y="375"/>
  </g>
  <polygon style="stroke: rgb(0, 0, 0); fill: rgb(62, 95, 76);" points="50.91 1.374 2.422 49.862 2.422 377.151 29.904 443.498 29.904 500.593 145.611 500.593 145.611 456.984 364.733 456.984 364.733 499.09 499.367 499.09 499.367 59.537 440.741 0.911"/>
  <rect x="100.907" y="61.892" width="309.829" height="300.739" style="fill: rgb(15, 15, 15);"/>
  <circle style="stroke: rgb(0, 0, 0); fill: rgb(86, 86, 86);" cx="256.958" cy="210.368" r="140.749"/>
  <rect x="90" y="50" width="49.997" height="330" style="fill: rgb(17, 42, 27);"/>
  <rect x="370" y="50" width="49.997" height="330" style="fill: rgb(17, 42, 27);"/>
  <rect x="373.617" y="51.739" width="49.997" height="330" style="fill: rgb(17, 42, 27);" transform="matrix(0, -1, 1, 0, 38.261002, 753.614014)"/>
  <rect x="373.617" y="51.739" width="49.997" height="330" style="fill: rgb(17, 42, 27);" transform="matrix(0, -1, 1, 0, 38.261002, 473.614014)"/>
  <rect x="160" y="90.819" width="20" height="253.49" style="fill: rgb(17, 42, 27);"/>
  <rect x="200" y="79.835" width="20" height="253.49" style="fill: rgb(17, 42, 27);"/>
  <rect x="240" y="91.198" width="20" height="253.49" style="fill: rgb(17, 42, 27);"/>
  <rect x="280" y="82.865" width="20" height="253.49" style="fill: rgb(17, 42, 27);"/>
  <rect x="320" y="95.743" width="20" height="253.49" style="fill: rgb(17, 42, 27);"/>
  <rect x="706.318" y="98.773" width="20" height="253.49" style="fill: rgb(17, 42, 27);" transform="matrix(0, 1, -1, 0, 480.961334, -584.435425)"/>
  <rect x="746.318" y="87.789" width="20" height="253.49" style="fill: rgb(17, 42, 27);" transform="matrix(0, 1, -1, 0, 480.961334, -584.435425)"/>
  <rect x="786.318" y="99.152" width="20" height="253.49" style="fill: rgb(17, 42, 27);" transform="matrix(0, 1, -1, 0, 480.961334, -584.435425)"/>
  <rect x="826.318" y="90.819" width="20" height="253.49" style="fill: rgb(17, 42, 27);" transform="matrix(0, 1, -1, 0, 480.961334, -584.435425)"/>
  <rect x="866.318" y="103.697" width="20" height="253.49" style="fill: rgb(17, 42, 27);" transform="matrix(0, 1, -1, 0, 480.961334, -584.435425)"/>
  <circle style="stroke: rgb(0, 0, 0); fill: rgb(105, 240, 90);" cx="433.462" cy="431.566" r="37.861"/>
</svg>