<?xml version="1.0" encoding="utf-8"?>
<svg viewBox="0 0 500 500" width="500" height="500" xmlns="http://www.w3.org/2000/svg" xmlns:bx="https://boxy-svg.com">
  <rect x="1.583" y="2.629" width="491.71" height="495.174" style="fill: rgb(139, 139, 139);"/>
  <path d="M 253.251 243.556 H 344.185 L 336.111 228.576 L 389.607 258.537 L 336.111 288.498 L 344.185 273.517 H 253.251 V 243.556 Z" style="fill: rgb(136, 255, 0);" transform="matrix(0.025633, 0.999671, -0.999671, 0.025633, 503.695709, 76.592392)" bx:shape="arrow 253.251 228.576 136.356 59.922 29.961 53.496 8.074 1@283b6094"/>
  <path style="fill: rgb(216, 216, 216);" transform="matrix(-0.821807, 0.272121, -0.272121, -0.821807, 877.964539, 461.57312)" d="M 599 364.937 L 599 364.937 L 612.704 468.401 A 57.263 57.263 0 0 1 612.704 468.401 L 672.92 383.157 L 672.92 383.157 L 636.972 481.138 A 57.263 57.263 0 0 1 636.972 481.138 L 729.906 433.642 L 729.906 433.642 L 652.541 503.694 A 57.263 57.263 0 0 1 652.541 503.694 L 756.903 504.827 L 756.903 504.827 L 655.845 530.902 A 57.263 57.263 0 0 1 655.845 530.902 L 747.726 580.404 L 747.726 580.404 L 646.126 556.529 A 57.263 57.263 0 0 1 646.126 556.529 L 704.478 643.06 L 704.478 643.06 L 625.611 574.704 A 57.263 57.263 0 0 1 625.611 574.704 L 637.066 678.441 L 637.066 678.441 L 599 581.263 A 57.263 57.263 0 0 1 599 581.263 L 560.934 678.441 L 560.934 678.441 L 572.389 574.704 A 57.263 57.263 0 0 1 572.389 574.704 L 493.522 643.06 L 493.522 643.06 L 551.874 556.529 A 57.263 57.263 0 0 1 551.874 556.529 L 450.274 580.404 L 450.274 580.404 L 542.155 530.902 A 57.263 57.263 0 0 1 542.155 530.902 L 441.097 504.827 L 441.097 504.827 L 545.459 503.694 A 57.263 57.263 0 0 1 545.459 503.694 L 468.094 433.642 L 468.094 433.642 L 561.028 481.138 A 57.263 57.263 0 0 1 561.028 481.138 L 525.08 383.157 L 525.08 383.157 L 585.296 468.401 A 57.263 57.263 0 0 1 585.296 468.401 Z M 599 506.503 A 17.497 17.497 0 0 0 599 541.497 A 17.497 17.497 0 0 0 599 506.503" bx:shape="cog 599 524 17.497 57.263 159.063 1 13 1@3ce5479d"/>
</svg>