<?xml version="1.0" encoding="utf-8"?>
<svg viewBox="0 0 500 500" width="500" height="500" xmlns="http://www.w3.org/2000/svg" xmlns:bx="https://boxy-svg.com">
  <defs>
    <radialGradient gradientUnits="userSpaceOnUse" cx="190.516" cy="389.793" r="42.879" id="gradient-0" gradientTransform="matrix(1.182732, -0.494625, 0.535579, 1.280655, -243.577998, -15.163441)">
      <stop offset="0" style="stop-color: rgb(38, 102, 220);"/>
      <stop offset="1" style="stop-color: rgb(20, 36, 104);"/>
    </radialGradient>
    <linearGradient gradientUnits="userSpaceOnUse" x1="188.813" y1="126.69" x2="188.813" y2="268.033" id="gradient-1" gradientTransform="matrix(0.03123, 0.999512, -0.385543, 0.012046, 259.859235, 7.966085)">
      <stop offset="0" style="stop-color: rgb(145, 140, 207);"/>
      <stop offset="1" style="stop-color: rgb(70, 93, 208);"/>
    </linearGradient>
  </defs>
  <polygon style="stroke: rgb(0, 0, 0); fill: rgb(122, 127, 157);" points="1.4900000095367432 -0.17800021171569824 69.7979965209961 -0.17800021171569824 107.64700317382812 37.67100143432617 415.4590148925781 37.67100143432617 451.1449890136719 1.9850000143051147 499.614990234375 1.9850000143051147 499.614990234375 89.26399993896484 448.6050109863281 110.39299774169922 448.6050109863281 252.9080047607422 416.64599609375 284.86700439453125 416.64599609375 351.5469970703125 434.47601318359375 394.5929870605469 434.47601318359375 436.56298828125 371.2130126953125 499.82598876953125 165.82200622558594 499.82598876953125 111.00199890136719 445.0060119628906 64.4209976196289 445.0060119628906 64.4209976196289 333.47601318359375 2.3380000591278076 271.39300537109375"/>
  <path d="M 365.798 38.464 H 399.287 L 388.119 23.464 L 462.106 53.464 L 388.119 83.464 L 399.287 68.464 H 365.798 V 38.464 Z" style="fill: rgb(31, 31, 31);" transform="matrix(0.00919, 0.999958, -0.999958, 0.00919, 303.580627, -314.533112)" bx:shape="arrow 365.798 23.464 96.308 60 30 73.987 11.168 1@2897243b"/>
  <rect x="21.925" y="32.178" width="54.494" height="99.621" style="fill: rgb(75, 75, 75);"/>
  <rect x="17.668" y="160.749" width="116.651" height="62.157" style="fill: rgb(75, 75, 75);"/>
  <rect x="101.963" y="64.533" width="29.801" height="80.889" style="fill: rgb(75, 75, 75);"/>
  <rect x="78.122" y="332.745" width="45.979" height="98.77" style="fill: rgb(75, 75, 75);"/>
  <path d="M 247.131 185.83 H 295.679 V 282.927 H 392.775 V 331.475 H 295.679 V 428.571 H 247.131 V 331.475 H 150.034 V 282.927 H 247.131 Z" style="fill: rgb(40, 60, 70);" bx:shape="cross 150.034 185.83 242.741 242.741 48.548 48.548 0.5 1@0e29cf99"/>
  <rect x="331.007" y="69.642" width="83.444" height="156.67" style="fill: rgb(75, 75, 75);"/>
  <rect x="325.047" y="388.09" width="79.186" height="17.881" style="fill: rgb(75, 75, 75);"/>
  <rect x="335.265" y="412.783" width="32.356" height="14.475" style="fill: rgb(75, 75, 75);"/>
  <rect x="335.265" y="433.643" width="32.356" height="14.475" style="fill: rgb(75, 75, 75);"/>
  <circle style="fill: url(#gradient-0);" cx="180.298" cy="394.902" r="42.879"/>
  <rect x="159.863" y="126.69" width="57.9" height="141.343" style="fill: url(#gradient-1);"/>
</svg>