<?xml version="1.0" encoding="utf-8"?>
<svg viewBox="161.223 115.997 202.261 184.254" width="202.261" height="184.254" xmlns="http://www.w3.org/2000/svg" xmlns:bx="https://boxy-svg.com">
  <rect x="164.412" y="130.833" width="192.257" height="141.371" style="fill: rgb(128, 128, 128);"/>
  <path d="M 250.574 231.229 L 247.054 231.229 L 247.054 230.419 L 248.104 230.239 L 248.104 225.199 L 247.014 225.199 L 247.014 224.259 L 248.104 224.259 L 248.104 223.369 C 248.104 222.629 248.301 222.056 248.694 221.649 C 249.081 221.242 249.621 221.039 250.314 221.039 C 250.461 221.039 250.621 221.052 250.794 221.079 C 250.961 221.099 251.134 221.132 251.314 221.179 L 251.164 222.139 C 251.084 222.126 250.977 222.112 250.844 222.099 C 250.717 222.086 250.594 222.079 250.474 222.079 C 250.101 222.079 249.824 222.189 249.644 222.409 C 249.464 222.629 249.374 222.949 249.374 223.369 L 249.374 224.259 L 250.894 224.259 L 250.894 225.199 L 249.374 225.199 L 249.374 230.239 L 250.574 230.419 L 250.574 231.229 ZM 254.839 231.369 C 254.192 231.369 253.636 231.216 253.169 230.909 C 252.702 230.609 252.342 230.189 252.089 229.649 C 251.836 229.116 251.709 228.506 251.709 227.819 L 251.709 227.679 C 251.709 226.992 251.836 226.379 252.089 225.839 C 252.342 225.306 252.702 224.886 253.169 224.579 C 253.636 224.279 254.189 224.129 254.829 224.129 C 255.469 224.129 256.022 224.279 256.489 224.579 C 256.956 224.886 257.316 225.306 257.569 225.839 C 257.822 226.372 257.949 226.986 257.949 227.679 L 257.949 227.819 C 257.949 228.512 257.822 229.126 257.569 229.659 C 257.316 230.192 256.959 230.609 256.499 230.909 C 256.032 231.216 255.479 231.369 254.839 231.369 Z M 254.839 230.369 C 255.239 230.369 255.576 230.259 255.849 230.039 C 256.122 229.819 256.329 229.516 256.469 229.129 C 256.609 228.749 256.679 228.312 256.679 227.819 L 256.679 227.679 C 256.679 227.186 256.609 226.749 256.469 226.369 C 256.329 225.982 256.122 225.679 255.849 225.459 C 255.576 225.239 255.236 225.129 254.829 225.129 C 254.422 225.129 254.082 225.239 253.809 225.459 C 253.529 225.679 253.322 225.982 253.189 226.369 C 253.049 226.749 252.979 227.186 252.979 227.679 L 252.979 227.819 C 252.979 228.312 253.049 228.749 253.189 229.129 C 253.322 229.516 253.529 229.819 253.809 230.039 C 254.089 230.259 254.432 230.369 254.839 230.369 ZM 262.279 231.229 L 258.909 231.229 L 258.909 230.419 L 259.959 230.239 L 259.959 225.259 L 258.909 225.069 L 258.909 224.259 L 261.099 224.259 L 261.209 225.149 L 261.219 225.269 C 261.419 224.909 261.662 224.629 261.949 224.429 C 262.242 224.229 262.575 224.129 262.949 224.129 C 263.082 224.129 263.219 224.139 263.359 224.159 C 263.499 224.186 263.599 224.209 263.659 224.229 L 263.489 225.409 L 262.609 225.359 C 262.269 225.339 261.985 225.416 261.759 225.589 C 261.532 225.762 261.355 225.996 261.229 226.289 L 261.229 230.239 L 262.279 230.419 L 262.279 231.229 ZM 267.367 234.049 C 267.033 234.049 266.67 234.002 266.277 233.909 C 265.883 233.816 265.54 233.689 265.247 233.529 L 265.577 232.539 C 265.81 232.666 266.087 232.769 266.407 232.849 C 266.733 232.936 267.05 232.979 267.357 232.979 C 267.923 232.979 268.337 232.819 268.597 232.499 C 268.863 232.179 268.997 231.726 268.997 231.139 L 268.997 230.479 C 268.77 230.766 268.497 230.986 268.177 231.139 C 267.857 231.292 267.49 231.369 267.077 231.369 C 266.51 231.369 266.023 231.226 265.617 230.939 C 265.203 230.659 264.883 230.266 264.657 229.759 C 264.437 229.259 264.327 228.676 264.327 228.009 L 264.327 227.869 C 264.327 227.122 264.437 226.469 264.657 225.909 C 264.883 225.342 265.203 224.902 265.617 224.589 C 266.023 224.282 266.517 224.129 267.097 224.129 C 267.537 224.129 267.92 224.216 268.247 224.389 C 268.58 224.556 268.857 224.802 269.077 225.129 L 269.197 224.259 L 270.267 224.259 L 270.267 231.139 C 270.267 231.739 270.153 232.256 269.927 232.689 C 269.7 233.122 269.37 233.459 268.937 233.699 C 268.51 233.932 267.987 234.049 267.367 234.049 Z M 267.397 230.329 C 267.777 230.329 268.097 230.242 268.357 230.069 C 268.617 229.896 268.83 229.652 268.997 229.339 L 268.997 226.129 C 268.83 225.829 268.617 225.592 268.357 225.419 C 268.097 225.246 267.78 225.159 267.407 225.159 C 267.007 225.159 266.67 225.276 266.397 225.509 C 266.13 225.736 265.93 226.052 265.797 226.459 C 265.663 226.866 265.597 227.336 265.597 227.869 L 265.597 228.009 C 265.597 228.709 265.747 229.272 266.047 229.699 C 266.34 230.119 266.79 230.329 267.397 230.329 Z M 271.127 225.069 L 270.077 225.289 L 269.577 224.259 L 271.127 224.259 L 271.127 225.069 ZM 274.896 231.369 C 274.256 231.369 273.696 231.219 273.216 230.919 C 272.743 230.626 272.376 230.219 272.116 229.699 C 271.856 229.172 271.726 228.566 271.726 227.879 L 271.726 227.589 C 271.726 226.929 271.863 226.339 272.136 225.819 C 272.41 225.299 272.773 224.886 273.226 224.579 C 273.68 224.279 274.173 224.129 274.706 224.129 C 275.333 224.129 275.86 224.256 276.286 224.509 C 276.706 224.769 277.023 225.132 277.236 225.599 C 277.456 226.066 277.566 226.616 277.566 227.249 L 277.566 228.039 L 273.036 228.039 L 273.016 228.069 C 273.03 228.516 273.11 228.912 273.256 229.259 C 273.403 229.606 273.616 229.879 273.896 230.079 C 274.176 230.272 274.51 230.369 274.896 230.369 C 275.33 230.369 275.71 230.309 276.036 230.189 C 276.356 230.069 276.636 229.899 276.876 229.679 L 277.366 230.509 C 277.12 230.749 276.79 230.952 276.376 231.119 C 275.97 231.286 275.476 231.369 274.896 231.369 Z M 273.066 227.009 L 273.076 227.049 L 276.296 227.049 L 276.296 226.879 C 276.296 226.546 276.236 226.246 276.116 225.979 C 275.996 225.712 275.82 225.506 275.586 225.359 C 275.353 225.206 275.06 225.129 274.706 225.129 C 274.426 225.129 274.17 225.209 273.936 225.369 C 273.703 225.536 273.51 225.762 273.356 226.049 C 273.21 226.329 273.113 226.649 273.066 227.009 Z" transform="matrix(1, 0, 0, 1, 0, 0)" style="fill: rgb(51, 51, 51); white-space: pre;"/>
  <path d="M 207.616 181.625 H 293.11 L 293.11 166.625 L 333.11 186.625 L 293.11 206.625 L 293.11 191.625 H 207.616 V 181.625 Z" style="fill: rgb(216, 216, 216);" bx:shape="arrow 207.616 166.625 125.494 40 10 40 0 1@7b6bcd3f"/>
</svg>