<?xml version="1.0" encoding="utf-8"?>
<svg viewBox="0 0 500 500" width="500" height="500" xmlns="http://www.w3.org/2000/svg">
  <circle style="stroke: rgb(0, 0, 0); fill: rgb(140, 70, 154);" cx="248.737" cy="248.918" r="241.999"/>
  <path d="M 69.609 267.734 L 35.389 267.734 L 35.389 263.624 L 40.709 262.714 L 40.709 225.304 L 35.389 224.384 L 35.389 220.244 L 40.709 220.244 L 47.129 220.244 L 52.449 220.244 L 52.449 224.384 L 47.129 225.304 L 47.129 262.804 L 63.929 262.804 L 64.679 255.304 L 69.609 255.304 L 69.609 267.734 ZM 91.456 267.734 L 74.406 267.734 L 74.406 263.624 L 79.716 262.714 L 79.716 237.494 L 74.406 236.584 L 74.406 232.444 L 86.146 232.444 L 86.146 262.714 L 91.456 263.624 L 91.456 267.734 Z M 86.146 223.734 L 79.396 223.734 L 79.396 216.854 L 86.146 216.854 L 86.146 223.734 ZM 130.502 281.304 L 113.772 281.304 L 113.772 277.164 L 119.082 276.244 L 119.082 264.404 C 117.956 265.731 116.616 266.731 115.062 267.404 C 113.502 268.077 111.736 268.414 109.762 268.414 C 106.889 268.414 104.426 267.704 102.372 266.284 C 100.319 264.857 98.746 262.874 97.652 260.334 C 96.566 257.787 96.022 254.817 96.022 251.424 L 96.022 250.744 C 96.022 246.957 96.566 243.641 97.652 240.794 C 98.746 237.947 100.322 235.734 102.382 234.154 C 104.449 232.581 106.929 231.794 109.822 231.794 C 111.889 231.794 113.726 232.177 115.332 232.944 C 116.946 233.717 118.316 234.844 119.442 236.324 L 119.972 232.444 L 125.512 232.444 L 125.512 276.244 L 130.502 277.164 L 130.502 281.304 Z M 111.392 263.394 C 113.172 263.394 114.689 263.004 115.942 262.224 C 117.189 261.437 118.236 260.327 119.082 258.894 L 119.082 241.184 C 118.236 239.857 117.182 238.804 115.922 238.024 C 114.662 237.237 113.172 236.844 111.452 236.844 C 109.412 236.844 107.729 237.437 106.402 238.624 C 105.076 239.811 104.086 241.447 103.432 243.534 C 102.779 245.621 102.452 248.024 102.452 250.744 L 102.452 251.424 C 102.452 254.991 103.182 257.877 104.642 260.084 C 106.096 262.291 108.346 263.394 111.392 263.394 ZM 148.573 268.414 C 144.747 268.414 141.757 267.187 139.603 264.734 C 137.45 262.274 136.373 258.447 136.373 253.254 L 136.373 237.494 L 132.333 236.584 L 132.333 232.444 L 136.373 232.444 L 142.803 232.444 L 142.803 253.314 C 142.803 257.081 143.357 259.671 144.463 261.084 C 145.57 262.497 147.3 263.204 149.653 263.204 C 151.933 263.204 153.817 262.741 155.303 261.814 C 156.797 260.887 157.923 259.577 158.683 257.884 L 158.683 237.494 L 153.953 236.584 L 153.953 232.444 L 158.683 232.444 L 165.113 232.444 L 165.113 262.714 L 169.153 263.624 L 169.153 267.734 L 159.333 267.734 L 158.913 262.514 C 157.807 264.407 156.377 265.864 154.623 266.884 C 152.87 267.904 150.853 268.414 148.573 268.414 ZM 190.482 267.734 L 173.432 267.734 L 173.432 263.624 L 178.742 262.714 L 178.742 237.494 L 173.432 236.584 L 173.432 232.444 L 185.172 232.444 L 185.172 262.714 L 190.482 263.624 L 190.482 267.734 Z M 185.172 223.734 L 178.422 223.734 L 178.422 216.854 L 185.172 216.854 L 185.172 223.734 ZM 208.788 268.414 C 205.915 268.414 203.451 267.704 201.398 266.284 C 199.345 264.857 197.771 262.874 196.678 260.334 C 195.591 257.787 195.048 254.817 195.048 251.424 L 195.048 250.744 C 195.048 246.957 195.591 243.641 196.678 240.794 C 197.771 237.947 199.348 235.734 201.408 234.154 C 203.475 232.581 205.955 231.794 208.848 231.794 C 210.935 231.794 212.778 232.177 214.378 232.944 C 215.978 233.717 217.341 234.834 218.468 236.294 L 218.468 221.904 L 213.158 220.994 L 213.158 216.854 L 218.468 216.854 L 224.898 216.854 L 224.898 262.714 L 230.218 263.624 L 230.218 267.734 L 219.318 267.734 L 218.798 263.524 C 217.645 265.137 216.238 266.357 214.578 267.184 C 212.911 268.004 210.981 268.414 208.788 268.414 Z M 210.418 263.204 C 212.331 263.204 213.938 262.767 215.238 261.894 C 216.545 261.027 217.621 259.801 218.468 258.214 L 218.468 241.834 C 217.641 240.354 216.565 239.181 215.238 238.314 C 213.911 237.441 212.325 237.004 210.478 237.004 C 208.438 237.004 206.755 237.587 205.428 238.754 C 204.101 239.914 203.111 241.524 202.458 243.584 C 201.805 245.637 201.478 248.024 201.478 250.744 L 201.478 251.424 C 201.478 254.971 202.208 257.821 203.668 259.974 C 205.121 262.127 207.371 263.204 210.418 263.204 ZM 268.538 267.734 L 251.478 267.734 L 251.478 263.624 L 256.798 262.714 L 256.798 225.304 L 251.478 224.384 L 251.478 220.244 L 268.538 220.244 L 268.538 224.384 L 263.218 225.304 L 263.218 241.704 L 285.928 241.704 L 285.928 225.304 L 280.608 224.384 L 280.608 220.244 L 285.928 220.244 L 292.348 220.244 L 297.668 220.244 L 297.668 224.384 L 292.348 225.304 L 292.348 262.714 L 297.668 263.624 L 297.668 267.734 L 280.608 267.734 L 280.608 263.624 L 285.928 262.714 L 285.928 246.764 L 263.218 246.764 L 263.218 262.714 L 268.538 263.624 L 268.538 267.734 ZM 318.798 268.414 C 315.538 268.414 312.701 267.671 310.288 266.184 C 307.874 264.697 306.011 262.627 304.698 259.974 C 303.378 257.321 302.718 254.254 302.718 250.774 L 302.718 249.334 C 302.718 245.987 303.408 242.994 304.788 240.354 C 306.174 237.707 308.014 235.621 310.308 234.094 C 312.601 232.561 315.108 231.794 317.828 231.794 C 321.001 231.794 323.658 232.444 325.798 233.744 C 327.938 235.051 329.551 236.884 330.638 239.244 C 331.724 241.604 332.268 244.381 332.268 247.574 L 332.268 251.584 L 309.378 251.584 L 309.278 251.754 C 309.318 254.014 309.714 256.021 310.468 257.774 C 311.221 259.521 312.304 260.894 313.718 261.894 C 315.131 262.894 316.824 263.394 318.798 263.394 C 320.978 263.394 322.888 263.084 324.528 262.464 C 326.168 261.844 327.584 260.991 328.778 259.904 L 331.298 264.084 C 330.031 265.297 328.361 266.324 326.288 267.164 C 324.208 267.997 321.711 268.414 318.798 268.414 Z M 309.508 246.404 L 309.568 246.564 L 325.848 246.564 L 325.848 245.714 C 325.848 244.021 325.548 242.504 324.948 241.164 C 324.354 239.831 323.464 238.777 322.278 238.004 C 321.091 237.231 319.608 236.844 317.828 236.844 C 316.388 236.844 315.081 237.264 313.908 238.104 C 312.734 238.937 311.768 240.074 311.008 241.514 C 310.248 242.947 309.748 244.577 309.508 246.404 ZM 353.999 267.734 L 336.939 267.734 L 336.939 263.624 L 342.249 262.714 L 342.249 221.904 L 336.939 220.994 L 336.939 216.854 L 348.679 216.854 L 348.679 262.714 L 353.999 263.624 L 353.999 267.734 ZM 375.388 267.734 L 358.338 267.734 L 358.338 263.624 L 363.648 262.714 L 363.648 237.494 L 358.338 236.584 L 358.338 232.444 L 370.078 232.444 L 370.078 262.714 L 375.388 263.624 L 375.388 267.734 Z M 370.078 223.734 L 363.328 223.734 L 363.328 216.854 L 370.078 216.854 L 370.078 223.734 ZM 395.355 268.414 C 391.528 268.414 388.538 267.187 386.385 264.734 C 384.231 262.274 383.155 258.447 383.155 253.254 L 383.155 237.494 L 379.115 236.584 L 379.115 232.444 L 383.155 232.444 L 389.585 232.444 L 389.585 253.314 C 389.585 257.081 390.138 259.671 391.245 261.084 C 392.351 262.497 394.081 263.204 396.435 263.204 C 398.715 263.204 400.598 262.741 402.085 261.814 C 403.578 260.887 404.705 259.577 405.465 257.884 L 405.465 237.494 L 400.735 236.584 L 400.735 232.444 L 405.465 232.444 L 411.895 232.444 L 411.895 262.714 L 415.935 263.624 L 415.935 267.734 L 406.115 267.734 L 405.695 262.514 C 404.588 264.407 403.158 265.864 401.405 266.884 C 399.651 267.904 397.635 268.414 395.355 268.414 ZM 437.493 267.734 L 420.433 267.734 L 420.433 263.624 L 425.753 262.714 L 425.753 237.494 L 420.433 236.584 L 420.433 232.444 L 431.523 232.444 L 431.953 237.044 C 433.08 235.371 434.536 234.077 436.323 233.164 C 438.103 232.251 440.17 231.794 442.523 231.794 C 444.87 231.794 446.886 232.337 448.573 233.424 C 450.253 234.511 451.52 236.141 452.373 238.314 C 453.48 236.314 454.946 234.727 456.773 233.554 C 458.6 232.381 460.73 231.794 463.163 231.794 C 466.776 231.794 469.626 233.027 471.713 235.494 C 473.8 237.961 474.843 241.674 474.843 246.634 L 474.843 262.714 L 480.163 263.624 L 480.163 267.734 L 463.063 267.734 L 463.063 263.624 L 468.383 262.714 L 468.383 246.564 C 468.383 243.084 467.786 240.621 466.593 239.174 C 465.393 237.727 463.62 237.004 461.273 237.004 C 459.033 237.004 457.233 237.794 455.873 239.374 C 454.513 240.947 453.726 242.931 453.513 245.324 L 453.513 262.714 L 458.823 263.624 L 458.823 267.734 L 441.773 267.734 L 441.773 263.624 L 447.083 262.714 L 447.083 246.564 C 447.083 243.257 446.47 240.837 445.243 239.304 C 444.016 237.771 442.24 237.004 439.913 237.004 C 437.953 237.004 436.343 237.407 435.083 238.214 C 433.823 239.021 432.856 240.151 432.183 241.604 L 432.183 262.714 L 437.493 263.624 L 437.493 267.734 Z" transform="matrix(1, 0, 0, 1, 0, 0)" style="white-space: pre;"/>
</svg>