<?xml version="1.0" encoding="utf-8"?>
<svg viewBox="0 0 500 500" width="500" height="500" xmlns="http://www.w3.org/2000/svg">
  <circle style="stroke: rgb(0, 0, 0); fill: rgb(94, 94, 94);" cx="243.11" cy="154.125" r="147.206"/>
  <rect x="95.078" y="152.394" width="293.468" height="349.738" style="fill: rgb(97, 97, 97);"/>
  <path d="M 124.873 276.637 L 110.313 276.637 L 110.313 273.127 L 114.853 272.347 L 114.853 240.427 L 110.313 239.647 L 110.313 236.117 L 124.873 236.117 L 124.873 239.647 L 120.333 240.427 L 120.333 254.427 L 139.713 254.427 L 139.713 240.427 L 135.173 239.647 L 135.173 236.117 L 139.713 236.117 L 145.193 236.117 L 149.723 236.117 L 149.723 239.647 L 145.193 240.427 L 145.193 272.347 L 149.723 273.127 L 149.723 276.637 L 135.173 276.637 L 135.173 273.127 L 139.713 272.347 L 139.713 258.737 L 120.333 258.737 L 120.333 272.347 L 124.873 273.127 L 124.873 276.637 ZM 160.582 288.797 C 160.155 288.797 159.599 288.747 158.912 288.647 C 158.225 288.547 157.695 288.45 157.322 288.357 L 157.882 284.037 C 158.195 284.077 158.632 284.11 159.192 284.137 C 159.745 284.164 160.125 284.177 160.332 284.177 C 161.499 284.177 162.449 283.734 163.182 282.847 C 163.915 281.954 164.599 280.737 165.232 279.197 L 166.542 276.027 L 155.882 250.507 L 152.652 250.057 L 152.652 246.527 L 165.282 246.527 L 165.282 250.057 L 161.642 250.617 L 167.512 265.667 L 168.932 269.597 L 169.102 269.597 L 176.052 250.617 L 172.212 250.057 L 172.212 246.527 L 184.602 246.527 L 184.602 250.057 L 181.482 250.507 L 169.632 281.257 C 169.072 282.704 168.399 283.997 167.612 285.137 C 166.819 286.277 165.852 287.174 164.712 287.827 C 163.572 288.474 162.195 288.797 160.582 288.797 ZM 198.686 277.217 C 196.233 277.217 194.129 276.61 192.376 275.397 C 190.623 274.184 189.283 272.49 188.356 270.317 C 187.429 268.15 186.966 265.617 186.966 262.717 L 186.966 262.137 C 186.966 258.91 187.429 256.08 188.356 253.647 C 189.283 251.214 190.629 249.327 192.396 247.987 C 194.156 246.64 196.269 245.967 198.736 245.967 C 200.523 245.967 202.096 246.297 203.456 246.957 C 204.823 247.617 205.986 248.567 206.946 249.807 L 206.946 237.537 L 202.416 236.757 L 202.416 233.217 L 206.946 233.217 L 212.436 233.217 L 212.436 272.347 L 216.966 273.127 L 216.966 276.637 L 207.676 276.637 L 207.226 273.047 C 206.246 274.42 205.046 275.46 203.626 276.167 C 202.206 276.867 200.559 277.217 198.686 277.217 Z M 200.076 272.767 C 201.709 272.767 203.083 272.397 204.196 271.657 C 205.309 270.91 206.226 269.86 206.946 268.507 L 206.946 254.537 C 206.246 253.277 205.329 252.277 204.196 251.537 C 203.063 250.79 201.709 250.417 200.136 250.417 C 198.389 250.417 196.949 250.914 195.816 251.907 C 194.683 252.9 193.839 254.274 193.286 256.027 C 192.726 257.78 192.446 259.817 192.446 262.137 L 192.446 262.717 C 192.446 265.744 193.069 268.177 194.316 270.017 C 195.556 271.85 197.476 272.767 200.076 272.767 ZM 235.255 276.637 L 220.695 276.637 L 220.695 273.127 L 225.235 272.347 L 225.235 250.837 L 220.695 250.057 L 220.695 246.527 L 230.135 246.527 L 230.605 250.367 L 230.665 250.897 C 231.519 249.357 232.572 248.15 233.825 247.277 C 235.079 246.404 236.512 245.967 238.125 245.967 C 238.699 245.967 239.285 246.017 239.885 246.117 C 240.492 246.224 240.925 246.32 241.185 246.407 L 240.455 251.507 L 236.645 251.287 C 235.199 251.194 233.985 251.52 233.005 252.267 C 232.019 253.02 231.255 254.027 230.715 255.287 L 230.715 272.347 L 235.255 273.127 L 235.255 276.637 ZM 257.577 277.217 C 254.791 277.217 252.391 276.564 250.377 275.257 C 248.371 273.95 246.817 272.144 245.717 269.837 C 244.624 267.524 244.077 264.884 244.077 261.917 L 244.077 261.297 C 244.077 258.33 244.624 255.694 245.717 253.387 C 246.817 251.074 248.371 249.26 250.377 247.947 C 252.391 246.627 254.771 245.967 257.517 245.967 C 260.304 245.967 262.704 246.627 264.717 247.947 C 266.731 249.26 268.284 251.067 269.377 253.367 C 270.471 255.667 271.017 258.31 271.017 261.297 L 271.017 261.917 C 271.017 264.904 270.471 267.55 269.377 269.857 C 268.284 272.17 266.734 273.977 264.727 275.277 C 262.727 276.57 260.344 277.217 257.577 277.217 Z M 257.577 272.937 C 259.324 272.937 260.784 272.457 261.957 271.497 C 263.137 270.544 264.027 269.237 264.627 267.577 C 265.234 265.917 265.537 264.03 265.537 261.917 L 265.537 261.297 C 265.537 259.184 265.234 257.297 264.627 255.637 C 264.027 253.977 263.134 252.67 261.947 251.717 C 260.761 250.757 259.284 250.277 257.517 250.277 C 255.777 250.277 254.314 250.757 253.127 251.717 C 251.941 252.67 251.047 253.977 250.447 255.637 C 249.854 257.297 249.557 259.184 249.557 261.297 L 249.557 261.917 C 249.557 264.03 249.854 265.917 250.447 267.577 C 251.047 269.237 251.944 270.544 253.137 271.497 C 254.337 272.457 255.817 272.937 257.577 272.937 ZM 289.445 288.797 C 287.998 288.797 286.431 288.597 284.745 288.197 C 283.051 287.804 281.565 287.264 280.285 286.577 L 281.705 282.317 C 282.725 282.85 283.931 283.294 285.325 283.647 C 286.718 284 288.071 284.177 289.385 284.177 C 291.838 284.177 293.635 283.49 294.775 282.117 C 295.915 280.744 296.485 278.787 296.485 276.247 L 296.485 273.377 C 295.505 274.644 294.328 275.6 292.955 276.247 C 291.581 276.894 290.005 277.217 288.225 277.217 C 285.771 277.217 283.655 276.61 281.875 275.397 C 280.095 274.184 278.725 272.487 277.765 270.307 C 276.811 268.127 276.335 265.597 276.335 262.717 L 276.335 262.137 C 276.335 258.91 276.811 256.08 277.765 253.647 C 278.725 251.214 280.095 249.327 281.875 247.987 C 283.655 246.64 285.788 245.967 288.275 245.967 C 290.168 245.967 291.828 246.337 293.255 247.077 C 294.688 247.824 295.885 248.9 296.845 250.307 L 297.345 246.527 L 301.965 246.527 L 301.965 276.247 C 301.965 278.847 301.478 281.084 300.505 282.957 C 299.531 284.83 298.111 286.274 296.245 287.287 C 294.385 288.294 292.118 288.797 289.445 288.797 Z M 289.585 272.767 C 291.238 272.767 292.621 272.39 293.735 271.637 C 294.848 270.89 295.765 269.83 296.485 268.457 L 296.485 254.597 C 295.778 253.317 294.861 252.3 293.735 251.547 C 292.601 250.794 291.235 250.417 289.635 250.417 C 287.895 250.417 286.445 250.92 285.285 251.927 C 284.125 252.927 283.258 254.304 282.685 256.057 C 282.105 257.81 281.815 259.837 281.815 262.137 L 281.815 262.717 C 281.815 265.744 282.455 268.177 283.735 270.017 C 285.015 271.85 286.965 272.767 289.585 272.767 Z M 305.695 250.027 L 301.135 251.007 L 298.995 246.527 L 305.695 246.527 L 305.695 250.027 ZM 322.007 277.217 C 319.227 277.217 316.807 276.584 314.747 275.317 C 312.687 274.044 311.094 272.277 309.967 270.017 C 308.847 267.75 308.287 265.134 308.287 262.167 L 308.287 260.937 C 308.287 258.084 308.877 255.53 310.057 253.277 C 311.23 251.017 312.797 249.234 314.757 247.927 C 316.717 246.62 318.857 245.967 321.177 245.967 C 323.884 245.967 326.15 246.524 327.977 247.637 C 329.804 248.75 331.18 250.314 332.107 252.327 C 333.04 254.34 333.507 256.71 333.507 259.437 L 333.507 262.857 L 313.967 262.857 L 313.877 262.997 C 313.917 264.93 314.257 266.644 314.897 268.137 C 315.537 269.63 316.46 270.804 317.667 271.657 C 318.874 272.51 320.32 272.937 322.007 272.937 C 323.86 272.937 325.49 272.674 326.897 272.147 C 328.297 271.614 329.507 270.884 330.527 269.957 L 332.667 273.517 C 331.594 274.557 330.17 275.434 328.397 276.147 C 326.624 276.86 324.494 277.217 322.007 277.217 Z M 314.077 258.437 L 314.127 258.577 L 328.017 258.577 L 328.017 257.847 C 328.017 256.4 327.764 255.107 327.257 253.967 C 326.744 252.827 325.98 251.927 324.967 251.267 C 323.96 250.607 322.697 250.277 321.177 250.277 C 319.95 250.277 318.837 250.634 317.837 251.347 C 316.83 252.067 316.004 253.037 315.357 254.257 C 314.704 255.484 314.277 256.877 314.077 258.437 ZM 352.321 276.637 L 337.761 276.637 L 337.761 273.127 L 342.301 272.347 L 342.301 250.837 L 337.761 250.057 L 337.761 246.527 L 347.191 246.527 L 347.581 251.007 C 348.588 249.407 349.848 248.167 351.361 247.287 C 352.868 246.407 354.588 245.967 356.521 245.967 C 359.768 245.967 362.281 246.917 364.061 248.817 C 365.841 250.717 366.731 253.654 366.731 257.627 L 366.731 272.347 L 371.271 273.127 L 371.271 276.637 L 356.711 276.637 L 356.711 273.127 L 361.251 272.347 L 361.251 257.737 C 361.251 255.084 360.728 253.2 359.681 252.087 C 358.628 250.974 357.028 250.417 354.881 250.417 C 353.301 250.417 351.905 250.797 350.691 251.557 C 349.471 252.317 348.501 253.357 347.781 254.677 L 347.781 272.347 L 352.321 273.127 L 352.321 276.637 Z" transform="matrix(1, 0, 0, 1, 0, 0)" style="white-space: pre;"/>
</svg>