<?xml version="1.0" encoding="utf-8"?>
<svg viewBox="0 0 500 500" width="500" height="500" xmlns="http://www.w3.org/2000/svg" xmlns:bx="https://boxy-svg.com">
  <path d="M 703 312.984 L 914.15 466.393 L 833.498 714.615 L 572.502 714.615 L 491.85 466.393 Z" style="fill: rgb(8, 52, 133);" transform="matrix(0.967983, -0.251017, 0.251017, 0.967983, -565.615479, -97.248985)" bx:shape="n-gon 703 535 222.016 222.016 5 0 1@b30361a7"/>
  <path d="M 156.511 318.431 L 105.611 318.431 L 105.611 306.171 L 121.471 303.441 L 121.471 191.821 L 105.611 189.101 L 105.611 176.741 L 156.511 176.741 L 156.511 189.101 L 140.651 191.821 L 140.651 303.441 L 156.511 306.171 L 156.511 318.431 ZM 236.311 320.471 C 222.098 320.471 210.241 317.358 200.741 311.131 C 191.235 304.904 184.098 296.374 179.331 285.541 C 174.565 274.708 172.181 262.414 172.181 248.661 L 172.181 246.611 C 172.181 232.731 174.678 220.388 179.671 209.581 C 184.665 198.781 191.831 190.268 201.171 184.041 C 210.518 177.814 221.678 174.701 234.651 174.701 C 243.798 174.701 252.168 176.128 259.761 178.981 C 267.348 181.834 273.641 185.468 278.641 189.881 L 278.641 220.431 L 263.361 220.431 L 261.321 198.051 C 259.241 196.431 256.855 195.068 254.161 193.961 C 251.468 192.861 248.485 192.018 245.211 191.431 C 241.938 190.851 238.385 190.561 234.551 190.561 C 225.278 190.561 217.428 192.944 211.001 197.711 C 204.581 202.478 199.718 209.048 196.411 217.421 C 193.098 225.788 191.441 235.454 191.441 246.421 L 191.441 248.661 C 191.441 260.528 193.211 270.664 196.751 279.071 C 200.285 287.471 205.441 293.878 212.221 298.291 C 219.001 302.698 227.258 304.901 236.991 304.901 C 241.531 304.901 245.975 304.351 250.321 303.251 C 254.668 302.144 258.268 300.718 261.121 298.971 L 263.261 279.211 L 278.251 279.211 L 278.251 309.961 C 272.931 313.274 266.571 315.854 259.171 317.701 C 251.778 319.548 244.158 320.471 236.311 320.471 ZM 405.727 318.431 L 297.807 318.431 L 297.807 306.171 L 313.667 303.441 L 313.667 191.821 L 297.807 189.101 L 297.807 176.741 L 402.717 176.741 L 402.717 210.801 L 387.337 210.801 L 385.197 191.531 L 332.847 191.531 L 332.847 237.661 L 385.097 237.661 L 385.097 252.741 L 332.847 252.741 L 332.847 304.031 L 388.307 304.031 L 390.457 284.471 L 405.727 284.471 L 405.727 318.431 Z" transform="matrix(1, 0, 0, 1, 0, 0)" style="white-space: pre;"/>
</svg>