<?xml version="1.0" encoding="utf-8"?>
<svg viewBox="0 0 500 500" width="500" height="500" xmlns="http://www.w3.org/2000/svg" xmlns:bx="https://boxy-svg.com">
  <g transform="matrix(1, 0, 0, 1, 1.709145, 0)">
    <rect y="-130" width="125" height="125" style="fill: rgb(216, 216, 216);"/>
    <rect y="-130" width="125" height="125" style="fill: rgb(216, 216, 216);" x="375"/>
    <rect width="125" height="125" style="fill: rgb(216, 216, 216);" x="505"/>
    <rect width="125" height="125" style="fill: rgb(216, 216, 216);" x="-130"/>
    <rect width="125" height="125" style="fill: rgb(216, 216, 216);" x="-130" y="375"/>
    <rect width="125" height="125" style="fill: rgb(216, 216, 216);" y="505"/>
    <rect y="505" width="125" height="125" style="fill: rgb(216, 216, 216);" x="375"/>
    <rect width="125" height="125" style="fill: rgb(216, 216, 216);" x="505" y="375"/>
  </g>
  <rect x="144.634" y="94.208" width="210.092" height="99.936" style="fill: rgb(255, 45, 45);"/>
  <polygon style="stroke: rgb(0, 0, 0); fill: rgb(145, 129, 22);" points="127.421 499.659 159.994 467.086 345.627 467.086 377.424 498.883 500.127 498.883 500.127 408.498 448.61 408.498 460.467 379.872 499.393 379.872 499.393 1.203 344.785 1.203 344.785 186.067 151.609 186.067 151.609 1.962 0.912 1.962 0.912 271.644"/>
  <path d="M 263.397 230.306 L 359.328 396.463 L 167.465 396.463 L 263.397 230.306 Z" style="fill: rgb(247, 255, 0);" bx:shape="triangle 167.465 230.306 191.863 166.157 0.5 0 1@1c000601"/>
  <rect x="286.141" y="337.114" width="53.026" height="8.408" style=""/>
  <circle style="stroke: rgb(0, 0, 0);" cx="267.862" cy="340.717" r="19.603"/>
  <rect x="426.306" y="300.28" width="29.035" height="4.127" style="" transform="matrix(0, -1, 1, 0, -34.112522, 748.735229)"/>
  <rect x="265.103" y="300.28" width="18.056" height="4.127" style="" transform="matrix(0.258819, -0.965926, 0.965926, 0.258819, -86.834084, 501.315063)"/>
  <rect x="265.103" y="300.28" width="18.056" height="4.127" style="" transform="matrix(0.5, -0.866025, 0.866025, 0.5, -116.016304, 404.739014)"/>
  <rect x="403.833" y="300.28" width="27.505" height="4.127" style="" transform="matrix(0.707107, -0.707107, 0.707107, 0.707107, -217.33963, 400.11319)"/>
  <rect x="265.103" y="300.28" width="18.056" height="4.127" style="" transform="matrix(0.866025, -0.5, 0.5, 0.866025, -96.371414, 202.941284)"/>
  <rect x="265.103" y="300.28" width="18.056" height="4.127" style="" transform="matrix(0.965926, -0.258819, 0.258819, 0.965926, -48.347092, 113.38855)"/>
  <rect x="265.103" y="300.28" width="18.056" height="4.127" style="" transform="matrix(0.965926, 0.258819, -0.258819, 0.965926, 108.242393, -14.337453)"/>
  <rect x="265.103" y="300.28" width="18.056" height="4.127" style="" transform="matrix(0.866025, 0.5, -0.5, 0.866025, 205.352783, -44.332912)"/>
  <rect x="464.803" y="300.28" width="31.657" height="4.127" style="" transform="matrix(0.707107, 0.707107, -0.707107, 0.707107, 165.671005, -189.929779)"/>
  <rect x="265.103" y="300.28" width="18.056" height="4.127" style="" transform="matrix(0.5, 0.866025, -0.866025, 0.5, 407.273102, -24.587143)"/>
  <rect x="265.103" y="300.28" width="18.056" height="4.127" style="" transform="matrix(0.258819, 0.965926, -0.965926, 0.258819, 497.081116, 24.741945)"/>
  <rect x="542.523" y="300.28" width="36.951" height="4.127" style="" transform="matrix(0, 1, -1, 0, 569.998474, -188.437149)"/>
  <rect x="265.103" y="300.28" width="18.056" height="4.127" style="" transform="matrix(-0.258819, 0.965926, -0.965926, -0.258819, 623.203064, 179.965256)"/>
  <rect x="265.103" y="300.28" width="18.056" height="4.127" style="" transform="matrix(-0.5, 0.866025, -0.866025, -0.5, 652.656311, 278.025177)"/>
  <rect x="556.7" y="300.28" width="37.917" height="4.127" style="" transform="matrix(-0.707107, 0.707107, -0.707107, -0.707107, 861.446228, 173.796127)"/>
  <rect x="265.103" y="300.28" width="18.056" height="4.127" style="" transform="matrix(-0.866025, 0.5, -0.5, -0.866025, 632.296753, 478.695374)"/>
  <rect x="265.103" y="300.28" width="18.056" height="4.127" style="" transform="matrix(-0.965926, 0.258819, -0.258819, -0.965926, 584.159424, 569.323486)"/>
  <rect x="-250.694" y="-344.771" width="32.185" height="4.127" style="" transform="matrix(-1, 0, 0, -1, 0, 0)"/>
  <rect x="-220.207" y="-345.201" width="16.41" height="4.127" style="" transform="matrix(-0.965926, -0.258819, 0.258819, -0.965926, 125.116356, -51.971973)"/>
  <rect x="-242.292" y="-345.201" width="18.056" height="4.127" style="" transform="matrix(-0.866025, -0.5, 0.5, -0.866025, 212.443115, -86.532799)"/>
  <rect x="-378.776" y="-345.201" width="28.227" height="4.127" style="" transform="matrix(-0.707107, -0.707107, 0.707107, -0.707107, 228.105072, -181.551865)"/>
  <rect x="-235.062" y="-345.201" width="17.517" height="4.127" style="" transform="matrix(-0.5, -0.866025, 0.866025, -0.5, 437.18924, -49.198128)"/>
  <rect x="-242.292" y="-345.201" width="18.056" height="4.127" style="" transform="matrix(-0.258819, -0.965926, 0.965926, -0.258819, 531.448792, 1.737825)"/>
  <rect x="395.271" y="48.011" width="70.052" height="283.669" style="fill: rgb(37, 37, 37);"/>
  <rect x="41.118" y="22.93" width="70.052" height="181.617" style="fill: rgb(37, 37, 37);"/>
</svg>