<?xml version="1.0" encoding="utf-8"?>
<svg viewBox="161.223 115.997 202.261 184.254" width="202.261" height="184.254" xmlns="http://www.w3.org/2000/svg">
  <rect x="162.808" y="120.809" width="197.068" height="171.442" style="fill: rgb(160, 180, 205);" rx="28.467" ry="28.467"/>
  <path d="M 222.388 184.319 L 219.018 184.319 L 219.018 183.509 L 220.068 183.329 L 220.068 178.349 L 219.018 178.159 L 219.018 177.349 L 221.208 177.349 L 221.288 178.249 C 221.515 177.922 221.805 177.669 222.158 177.489 C 222.505 177.309 222.911 177.219 223.378 177.219 C 223.845 177.219 224.245 177.326 224.578 177.539 C 224.911 177.752 225.161 178.076 225.328 178.509 C 225.548 178.109 225.838 177.796 226.198 177.569 C 226.558 177.336 226.978 177.219 227.458 177.219 C 228.171 177.219 228.735 177.462 229.148 177.949 C 229.561 178.436 229.768 179.169 229.768 180.149 L 229.768 183.329 L 230.818 183.509 L 230.818 184.319 L 227.438 184.319 L 227.438 183.509 L 228.488 183.329 L 228.488 180.139 C 228.488 179.452 228.371 178.966 228.138 178.679 C 227.898 178.392 227.548 178.249 227.088 178.249 C 226.641 178.249 226.285 178.406 226.018 178.719 C 225.751 179.026 225.595 179.416 225.548 179.889 L 225.548 183.329 L 226.598 183.509 L 226.598 184.319 L 223.228 184.319 L 223.228 183.509 L 224.278 183.329 L 224.278 180.139 C 224.278 179.486 224.158 179.006 223.918 178.699 C 223.671 178.399 223.318 178.249 222.858 178.249 C 222.471 178.249 222.155 178.329 221.908 178.489 C 221.661 178.649 221.471 178.872 221.338 179.159 L 221.338 183.329 L 222.388 183.509 L 222.388 184.319 ZM 234.832 184.459 C 234.192 184.459 233.632 184.309 233.152 184.009 C 232.678 183.716 232.312 183.309 232.052 182.789 C 231.792 182.262 231.662 181.656 231.662 180.969 L 231.662 180.679 C 231.662 180.019 231.798 179.429 232.072 178.909 C 232.345 178.389 232.708 177.976 233.162 177.669 C 233.615 177.369 234.108 177.219 234.642 177.219 C 235.268 177.219 235.795 177.346 236.222 177.599 C 236.642 177.859 236.958 178.222 237.172 178.689 C 237.392 179.156 237.502 179.706 237.502 180.339 L 237.502 181.129 L 232.972 181.129 L 232.952 181.159 C 232.965 181.606 233.045 182.002 233.192 182.349 C 233.338 182.696 233.552 182.969 233.832 183.169 C 234.112 183.362 234.445 183.459 234.832 183.459 C 235.265 183.459 235.645 183.399 235.972 183.279 C 236.292 183.159 236.572 182.989 236.812 182.769 L 237.302 183.599 C 237.055 183.839 236.725 184.042 236.312 184.209 C 235.905 184.376 235.412 184.459 234.832 184.459 Z M 233.002 180.099 L 233.012 180.139 L 236.232 180.139 L 236.232 179.969 C 236.232 179.636 236.172 179.336 236.052 179.069 C 235.932 178.802 235.755 178.596 235.522 178.449 C 235.288 178.296 234.995 178.219 234.642 178.219 C 234.362 178.219 234.105 178.299 233.872 178.459 C 233.638 178.626 233.445 178.852 233.292 179.139 C 233.145 179.419 233.048 179.739 233.002 180.099 ZM 240.946 184.429 C 240.433 184.429 240.023 184.279 239.716 183.979 C 239.416 183.672 239.266 183.186 239.266 182.519 L 239.266 178.289 L 238.156 178.289 L 238.156 177.349 L 239.266 177.349 L 239.266 175.659 L 240.536 175.659 L 240.536 177.349 L 242.046 177.349 L 242.046 178.289 L 240.536 178.289 L 240.536 182.519 C 240.536 182.852 240.603 183.099 240.736 183.259 C 240.869 183.419 241.046 183.499 241.266 183.499 C 241.419 183.499 241.586 183.486 241.766 183.459 C 241.953 183.432 242.099 183.409 242.206 183.389 L 242.376 184.219 C 242.189 184.272 241.963 184.322 241.696 184.369 C 241.429 184.409 241.179 184.429 240.946 184.429 ZM 245.44 184.459 C 244.714 184.459 244.164 184.279 243.79 183.919 C 243.41 183.566 243.22 183.069 243.22 182.429 C 243.22 181.982 243.34 181.596 243.58 181.269 C 243.827 180.942 244.18 180.686 244.64 180.499 C 245.1 180.319 245.65 180.229 246.29 180.229 L 247.53 180.229 L 247.53 179.539 C 247.53 179.119 247.404 178.792 247.15 178.559 C 246.89 178.332 246.53 178.219 246.07 178.219 C 245.777 178.219 245.524 178.252 245.31 178.319 C 245.097 178.392 244.9 178.492 244.72 178.619 L 244.59 179.589 L 243.61 179.589 L 243.61 177.989 C 243.924 177.736 244.287 177.542 244.7 177.409 C 245.12 177.282 245.584 177.219 246.09 177.219 C 246.937 177.219 247.6 177.419 248.08 177.819 C 248.56 178.226 248.8 178.806 248.8 179.559 L 248.8 182.909 C 248.8 183.002 248.8 183.092 248.8 183.179 C 248.807 183.266 248.814 183.352 248.82 183.439 L 249.5 183.509 L 249.5 184.319 L 247.67 184.319 C 247.63 184.132 247.6 183.962 247.58 183.809 C 247.56 183.662 247.547 183.512 247.54 183.359 C 247.294 183.672 246.987 183.932 246.62 184.139 C 246.254 184.352 245.86 184.459 245.44 184.459 Z M 245.63 183.389 C 246.05 183.389 246.434 183.289 246.78 183.089 C 247.134 182.889 247.384 182.646 247.53 182.359 L 247.53 181.099 L 246.24 181.099 C 245.66 181.099 245.224 181.239 244.93 181.519 C 244.637 181.799 244.49 182.109 244.49 182.449 C 244.49 182.756 244.584 182.989 244.77 183.149 C 244.964 183.309 245.25 183.389 245.63 183.389 ZM 253.785 184.319 L 250.415 184.319 L 250.415 183.509 L 251.465 183.329 L 251.465 175.259 L 250.415 175.079 L 250.415 174.269 L 252.735 174.269 L 252.735 183.329 L 253.785 183.509 L 253.785 184.319 Z" transform="matrix(2.7189199924468994, 0, 0, 2.96488618850708, -382.052734375, -332.9111633300781)" style="fill: rgb(51, 51, 51); white-space: pre;"/>
</svg>