<?xml version="1.0" encoding="utf-8"?>
<svg viewBox="0 0 500 500" width="500" height="500" xmlns="http://www.w3.org/2000/svg">
  <circle style="stroke: rgb(0, 0, 0); fill: rgb(7, 7, 7);" cx="119.316" cy="133.349" r="57.749" transform="matrix(1.393386, 0, 0, 1.383641, -75.480316, -96.526978)"/>
  <circle style="stroke: rgb(0, 0, 0); fill: rgb(7, 7, 7);" cx="231.857" cy="134.215" r="57.749" transform="matrix(1.393386, 0, 0, 1.383641, -75.480316, -96.526978)"/>
  <circle style="stroke: rgb(0, 0, 0); fill: rgb(7, 7, 7);" cx="344.396" cy="135.08" r="57.749" transform="matrix(1.393386, 0, 0, 1.383641, -75.480316, -96.526978)"/>
  <circle style="stroke: rgb(0, 0, 0); fill: rgb(7, 7, 7);" cx="349.59" cy="247.62" r="57.749" transform="matrix(1.393386, 0, 0, 1.383641, -75.480316, -96.526978)"/>
  <circle style="stroke: rgb(0, 0, 0); fill: rgb(7, 7, 7);" cx="237.051" cy="247.62" r="57.749" transform="matrix(1.393386, 0, 0, 1.383641, -75.480316, -96.526978)"/>
  <circle style="stroke: rgb(0, 0, 0); fill: rgb(7, 7, 7);" cx="117.586" cy="252.814" r="57.749" transform="matrix(1.393386, 0, 0, 1.383641, -75.480316, -96.526978)"/>
  <circle style="stroke: rgb(0, 0, 0); fill: rgb(7, 7, 7);" cx="118.451" cy="365.353" r="57.749" transform="matrix(1.393386, 0, 0, 1.383641, -75.480316, -96.526978)"/>
  <circle style="stroke: rgb(0, 0, 0); fill: rgb(7, 7, 7);" cx="233.588" cy="363.622" r="57.749" transform="matrix(1.393386, 0, 0, 1.383641, -75.480316, -96.526978)"/>
  <circle style="stroke: rgb(0, 0, 0); fill: rgb(7, 7, 7);" cx="350.456" cy="364.488" r="57.749" transform="matrix(1.393386, 0, 0, 1.383641, -75.480316, -96.526978)"/>
  <path d="M 105.166 263.585 L 88.256 263.585 L 88.256 259.515 L 93.526 258.605 L 93.526 221.535 L 88.256 220.625 L 88.256 216.525 L 93.526 216.525 L 99.956 216.525 L 123.036 253.205 L 123.236 253.145 L 123.236 221.535 L 117.446 220.625 L 117.446 216.525 L 129.086 216.525 L 134.356 216.525 L 134.356 220.625 L 129.086 221.535 L 129.086 263.585 L 123.266 263.585 L 99.576 226.705 L 99.376 226.765 L 99.376 258.605 L 105.166 259.515 L 105.166 263.585 ZM 150.738 264.265 C 147.092 264.265 144.322 263.375 142.428 261.595 C 140.528 259.822 139.578 257.318 139.578 254.085 C 139.578 251.865 140.188 249.928 141.408 248.275 C 142.628 246.628 144.388 245.348 146.688 244.435 C 148.995 243.515 151.755 243.055 154.968 243.055 L 161.208 243.055 L 161.208 239.635 C 161.208 237.522 160.568 235.882 159.288 234.715 C 158.002 233.555 156.195 232.975 153.868 232.975 C 152.402 232.975 151.132 233.152 150.058 233.505 C 148.978 233.865 147.998 234.355 147.118 234.975 L 146.438 239.855 L 141.518 239.855 L 141.518 231.845 C 143.092 230.572 144.925 229.605 147.018 228.945 C 149.105 228.292 151.422 227.965 153.968 227.965 C 158.215 227.965 161.545 228.978 163.958 231.005 C 166.372 233.032 167.578 235.928 167.578 239.695 L 167.578 256.535 C 167.578 256.988 167.582 257.432 167.588 257.865 C 167.602 258.298 167.628 258.728 167.668 259.155 L 171.068 259.515 L 171.068 263.585 L 161.918 263.585 C 161.725 262.638 161.575 261.788 161.468 261.035 C 161.362 260.282 161.285 259.525 161.238 258.765 C 160.012 260.338 158.475 261.648 156.628 262.695 C 154.788 263.742 152.825 264.265 150.738 264.265 Z M 151.668 258.935 C 153.782 258.935 155.712 258.428 157.458 257.415 C 159.205 256.402 160.455 255.182 161.208 253.755 L 161.208 247.425 L 154.738 247.425 C 151.812 247.425 149.615 248.125 148.148 249.525 C 146.682 250.925 145.948 252.488 145.948 254.215 C 145.948 255.742 146.422 256.908 147.368 257.715 C 148.322 258.528 149.755 258.935 151.668 258.935 ZM 192.914 263.585 L 176.004 263.585 L 176.004 259.515 L 181.274 258.605 L 181.274 233.625 L 176.004 232.715 L 176.004 228.615 L 186.964 228.615 L 187.414 233.815 C 188.581 231.962 190.041 230.522 191.794 229.495 C 193.554 228.475 195.554 227.965 197.794 227.965 C 201.567 227.965 204.487 229.068 206.554 231.275 C 208.621 233.488 209.654 236.898 209.654 241.505 L 209.654 258.605 L 214.924 259.515 L 214.924 263.585 L 198.014 263.585 L 198.014 259.515 L 203.284 258.605 L 203.284 241.635 C 203.284 238.555 202.677 236.368 201.464 235.075 C 200.244 233.782 198.384 233.135 195.884 233.135 C 194.051 233.135 192.431 233.578 191.024 234.465 C 189.611 235.345 188.484 236.552 187.644 238.085 L 187.644 258.605 L 192.914 259.515 L 192.914 263.585 ZM 234.734 264.265 C 231.501 264.265 228.714 263.505 226.374 261.985 C 224.041 260.465 222.237 258.365 220.964 255.685 C 219.691 252.998 219.054 249.932 219.054 246.485 L 219.054 245.775 C 219.054 242.328 219.691 239.262 220.964 236.575 C 222.237 233.895 224.041 231.788 226.374 230.255 C 228.714 228.728 231.477 227.965 234.664 227.965 C 237.897 227.965 240.684 228.728 243.024 230.255 C 245.364 231.788 247.167 233.892 248.434 236.565 C 249.707 239.238 250.344 242.308 250.344 245.775 L 250.344 246.485 C 250.344 249.952 249.707 253.028 248.434 255.715 C 247.167 258.395 245.371 260.492 243.044 262.005 C 240.711 263.512 237.941 264.265 234.734 264.265 Z M 234.734 259.285 C 236.761 259.285 238.457 258.732 239.824 257.625 C 241.191 256.512 242.224 254.992 242.924 253.065 C 243.624 251.138 243.974 248.945 243.974 246.485 L 243.974 245.775 C 243.974 243.315 243.624 241.122 242.924 239.195 C 242.224 237.268 241.184 235.748 239.804 234.635 C 238.424 233.528 236.711 232.975 234.664 232.975 C 232.644 232.975 230.944 233.528 229.564 234.635 C 228.184 235.748 227.147 237.268 226.454 239.195 C 225.767 241.122 225.424 243.315 225.424 245.775 L 225.424 246.485 C 225.424 248.945 225.767 251.138 226.454 253.065 C 227.147 254.992 228.187 256.512 229.574 257.625 C 230.967 258.732 232.687 259.285 234.734 259.285 ZM 267.601 264.135 C 265.014 264.135 262.961 263.375 261.441 261.855 C 259.921 260.335 259.161 257.905 259.161 254.565 L 259.161 233.325 L 253.641 233.325 L 253.641 228.615 L 259.161 228.615 L 259.161 220.175 L 265.531 220.175 L 265.531 228.615 L 273.131 228.615 L 273.131 233.325 L 265.531 233.325 L 265.531 254.565 C 265.531 256.245 265.864 257.485 266.531 258.285 C 267.204 259.078 268.101 259.475 269.221 259.475 C 269.974 259.475 270.814 259.405 271.741 259.265 C 272.668 259.125 273.388 259.002 273.901 258.895 L 274.781 263.065 C 273.854 263.345 272.718 263.595 271.371 263.815 C 270.024 264.028 268.768 264.135 267.601 264.135 ZM 294.234 264.265 C 290.441 264.265 287.477 263.048 285.344 260.615 C 283.211 258.175 282.144 254.382 282.144 249.235 L 282.144 233.625 L 278.134 232.715 L 278.134 228.615 L 282.144 228.615 L 288.514 228.615 L 288.514 249.295 C 288.514 253.022 289.064 255.588 290.164 256.995 C 291.257 258.395 292.971 259.095 295.304 259.095 C 297.564 259.095 299.431 258.635 300.904 257.715 C 302.384 256.802 303.501 255.505 304.254 253.825 L 304.254 233.625 L 299.564 232.715 L 299.564 228.615 L 304.254 228.615 L 310.624 228.615 L 310.624 258.605 L 314.624 259.515 L 314.624 263.585 L 304.904 263.585 L 304.484 258.415 C 303.384 260.288 301.964 261.732 300.224 262.745 C 298.491 263.758 296.494 264.265 294.234 264.265 ZM 337.672 264.265 C 335.385 264.265 333.402 263.828 331.722 262.955 C 330.042 262.082 328.642 260.795 327.522 259.095 L 326.942 263.585 L 321.442 263.585 L 321.442 218.165 L 316.172 217.265 L 316.172 213.155 L 327.812 213.155 L 327.812 232.745 C 328.912 231.198 330.275 230.015 331.902 229.195 C 333.528 228.375 335.428 227.965 337.602 227.965 C 340.495 227.965 342.958 228.745 344.992 230.305 C 347.025 231.872 348.588 234.065 349.682 236.885 C 350.768 239.705 351.312 242.992 351.312 246.745 L 351.312 247.425 C 351.312 250.785 350.768 253.725 349.682 256.245 C 348.588 258.765 347.025 260.732 344.992 262.145 C 342.958 263.558 340.518 264.265 337.672 264.265 Z M 336.052 259.095 C 339.052 259.095 341.278 258.028 342.732 255.895 C 344.185 253.762 344.912 250.938 344.912 247.425 L 344.912 246.745 C 344.912 244.052 344.588 241.685 343.942 239.645 C 343.295 237.612 342.315 236.018 341.002 234.865 C 339.688 233.712 338.018 233.135 335.992 233.135 C 334.032 233.135 332.378 233.608 331.032 234.555 C 329.685 235.508 328.612 236.782 327.812 238.375 L 327.812 253.825 C 328.612 255.438 329.695 256.718 331.062 257.665 C 332.428 258.618 334.092 259.095 336.052 259.095 ZM 373.32 264.265 C 370.087 264.265 367.273 263.525 364.88 262.045 C 362.487 260.572 360.64 258.522 359.34 255.895 C 358.033 253.262 357.38 250.222 357.38 246.775 L 357.38 245.355 C 357.38 242.035 358.063 239.065 359.43 236.445 C 360.803 233.832 362.627 231.765 364.9 230.245 C 367.173 228.725 369.657 227.965 372.35 227.965 C 375.497 227.965 378.13 228.612 380.25 229.905 C 382.377 231.198 383.977 233.012 385.05 235.345 C 386.13 237.685 386.67 240.438 386.67 243.605 L 386.67 247.585 L 363.98 247.585 L 363.88 247.745 C 363.92 249.985 364.313 251.972 365.06 253.705 C 365.8 255.445 366.873 256.808 368.28 257.795 C 369.68 258.788 371.36 259.285 373.32 259.285 C 375.473 259.285 377.363 258.978 378.99 258.365 C 380.617 257.752 382.023 256.905 383.21 255.825 L 385.7 259.965 C 384.447 261.172 382.793 262.188 380.74 263.015 C 378.68 263.848 376.207 264.265 373.32 264.265 Z M 364.11 242.445 L 364.17 242.605 L 380.3 242.605 L 380.3 241.765 C 380.3 240.085 380.003 238.582 379.41 237.255 C 378.817 235.928 377.933 234.885 376.76 234.125 C 375.587 233.358 374.117 232.975 372.35 232.975 C 370.923 232.975 369.63 233.388 368.47 234.215 C 367.303 235.048 366.343 236.175 365.59 237.595 C 364.837 239.015 364.343 240.632 364.11 242.445 ZM 405.928 264.265 C 403.581 264.265 401.384 264.028 399.338 263.555 C 397.291 263.082 395.114 262.348 392.808 261.355 L 392.738 253.045 L 397.558 253.045 L 398.748 258.055 C 399.954 258.555 401.124 258.918 402.258 259.145 C 403.391 259.365 404.614 259.475 405.928 259.475 C 408.514 259.475 410.368 258.982 411.488 257.995 C 412.608 257.002 413.168 255.772 413.168 254.305 C 413.168 252.925 412.601 251.758 411.468 250.805 C 410.341 249.845 408.291 249.032 405.318 248.365 C 401.091 247.392 397.981 246.092 395.988 244.465 C 393.994 242.838 392.998 240.668 392.998 237.955 C 392.998 236.055 393.548 234.358 394.648 232.865 C 395.748 231.365 397.278 230.172 399.238 229.285 C 401.198 228.405 403.481 227.965 406.088 227.965 C 408.741 227.965 411.011 228.265 412.898 228.865 C 414.778 229.472 416.421 230.282 417.828 231.295 L 418.148 239.275 L 413.358 239.275 L 412.328 234.625 C 411.574 234.065 410.681 233.632 409.648 233.325 C 408.614 233.025 407.428 232.875 406.088 232.875 C 404.108 232.875 402.498 233.338 401.258 234.265 C 400.018 235.192 399.398 236.355 399.398 237.755 C 399.398 238.575 399.574 239.288 399.928 239.895 C 400.288 240.495 400.974 241.038 401.988 241.525 C 403.001 242.012 404.488 242.492 406.448 242.965 C 411.314 244.105 414.714 245.558 416.648 247.325 C 418.574 249.092 419.538 251.268 419.538 253.855 C 419.538 256.808 418.444 259.282 416.258 261.275 C 414.071 263.268 410.628 264.265 405.928 264.265 Z" transform="matrix(1, 0, 0, 1, 0, 0)" style="fill: rgb(215, 215, 215); white-space: pre;"/>
</svg>