<?xml version="1.0" encoding="utf-8"?>
<svg viewBox="0 0 500 500" width="500" height="500" xmlns="http://www.w3.org/2000/svg">
  <circle style="stroke: rgb(0, 0, 0); fill: rgb(255, 0, 0);" cx="52.659" cy="45.049" r="32.414"/>
  <circle style="stroke: rgb(0, 0, 0); fill: rgb(255, 0, 0);" cx="387.68" cy="48.511" r="31.748"/>
  <circle style="stroke: rgb(0, 0, 0); fill: rgb(255, 0, 0);" cx="465.592" cy="134.215" r="6.979"/>
  <circle style="stroke: rgb(0, 0, 0); fill: rgb(255, 0, 0);" cx="173.855" cy="57.168" r="14.894"/>
  <circle style="stroke: rgb(0, 0, 0); fill: rgb(255, 0, 0);" cx="393.74" cy="342.845" r="50.21"/>
  <circle style="stroke: rgb(0, 0, 0); fill: rgb(255, 0, 0);" cx="125.377" cy="401.712" r="65.815"/>
  <circle style="stroke: rgb(0, 0, 0); fill: rgb(255, 0, 0);" cx="269.947" cy="416.429" r="48.548"/>
  <circle style="stroke: rgb(0, 0, 0); fill: rgb(255, 0, 0);" cx="67.376" cy="155.857" r="48.548"/>
  <circle style="stroke: rgb(0, 0, 0); fill: rgb(255, 0, 0);" cx="388.546" cy="155.857" r="45.71"/>
  <circle style="stroke: rgb(0, 0, 0); fill: rgb(255, 0, 0);" cx="237.051" cy="225.112" r="148.908"/>
  <path d="M 125.762 250.659 L 105.942 250.659 L 105.942 245.889 L 112.122 244.819 L 112.122 201.359 L 105.942 200.299 L 105.942 195.489 L 112.122 195.489 L 131.292 195.489 C 135.232 195.489 138.592 196.179 141.372 197.559 C 144.145 198.932 146.265 200.856 147.732 203.329 C 149.199 205.809 149.932 208.702 149.932 212.009 C 149.932 215.342 149.199 218.249 147.732 220.729 C 146.265 223.202 144.145 225.122 141.372 226.489 C 138.592 227.849 135.232 228.529 131.292 228.529 L 119.582 228.529 L 119.582 244.819 L 125.762 245.889 L 125.762 250.659 Z M 119.582 201.359 L 119.582 222.699 L 131.292 222.699 C 135.032 222.699 137.829 221.692 139.682 219.679 C 141.542 217.672 142.472 215.142 142.472 212.089 C 142.472 209.029 141.542 206.476 139.682 204.429 C 137.829 202.382 135.032 201.359 131.292 201.359 L 119.582 201.359 ZM 174.256 250.659 L 154.436 250.659 L 154.436 245.889 L 160.616 244.819 L 160.616 197.419 L 154.436 196.359 L 154.436 191.549 L 168.086 191.549 L 168.086 244.819 L 174.256 245.889 L 174.256 250.659 ZM 192.829 251.459 C 188.555 251.459 185.309 250.416 183.089 248.329 C 180.862 246.242 179.749 243.306 179.749 239.519 C 179.749 236.919 180.462 234.652 181.889 232.719 C 183.315 230.786 185.382 229.282 188.089 228.209 C 190.789 227.136 194.022 226.599 197.789 226.599 L 205.099 226.599 L 205.099 222.579 C 205.099 220.106 204.349 218.186 202.849 216.819 C 201.342 215.459 199.225 214.779 196.499 214.779 C 194.779 214.779 193.289 214.986 192.029 215.399 C 190.769 215.819 189.619 216.396 188.579 217.129 L 187.789 222.849 L 182.029 222.849 L 182.029 213.449 C 183.869 211.962 186.015 210.832 188.469 210.059 C 190.915 209.286 193.629 208.899 196.609 208.899 C 201.589 208.899 205.492 210.089 208.319 212.469 C 211.152 214.842 212.569 218.239 212.569 222.659 L 212.569 242.399 C 212.569 242.932 212.575 243.449 212.589 243.949 C 212.595 244.456 212.625 244.962 212.679 245.469 L 216.659 245.889 L 216.659 250.659 L 205.939 250.659 C 205.705 249.546 205.529 248.549 205.409 247.669 C 205.282 246.782 205.192 245.896 205.139 245.009 C 203.699 246.856 201.899 248.392 199.739 249.619 C 197.579 250.846 195.275 251.459 192.829 251.459 Z M 193.919 245.199 C 196.399 245.199 198.662 244.606 200.709 243.419 C 202.755 242.232 204.219 240.806 205.099 239.139 L 205.099 231.709 L 197.519 231.709 C 194.085 231.709 191.509 232.532 189.789 234.179 C 188.075 235.819 187.219 237.649 187.219 239.669 C 187.219 241.462 187.775 242.832 188.889 243.779 C 189.995 244.726 191.672 245.199 193.919 245.199 ZM 239.051 251.459 C 236.298 251.459 233.721 251.179 231.321 250.619 C 228.921 250.066 226.371 249.209 223.671 248.049 L 223.591 238.309 L 229.241 238.309 L 230.641 244.179 C 232.054 244.759 233.424 245.182 234.751 245.449 C 236.078 245.716 237.511 245.849 239.051 245.849 C 242.084 245.849 244.258 245.266 245.571 244.099 C 246.884 242.939 247.541 241.502 247.541 239.789 C 247.541 238.169 246.878 236.796 245.551 235.669 C 244.224 234.549 241.818 233.596 238.331 232.809 C 233.378 231.676 229.734 230.156 227.401 228.249 C 225.061 226.342 223.891 223.796 223.891 220.609 C 223.891 218.389 224.538 216.399 225.831 214.639 C 227.118 212.886 228.911 211.492 231.211 210.459 C 233.504 209.419 236.181 208.899 239.241 208.899 C 242.348 208.899 245.008 209.256 247.221 209.969 C 249.428 210.676 251.351 211.622 252.991 212.809 L 253.371 222.169 L 247.761 222.169 L 246.551 216.709 C 245.671 216.049 244.624 215.542 243.411 215.189 C 242.198 214.836 240.808 214.659 239.241 214.659 C 236.914 214.659 235.024 215.202 233.571 216.289 C 232.124 217.376 231.401 218.742 231.401 220.389 C 231.401 221.349 231.608 222.182 232.021 222.889 C 232.441 223.596 233.244 224.232 234.431 224.799 C 235.618 225.366 237.361 225.929 239.661 226.489 C 245.368 227.822 249.351 229.526 251.611 231.599 C 253.871 233.672 255.001 236.222 255.001 239.249 C 255.001 242.716 253.721 245.616 251.161 247.949 C 248.594 250.289 244.558 251.459 239.051 251.459 ZM 280.995 250.659 L 261.175 250.659 L 261.175 245.889 L 267.355 244.819 L 267.355 215.539 L 261.175 214.469 L 261.175 209.659 L 274.065 209.659 L 274.555 214.999 C 275.868 213.059 277.562 211.559 279.635 210.499 C 281.702 209.432 284.102 208.899 286.835 208.899 C 289.562 208.899 291.902 209.532 293.855 210.799 C 295.815 212.059 297.288 213.952 298.275 216.479 C 299.562 214.159 301.265 212.316 303.385 210.949 C 305.512 209.582 307.988 208.899 310.815 208.899 C 315.008 208.899 318.318 210.336 320.745 213.209 C 323.172 216.076 324.385 220.386 324.385 226.139 L 324.385 244.819 L 330.555 245.889 L 330.555 250.659 L 310.705 250.659 L 310.705 245.889 L 316.875 244.819 L 316.875 226.069 C 316.875 222.029 316.182 219.169 314.795 217.489 C 313.408 215.809 311.348 214.969 308.615 214.969 C 306.015 214.969 303.925 215.882 302.345 217.709 C 300.765 219.542 299.848 221.849 299.595 224.629 L 299.595 244.819 L 305.775 245.889 L 305.775 250.659 L 285.955 250.659 L 285.955 245.889 L 292.135 244.819 L 292.135 226.069 C 292.135 222.229 291.422 219.419 289.995 217.639 C 288.568 215.859 286.502 214.969 283.795 214.969 C 281.522 214.969 279.655 215.436 278.195 216.369 C 276.728 217.302 275.602 218.616 274.815 220.309 L 274.815 244.819 L 280.995 245.889 L 280.995 250.659 ZM 349.355 251.459 C 345.082 251.459 341.835 250.416 339.615 248.329 C 337.388 246.242 336.275 243.306 336.275 239.519 C 336.275 236.919 336.988 234.652 338.415 232.719 C 339.842 230.786 341.908 229.282 344.615 228.209 C 347.315 227.136 350.548 226.599 354.315 226.599 L 361.625 226.599 L 361.625 222.579 C 361.625 220.106 360.875 218.186 359.375 216.819 C 357.868 215.459 355.752 214.779 353.025 214.779 C 351.305 214.779 349.815 214.986 348.555 215.399 C 347.295 215.819 346.145 216.396 345.105 217.129 L 344.315 222.849 L 338.555 222.849 L 338.555 213.449 C 340.395 211.962 342.542 210.832 344.995 210.059 C 347.442 209.286 350.155 208.899 353.135 208.899 C 358.115 208.899 362.018 210.089 364.845 212.469 C 367.678 214.842 369.095 218.239 369.095 222.659 L 369.095 242.399 C 369.095 242.932 369.102 243.449 369.115 243.949 C 369.122 244.456 369.152 244.962 369.205 245.469 L 373.185 245.889 L 373.185 250.659 L 362.465 250.659 C 362.232 249.546 362.055 248.549 361.935 247.669 C 361.808 246.782 361.718 245.896 361.665 245.009 C 360.225 246.856 358.425 248.392 356.265 249.619 C 354.105 250.846 351.802 251.459 349.355 251.459 Z M 350.445 245.199 C 352.925 245.199 355.188 244.606 357.235 243.419 C 359.282 242.232 360.745 240.806 361.625 239.139 L 361.625 231.709 L 354.045 231.709 C 350.612 231.709 348.035 232.532 346.315 234.179 C 344.602 235.819 343.745 237.649 343.745 239.669 C 343.745 241.462 344.302 242.832 345.415 243.779 C 346.522 244.726 348.198 245.199 350.445 245.199 Z" transform="matrix(1, 0, 0, 1, 0, 0)" style="white-space: pre;"/>
</svg>