<?xml version="1.0" encoding="utf-8"?>
<svg viewBox="0 0 500 500" width="500" height="500" xmlns="http://www.w3.org/2000/svg">
  <circle style="stroke: rgb(0, 0, 0); fill: rgb(255, 0, 0);" cx="105.223" cy="113.935" r="32.414"/>
  <circle style="stroke: rgb(0, 0, 0); fill: rgb(255, 0, 0);" cx="349.164" cy="55.369" r="31.748"/>
  <circle style="stroke: rgb(0, 0, 0); fill: rgb(255, 0, 0);" cx="130.83" cy="394.437" r="59.534"/>
  <circle style="stroke: rgb(0, 0, 0); fill: rgb(255, 0, 0);" cx="273.831" cy="417.006" r="48.548"/>
  <circle style="stroke: rgb(0, 0, 0); fill: rgb(255, 0, 0);" cx="78.326" cy="260.077" r="48.548"/>
  <circle style="stroke: rgb(0, 0, 0); fill: rgb(255, 0, 0);" cx="169.055" cy="174.33" r="48.548"/>
  <circle style="stroke: rgb(0, 0, 0); fill: rgb(255, 0, 0);" cx="196.536" cy="298.387" r="48.548" transform="matrix(1.088952, 0, 0, 1.202165, -13.163885, -70.137932)"/>
  <circle style="stroke: rgb(0, 0, 0); fill: rgb(255, 0, 0);" cx="358.281" cy="270.121" r="48.548" transform="matrix(1.299203, 0, 0, 1.266857, -130.361557, -49.706234)"/>
  <circle style="stroke: rgb(0, 0, 0); fill: rgb(255, 0, 0);" cx="305.675" cy="149.989" r="48.548" transform="matrix(1.218338, 0, 0, 1.226424, -77.34021, -22.968702)"/>
  <circle style="stroke: rgb(0, 0, 0); fill: rgb(255, 0, 0);" cx="305.675" cy="149.989" r="48.548" transform="matrix(0.878702, 0, 0, 0.95148, 143.861496, 33.188301)"/>
  <circle style="stroke: rgb(0, 0, 0); fill: rgb(255, 0, 0);" cx="220.091" cy="76.183" r="32.414"/>
  <circle style="stroke: rgb(0, 0, 0); fill: rgb(255, 0, 0);" cx="380.266" cy="390.253" r="32.414"/>
  <circle style="stroke: rgb(0, 0, 0); fill: rgb(255, 0, 0);" cx="440.725" cy="278.758" r="32.414"/>
</svg>