<?xml version="1.0" encoding="utf-8"?>
<svg viewBox="0 0 500 500" width="500" height="500" xmlns="http://www.w3.org/2000/svg">
  <defs>
    <radialGradient gradientUnits="userSpaceOnUse" cx="267.354" cy="234.037" r="103.929" id="gradient-0" gradientTransform="matrix(0.74589, -0.055541, 0.077167, 1.036359, 43.32885, 14.090073)">
      <stop offset="0" style="stop-color: rgba(70, 41, 158, 1)"/>
      <stop offset="1" style="stop-color: rgba(34, 20, 77, 1)"/>
    </radialGradient>
    <linearGradient gradientUnits="userSpaceOnUse" x1="252.806" y1="71.092" x2="252.806" y2="89.81" id="gradient-1" gradientTransform="matrix(-0.004446, 0.801382, -5.269228, -0.011447, 674.011719, -117.780056)">
      <stop offset="0" style="stop-color: rgb(165, 68, 210);"/>
      <stop offset="1" style="stop-color: rgb(63, 31, 83);"/>
    </linearGradient>
    <linearGradient gradientUnits="userSpaceOnUse" x1="252.806" y1="71.092" x2="252.806" y2="89.81" id="gradient-2" gradientTransform="matrix(-0.004446, 0.801382, -5.269228, -0.011447, 674.012146, -142.779865)">
      <stop offset="0" style="stop-color: rgb(165, 68, 210);"/>
      <stop offset="1" style="stop-color: rgb(63, 31, 83);"/>
    </linearGradient>
    <linearGradient gradientUnits="userSpaceOnUse" x1="252.806" y1="71.092" x2="252.806" y2="89.81" id="gradient-3" gradientTransform="matrix(-0.004446, 0.801382, -5.269228, -0.011447, 674.011841, -167.780159)">
      <stop offset="0" style="stop-color: rgb(165, 68, 210);"/>
      <stop offset="1" style="stop-color: rgb(63, 31, 83);"/>
    </linearGradient>
    <linearGradient gradientUnits="userSpaceOnUse" x1="252.806" y1="71.092" x2="252.806" y2="89.81" id="gradient-4" gradientTransform="matrix(-0.004446, 0.801382, -5.269228, -0.011447, 674.011841, -192.77993)">
      <stop offset="0" style="stop-color: rgb(165, 68, 210);"/>
      <stop offset="1" style="stop-color: rgb(63, 31, 83);"/>
    </linearGradient>
    <linearGradient gradientUnits="userSpaceOnUse" x1="252.806" y1="71.092" x2="252.806" y2="89.81" id="gradient-5" gradientTransform="matrix(-0.004446, 0.801382, -5.269228, -0.011447, 674.011414, -92.779984)">
      <stop offset="0" style="stop-color: rgb(165, 68, 210);"/>
      <stop offset="1" style="stop-color: rgb(63, 31, 83);"/>
    </linearGradient>
    <linearGradient gradientUnits="userSpaceOnUse" x1="252.806" y1="71.092" x2="252.806" y2="89.81" id="gradient-6" gradientTransform="matrix(-0.004446, 0.801382, -5.269228, -0.011447, 674.011414, -67.779907)">
      <stop offset="0" style="stop-color: rgb(165, 68, 210);"/>
      <stop offset="1" style="stop-color: rgb(63, 31, 83);"/>
    </linearGradient>
    <linearGradient gradientUnits="userSpaceOnUse" x1="252.806" y1="71.092" x2="252.806" y2="89.81" id="gradient-7" gradientTransform="matrix(-0.004446, 0.801382, -5.269228, -0.011447, 674.010986, -42.7803)">
      <stop offset="0" style="stop-color: rgb(165, 68, 210);"/>
      <stop offset="1" style="stop-color: rgb(63, 31, 83);"/>
    </linearGradient>
  </defs>
  <g transform="matrix(1, 0, 0, 1, 1.709145, 0)">
    <rect y="-130" width="125" height="125" style="fill: rgb(216, 216, 216);"/>
    <rect y="-130" width="125" height="125" style="fill: rgb(216, 216, 216);" x="375"/>
    <rect width="125" height="125" style="fill: rgb(216, 216, 216);" x="505"/>
    <rect width="125" height="125" style="fill: rgb(216, 216, 216);" x="-130"/>
    <rect width="125" height="125" style="fill: rgb(216, 216, 216);" x="-130" y="375"/>
    <rect width="125" height="125" style="fill: rgb(216, 216, 216);" y="505"/>
    <rect y="505" width="125" height="125" style="fill: rgb(216, 216, 216);" x="375"/>
    <rect width="125" height="125" style="fill: rgb(216, 216, 216);" x="505" y="375"/>
  </g>
  <rect x="207.117" y="1.656" width="10.145" height="112.604" style="fill: rgb(104, 104, 104);"/>
  <rect x="284.402" y="0.394" width="10.145" height="112.604" style="fill: rgb(104, 104, 104);"/>
  <rect x="108.883" y="29.733" width="22.76" height="112.604" style="fill: rgb(104, 104, 104);" transform="matrix(0.707107, -0.707107, 0.707107, 0.707107, -66.340752, 104.847252)"/>
  <rect x="108.883" y="29.733" width="22.76" height="112.604" style="fill: rgb(104, 104, 104);" transform="matrix(-0.707107, -0.707107, 0.707107, -0.707107, 442.147675, 230.112488)"/>
  <rect x="108.883" y="29.733" width="22.76" height="112.604" style="fill: rgb(104, 104, 104);" transform="matrix(0.707107, -0.707107, 0.707107, 0.707107, 270.273132, 436.668671)"/>
  <rect x="108.883" y="29.733" width="22.76" height="112.604" style="fill: rgb(104, 104, 104);" transform="matrix(0.707107, 0.707107, -0.707107, 0.707107, 49.940903, 279.169159)"/>
  <rect x="100" y="100" width="300" height="300" style="stroke: rgb(0, 0, 0); fill: rgb(119, 83, 157);"/>
  <circle style="fill: url(#gradient-0);" cx="250" cy="250" r="75"/>
  <rect x="439.404" y="438.416" width="59.503" height="60.796" style="stroke: rgb(0, 0, 0); fill: rgb(119, 83, 157);"/>
  <rect x="0.069" y="438.37" width="59.503" height="60.796" style="stroke: rgb(0, 0, 0); fill: rgb(119, 83, 157);"/>
  <rect x="0.069" y="0.533" width="59.503" height="60.796" style="stroke: rgb(0, 0, 0); fill: rgb(119, 83, 157);"/>
  <rect x="439.704" y="1.132" width="59.503" height="60.796" style="stroke: rgb(0, 0, 0); fill: rgb(119, 83, 157);"/>
  <rect x="200" y="75" width="100" height="15" style="stroke: rgb(0, 0, 0); fill: url(#gradient-1);"/>
  <rect x="200" y="50" width="100" height="15" style="stroke: rgb(0, 0, 0); fill: url(#gradient-2);"/>
  <rect x="200" y="25" width="100" height="15" style="stroke: rgb(0, 0, 0); fill: url(#gradient-3);"/>
  <rect x="200" width="100" height="15" style="stroke: rgb(0, 0, 0); fill: url(#gradient-4);"/>
  <rect x="200" y="100" width="100" height="15" style="stroke: rgb(0, 0, 0); fill: url(#gradient-5);"/>
  <rect x="200" y="125" width="100" height="15" style="stroke: rgb(0, 0, 0); fill: url(#gradient-6);"/>
  <rect x="122.696" y="328.817" width="70.863" height="48.748" style="fill: rgb(35, 35, 35);"/>
  <rect x="121.541" y="121.039" width="65.812" height="21.937" style="fill: rgb(35, 35, 35);"/>
  <rect x="343.741" y="119.219" width="42.615" height="263.248" style="fill: rgb(35, 35, 35);"/>
  <rect x="200" y="150" width="100" height="15" style="stroke: rgb(0, 0, 0); fill: url(#gradient-7);"/>
  <rect x="121.5" y="152.622" width="65.812" height="21.937" style="fill: rgb(35, 35, 35);"/>
</svg>