<?xml version="1.0" encoding="utf-8"?>
<svg viewBox="0 0 200 200" width="200" height="200" xmlns="http://www.w3.org/2000/svg" xmlns:bx="https://boxy-svg.com">
  <rect x="50.848" y="168.583" width="102.24" height="30.472" style="fill: rgb(216, 216, 216);"/>
  <rect x="163.513" y="36.673" width="34.882" height="99.433" style="fill: rgb(216, 216, 216);"/>
  <rect x="1.934" y="38.678" width="44.504" height="103.443" style="fill: rgb(216, 216, 216);"/>
  <rect x="50.648" y="1.791" width="102.24" height="30.472" style="fill: rgb(216, 216, 216);"/>
  <rect x="9.55" y="12.215" width="182.027" height="176.815" style="fill: rgb(216, 216, 216);"/>
  <path d="M 222.368 184.319 L 218.998 184.319 L 218.998 183.509 L 220.048 183.329 L 220.048 178.349 L 218.998 178.159 L 218.998 177.349 L 221.188 177.349 L 221.298 178.239 L 221.308 178.359 C 221.508 177.999 221.751 177.719 222.038 177.519 C 222.331 177.319 222.665 177.219 223.038 177.219 C 223.171 177.219 223.308 177.229 223.448 177.249 C 223.588 177.276 223.688 177.299 223.748 177.319 L 223.578 178.499 L 222.698 178.449 C 222.358 178.429 222.075 178.506 221.848 178.679 C 221.621 178.852 221.445 179.086 221.318 179.379 L 221.318 183.329 L 222.368 183.509 L 222.368 184.319 ZM 227.562 184.459 C 226.922 184.459 226.362 184.309 225.882 184.009 C 225.409 183.716 225.042 183.309 224.782 182.789 C 224.522 182.262 224.392 181.656 224.392 180.969 L 224.392 180.679 C 224.392 180.019 224.529 179.429 224.802 178.909 C 225.075 178.389 225.439 177.976 225.892 177.669 C 226.345 177.369 226.839 177.219 227.372 177.219 C 227.999 177.219 228.525 177.346 228.952 177.599 C 229.372 177.859 229.689 178.222 229.902 178.689 C 230.122 179.156 230.232 179.706 230.232 180.339 L 230.232 181.129 L 225.702 181.129 L 225.682 181.159 C 225.695 181.606 225.775 182.002 225.922 182.349 C 226.069 182.696 226.282 182.969 226.562 183.169 C 226.842 183.362 227.175 183.459 227.562 183.459 C 227.995 183.459 228.375 183.399 228.702 183.279 C 229.022 183.159 229.302 182.989 229.542 182.769 L 230.032 183.599 C 229.785 183.839 229.455 184.042 229.042 184.209 C 228.635 184.376 228.142 184.459 227.562 184.459 Z M 225.732 180.099 L 225.742 180.139 L 228.962 180.139 L 228.962 179.969 C 228.962 179.636 228.902 179.336 228.782 179.069 C 228.662 178.802 228.485 178.596 228.252 178.449 C 228.019 178.296 227.725 178.219 227.372 178.219 C 227.092 178.219 226.835 178.299 226.602 178.459 C 226.369 178.626 226.175 178.852 226.022 179.139 C 225.875 179.419 225.779 179.739 225.732 180.099 ZM 234.214 184.459 C 233.647 184.459 233.161 184.316 232.754 184.029 C 232.347 183.749 232.034 183.359 231.814 182.859 C 231.601 182.352 231.494 181.766 231.494 181.099 L 231.494 180.959 C 231.494 180.212 231.601 179.559 231.814 178.999 C 232.034 178.432 232.347 177.992 232.754 177.679 C 233.161 177.372 233.651 177.219 234.224 177.219 C 234.637 177.219 235.001 177.296 235.314 177.449 C 235.634 177.596 235.904 177.816 236.124 178.109 L 236.124 175.259 L 235.074 175.079 L 235.074 174.269 L 236.124 174.269 L 237.394 174.269 L 237.394 183.329 L 238.444 183.509 L 238.444 184.319 L 236.294 184.319 L 236.184 183.489 C 235.957 183.809 235.681 184.049 235.354 184.209 C 235.027 184.376 234.647 184.459 234.214 184.459 Z M 234.534 183.419 C 234.914 183.419 235.231 183.336 235.484 183.169 C 235.744 182.996 235.957 182.752 236.124 182.439 L 236.124 179.199 C 235.964 178.906 235.751 178.676 235.484 178.509 C 235.224 178.336 234.911 178.249 234.544 178.249 C 234.144 178.249 233.811 178.362 233.544 178.589 C 233.284 178.822 233.091 179.142 232.964 179.549 C 232.831 179.956 232.764 180.426 232.764 180.959 L 232.764 181.099 C 232.764 181.799 232.907 182.362 233.194 182.789 C 233.487 183.209 233.934 183.419 234.534 183.419 ZM 242.642 184.319 L 239.272 184.319 L 239.272 183.509 L 240.322 183.329 L 240.322 178.349 L 239.272 178.159 L 239.272 177.349 L 241.592 177.349 L 241.592 183.329 L 242.642 183.509 L 242.642 184.319 Z M 241.592 175.629 L 240.262 175.629 L 240.262 174.269 L 241.592 174.269 L 241.592 175.629 ZM 246.874 184.319 L 243.504 184.319 L 243.504 183.509 L 244.554 183.329 L 244.554 178.349 L 243.504 178.159 L 243.504 177.349 L 245.694 177.349 L 245.804 178.239 L 245.814 178.359 C 246.014 177.999 246.257 177.719 246.544 177.519 C 246.837 177.319 247.171 177.219 247.544 177.219 C 247.677 177.219 247.814 177.229 247.954 177.249 C 248.094 177.276 248.194 177.299 248.254 177.319 L 248.084 178.499 L 247.204 178.449 C 246.864 178.429 246.581 178.506 246.354 178.679 C 246.127 178.852 245.951 179.086 245.824 179.379 L 245.824 183.329 L 246.874 183.509 L 246.874 184.319 ZM 252.068 184.459 C 251.428 184.459 250.868 184.309 250.388 184.009 C 249.915 183.716 249.548 183.309 249.288 182.789 C 249.028 182.262 248.898 181.656 248.898 180.969 L 248.898 180.679 C 248.898 180.019 249.035 179.429 249.308 178.909 C 249.581 178.389 249.945 177.976 250.398 177.669 C 250.851 177.369 251.345 177.219 251.878 177.219 C 252.505 177.219 253.031 177.346 253.458 177.599 C 253.878 177.859 254.195 178.222 254.408 178.689 C 254.628 179.156 254.738 179.706 254.738 180.339 L 254.738 181.129 L 250.208 181.129 L 250.188 181.159 C 250.201 181.606 250.281 182.002 250.428 182.349 C 250.575 182.696 250.788 182.969 251.068 183.169 C 251.348 183.362 251.681 183.459 252.068 183.459 C 252.501 183.459 252.881 183.399 253.208 183.279 C 253.528 183.159 253.808 182.989 254.048 182.769 L 254.538 183.599 C 254.291 183.839 253.961 184.042 253.548 184.209 C 253.141 184.376 252.648 184.459 252.068 184.459 Z M 250.238 180.099 L 250.248 180.139 L 253.468 180.139 L 253.468 179.969 C 253.468 179.636 253.408 179.336 253.288 179.069 C 253.168 178.802 252.991 178.596 252.758 178.449 C 252.525 178.296 252.231 178.219 251.878 178.219 C 251.598 178.219 251.341 178.299 251.108 178.459 C 250.875 178.626 250.681 178.852 250.528 179.139 C 250.381 179.419 250.285 179.739 250.238 180.099 ZM 259.13 184.459 C 258.496 184.459 257.946 184.309 257.48 184.009 C 257.013 183.716 256.65 183.309 256.39 182.789 C 256.13 182.262 256 181.656 256 180.969 L 256 180.699 C 256 180.039 256.126 179.446 256.38 178.919 C 256.626 178.392 256.983 177.976 257.45 177.669 C 257.923 177.369 258.483 177.219 259.13 177.219 C 259.69 177.219 260.183 177.309 260.61 177.489 C 261.03 177.676 261.383 177.929 261.67 178.249 L 261.71 179.929 L 260.71 179.929 L 260.5 178.709 C 260.353 178.562 260.17 178.442 259.95 178.349 C 259.73 178.262 259.47 178.219 259.17 178.219 C 258.796 178.219 258.466 178.329 258.18 178.549 C 257.893 178.776 257.67 179.076 257.51 179.449 C 257.35 179.822 257.27 180.239 257.27 180.699 L 257.27 180.969 C 257.27 181.476 257.343 181.916 257.49 182.289 C 257.643 182.662 257.856 182.952 258.13 183.159 C 258.41 183.359 258.74 183.459 259.12 183.459 C 259.553 183.459 259.91 183.342 260.19 183.109 C 260.476 182.869 260.65 182.546 260.71 182.139 L 261.86 182.139 L 261.87 182.169 C 261.85 182.569 261.73 182.946 261.51 183.299 C 261.296 183.646 260.993 183.926 260.6 184.139 C 260.2 184.352 259.71 184.459 259.13 184.459 ZM 265.315 184.429 C 264.802 184.429 264.392 184.279 264.085 183.979 C 263.785 183.672 263.635 183.186 263.635 182.519 L 263.635 178.289 L 262.525 178.289 L 262.525 177.349 L 263.635 177.349 L 263.635 175.659 L 264.905 175.659 L 264.905 177.349 L 266.415 177.349 L 266.415 178.289 L 264.905 178.289 L 264.905 182.519 C 264.905 182.852 264.972 183.099 265.105 183.259 C 265.239 183.419 265.415 183.499 265.635 183.499 C 265.789 183.499 265.955 183.486 266.135 183.459 C 266.322 183.432 266.469 183.409 266.575 183.389 L 266.745 184.219 C 266.559 184.272 266.332 184.322 266.065 184.369 C 265.799 184.409 265.549 184.429 265.315 184.429 ZM 270.58 184.459 C 269.934 184.459 269.377 184.306 268.91 183.999 C 268.444 183.699 268.084 183.279 267.83 182.739 C 267.577 182.206 267.45 181.596 267.45 180.909 L 267.45 180.769 C 267.45 180.082 267.577 179.469 267.83 178.929 C 268.084 178.396 268.444 177.976 268.91 177.669 C 269.377 177.369 269.93 177.219 270.57 177.219 C 271.21 177.219 271.764 177.369 272.23 177.669 C 272.697 177.976 273.057 178.396 273.31 178.929 C 273.564 179.462 273.69 180.076 273.69 180.769 L 273.69 180.909 C 273.69 181.602 273.564 182.216 273.31 182.749 C 273.057 183.282 272.7 183.699 272.24 183.999 C 271.774 184.306 271.22 184.459 270.58 184.459 Z M 270.58 183.459 C 270.98 183.459 271.317 183.349 271.59 183.129 C 271.864 182.909 272.07 182.606 272.21 182.219 C 272.35 181.839 272.42 181.402 272.42 180.909 L 272.42 180.769 C 272.42 180.276 272.35 179.839 272.21 179.459 C 272.07 179.072 271.864 178.769 271.59 178.549 C 271.317 178.329 270.977 178.219 270.57 178.219 C 270.164 178.219 269.824 178.329 269.55 178.549 C 269.27 178.769 269.064 179.072 268.93 179.459 C 268.79 179.839 268.72 180.276 268.72 180.769 L 268.72 180.909 C 268.72 181.402 268.79 181.839 268.93 182.219 C 269.064 182.606 269.27 182.909 269.55 183.129 C 269.83 183.349 270.174 183.459 270.58 183.459 ZM 278.023 184.319 L 274.653 184.319 L 274.653 183.509 L 275.703 183.329 L 275.703 178.349 L 274.653 178.159 L 274.653 177.349 L 276.843 177.349 L 276.953 178.239 L 276.963 178.359 C 277.163 177.999 277.407 177.719 277.693 177.519 C 277.987 177.319 278.32 177.219 278.693 177.219 C 278.827 177.219 278.963 177.229 279.103 177.249 C 279.243 177.276 279.343 177.299 279.403 177.319 L 279.233 178.499 L 278.353 178.449 C 278.013 178.429 277.73 178.506 277.503 178.679 C 277.277 178.852 277.1 179.086 276.973 179.379 L 276.973 183.329 L 278.023 183.509 L 278.023 184.319 Z" transform="matrix(0.9169389605522156, 0, 0, 0.9998890161514282, -128.59275817871094, -59.62407302856445)" style="fill: rgb(51, 51, 51); white-space: pre;"/>
  <path d="M 103.772 42.498 H 108.685 L 108.685 27.498 L 148.685 47.498 L 108.685 67.498 L 108.685 52.498 H 103.772 V 42.498 Z" style="fill: rgb(216, 216, 216);" transform="matrix(0.017854, 0.999841, -0.999841, 0.017854, 149.410172, -57.10577)" bx:shape="arrow 103.772 27.498 44.913 40 10 40 0 1@4eb57e97"/>
  <path d="M 105.777 27.262 H 134.318 L 134.318 12.262 L 174.318 32.262 L 134.318 52.262 L 134.318 37.262 H 105.777 V 27.262 Z" style="fill: rgb(216, 216, 216);" transform="matrix(-0.105294, 0.994441, -0.994441, -0.105294, 148.997803, -69.529694)" bx:shape="arrow 105.777 12.262 68.541 40 10 40 0 1@a4650725"/>
  <path d="M 103.371 99.031 H 149.573 L 149.573 84.031 L 189.573 104.031 L 149.573 124.031 L 149.573 109.031 H 103.371 V 99.031 Z" style="" transform="matrix(0, -1, 1, 0, -0.659335, 207.402237)" bx:shape="arrow 103.371 84.031 86.202 40 10 40 0 1@f031f100"/>
</svg>