<?xml version="1.0" encoding="utf-8"?>
<svg viewBox="0 0 500 500" width="500" height="500" xmlns="http://www.w3.org/2000/svg">
  <defs>
    <radialGradient gradientUnits="userSpaceOnUse" cx="267.354" cy="234.037" r="103.929" id="gradient-0" gradientTransform="matrix(0.74589, -0.055541, 0.077167, 1.036359, -457.089417, -485.909912)">
      <stop offset="0" style="stop-color: rgba(70, 41, 158, 1)"/>
      <stop offset="1" style="stop-color: rgba(34, 20, 77, 1)"/>
    </radialGradient>
    <linearGradient gradientUnits="userSpaceOnUse" x1="252.806" y1="71.092" x2="252.806" y2="89.81" id="gradient-1" gradientTransform="matrix(-0.004446, 0.801382, -5.269228, -0.011447, 173.593445, -617.78009)">
      <stop offset="0" style="stop-color: rgb(165, 68, 210);"/>
      <stop offset="1" style="stop-color: rgb(63, 31, 83);"/>
    </linearGradient>
    <linearGradient gradientUnits="userSpaceOnUse" x1="252.806" y1="71.092" x2="252.806" y2="89.81" id="gradient-2" gradientTransform="matrix(-0.004446, 0.801382, -5.269228, -0.011447, 173.593872, -642.779846)">
      <stop offset="0" style="stop-color: rgb(165, 68, 210);"/>
      <stop offset="1" style="stop-color: rgb(63, 31, 83);"/>
    </linearGradient>
    <linearGradient gradientUnits="userSpaceOnUse" x1="252.806" y1="71.092" x2="252.806" y2="89.81" id="gradient-3" gradientTransform="matrix(-0.004446, 0.801382, -5.269228, -0.011447, 173.593567, -667.780151)">
      <stop offset="0" style="stop-color: rgb(165, 68, 210);"/>
      <stop offset="1" style="stop-color: rgb(63, 31, 83);"/>
    </linearGradient>
    <linearGradient gradientUnits="userSpaceOnUse" x1="252.806" y1="71.092" x2="252.806" y2="89.81" id="gradient-4" gradientTransform="matrix(-0.004446, 0.801382, -5.269228, -0.011447, 173.593567, -692.779907)">
      <stop offset="0" style="stop-color: rgb(165, 68, 210);"/>
      <stop offset="1" style="stop-color: rgb(63, 31, 83);"/>
    </linearGradient>
    <linearGradient gradientUnits="userSpaceOnUse" x1="252.806" y1="71.092" x2="252.806" y2="89.81" id="gradient-5" gradientTransform="matrix(-0.004446, 0.801382, -5.269228, -0.011447, 173.59314, -592.779968)">
      <stop offset="0" style="stop-color: rgb(165, 68, 210);"/>
      <stop offset="1" style="stop-color: rgb(63, 31, 83);"/>
    </linearGradient>
    <linearGradient gradientUnits="userSpaceOnUse" x1="252.806" y1="71.092" x2="252.806" y2="89.81" id="gradient-6" gradientTransform="matrix(-0.004446, 0.801382, -5.269228, -0.011447, 173.59314, -567.779907)">
      <stop offset="0" style="stop-color: rgb(165, 68, 210);"/>
      <stop offset="1" style="stop-color: rgb(63, 31, 83);"/>
    </linearGradient>
    <linearGradient gradientUnits="userSpaceOnUse" x1="252.806" y1="71.092" x2="252.806" y2="89.81" id="gradient-7" gradientTransform="matrix(-0.004446, 0.801382, -5.269228, -0.011447, 173.592712, -542.780273)">
      <stop offset="0" style="stop-color: rgb(165, 68, 210);"/>
      <stop offset="1" style="stop-color: rgb(63, 31, 83);"/>
    </linearGradient>
  </defs>
  <g transform="matrix(0, -1, 1, 0, -0.290863, 498)">
    <rect y="-130" width="125" height="125" style="fill: rgb(216, 216, 216);"/>
    <rect y="-130" width="125" height="125" style="fill: rgb(216, 216, 216);" x="375"/>
    <rect width="125" height="125" style="fill: rgb(216, 216, 216);" x="505"/>
    <rect width="125" height="125" style="fill: rgb(216, 216, 216);" x="-130"/>
    <rect width="125" height="125" style="fill: rgb(216, 216, 216);" x="-130" y="375"/>
    <rect width="125" height="125" style="fill: rgb(216, 216, 216);" y="505"/>
    <rect y="505" width="125" height="125" style="fill: rgb(216, 216, 216);" x="375"/>
    <rect width="125" height="125" style="fill: rgb(216, 216, 216);" x="505" y="375"/>
  </g>
  <rect x="-293.301" y="-498.344" width="10.145" height="112.604" style="fill: rgb(104, 104, 104);" transform="matrix(0, -1, 1, 0, 499.709137, -0.709137)"/>
  <rect x="-216.016" y="-499.606" width="10.145" height="112.604" style="fill: rgb(104, 104, 104);" transform="matrix(0, -1, 1, 0, 499.709137, -0.709137)"/>
  <rect x="108.883" y="29.733" width="22.76" height="112.604" style="fill: rgb(104, 104, 104);" transform="matrix(-0.707107, -0.707107, 0.707107, -0.707107, 104.556366, 566.049927)"/>
  <rect x="108.883" y="29.733" width="22.76" height="112.604" style="fill: rgb(104, 104, 104);" transform="matrix(-0.707107, 0.707107, -0.707107, -0.707107, 229.821625, 57.561462)"/>
  <rect x="108.883" y="29.733" width="22.76" height="112.604" style="fill: rgb(104, 104, 104);" transform="matrix(-0.707107, -0.707107, 0.707107, -0.707107, 436.377808, 229.436005)"/>
  <rect x="108.883" y="29.733" width="22.76" height="112.604" style="fill: rgb(104, 104, 104);" transform="matrix(0.707107, -0.707107, 0.707107, 0.707107, 278.878296, 449.76825)"/>
  <rect x="-400.418" y="-400" width="300" height="300" style="stroke: rgb(0, 0, 0); fill: rgb(119, 83, 157);" transform="matrix(0, -1, 1, 0, 499.709137, -0.709137)"/>
  <circle style="fill: url(#gradient-0);" cx="-250.418" cy="-250" r="75" transform="matrix(0, -1, 1, 0, 499.709137, -0.709137)"/>
  <rect x="-61.014" y="-61.584" width="59.503" height="60.796" style="stroke: rgb(0, 0, 0); fill: rgb(119, 83, 157);" transform="matrix(0, -1, 1, 0, 499.709137, -0.709137)"/>
  <rect x="-500.349" y="-61.63" width="59.503" height="60.796" style="stroke: rgb(0, 0, 0); fill: rgb(119, 83, 157);" transform="matrix(0, -1, 1, 0, 499.709137, -0.709137)"/>
  <rect x="-500.349" y="-499.467" width="59.503" height="60.796" style="stroke: rgb(0, 0, 0); fill: rgb(119, 83, 157);" transform="matrix(0, -1, 1, 0, 499.709137, -0.709137)"/>
  <rect x="-60.714" y="-498.868" width="59.503" height="60.796" style="stroke: rgb(0, 0, 0); fill: rgb(119, 83, 157);" transform="matrix(0, -1, 1, 0, 499.709137, -0.709137)"/>
  <rect x="-300.418" y="-425" width="100" height="15" style="stroke: rgb(0, 0, 0); fill: url(#gradient-1);" transform="matrix(0, -1, 1, 0, 499.709137, -0.709137)"/>
  <rect x="-300.418" y="-450" width="100" height="15" style="stroke: rgb(0, 0, 0); fill: url(#gradient-2);" transform="matrix(0, -1, 1, 0, 499.709137, -0.709137)"/>
  <rect x="-300.418" y="-475" width="100" height="15" style="stroke: rgb(0, 0, 0); fill: url(#gradient-3);" transform="matrix(0, -1, 1, 0, 499.709137, -0.709137)"/>
  <rect x="-300.418" width="100" height="15" style="stroke: rgb(0, 0, 0); fill: url(#gradient-4);" transform="matrix(0, -1, 1, 0, 499.709137, -0.709137)" y="-500"/>
  <rect x="-300.418" y="-400" width="100" height="15" style="stroke: rgb(0, 0, 0); fill: url(#gradient-5);" transform="matrix(0, -1, 1, 0, 499.709137, -0.709137)"/>
  <rect x="-300.418" y="-375" width="100" height="15" style="stroke: rgb(0, 0, 0); fill: url(#gradient-6);" transform="matrix(0, -1, 1, 0, 499.709137, -0.709137)"/>
  <rect x="-377.722" y="-171.183" width="70.863" height="48.748" style="fill: rgb(35, 35, 35);" transform="matrix(0, -1, 1, 0, 499.709137, -0.709137)"/>
  <rect x="-378.877" y="-378.961" width="65.812" height="21.937" style="fill: rgb(35, 35, 35);" transform="matrix(0, -1, 1, 0, 499.709137, -0.709137)"/>
  <rect x="-156.677" y="-380.781" width="42.615" height="263.248" style="fill: rgb(35, 35, 35);" transform="matrix(0, -1, 1, 0, 499.709137, -0.709137)"/>
  <rect x="-300.418" y="-350" width="100" height="15" style="stroke: rgb(0, 0, 0); fill: url(#gradient-7);" transform="matrix(0, -1, 1, 0, 499.709137, -0.709137)"/>
  <rect x="-378.918" y="-347.378" width="65.812" height="21.937" style="fill: rgb(35, 35, 35);" transform="matrix(0, -1, 1, 0, 499.709137, -0.709137)"/>
</svg>