<?xml version="1.0" encoding="utf-8"?>
<svg viewBox="161.223 115.997 202.261 184.254" width="202.261" height="184.254" xmlns="http://www.w3.org/2000/svg">
  <rect x="160.804" y="115.997" width="202.261" height="184.673" style="fill: rgb(129, 89, 44);"/>
  <path d="M 199.59 231.14 L 181.71 231.14 L 181.71 226.83 L 187.28 225.88 L 187.28 199.46 L 181.71 198.5 L 181.71 194.16 L 193.3 194.16 L 193.88 198.87 L 193.95 199.52 C 194.997 197.633 196.29 196.153 197.83 195.08 C 199.363 194.007 201.123 193.47 203.11 193.47 C 203.817 193.47 204.54 193.533 205.28 193.66 C 206.02 193.787 206.55 193.907 206.87 194.02 L 205.98 200.28 L 201.3 200 C 199.52 199.887 198.027 200.293 196.82 201.22 C 195.613 202.14 194.68 203.373 194.02 204.92 L 194.02 225.88 L 199.59 226.83 L 199.59 231.14 ZM 226.993 231.86 C 223.58 231.86 220.637 231.057 218.163 229.45 C 215.69 227.843 213.78 225.62 212.433 222.78 C 211.093 219.947 210.423 216.707 210.423 213.06 L 210.423 212.31 C 210.423 208.663 211.093 205.42 212.433 202.58 C 213.78 199.747 215.69 197.52 218.163 195.9 C 220.637 194.28 223.557 193.47 226.923 193.47 C 230.343 193.47 233.29 194.28 235.763 195.9 C 238.237 197.52 240.147 199.743 241.493 202.57 C 242.833 205.39 243.503 208.637 243.503 212.31 L 243.503 213.06 C 243.503 216.727 242.833 219.98 241.493 222.82 C 240.147 225.653 238.243 227.87 235.783 229.47 C 233.323 231.063 230.393 231.86 226.993 231.86 Z M 226.993 226.59 C 229.14 226.59 230.937 226.003 232.383 224.83 C 233.83 223.657 234.923 222.05 235.663 220.01 C 236.403 217.977 236.773 215.66 236.773 213.06 L 236.773 212.31 C 236.773 209.71 236.403 207.39 235.663 205.35 C 234.923 203.31 233.823 201.703 232.363 200.53 C 230.903 199.357 229.09 198.77 226.923 198.77 C 224.783 198.77 222.983 199.357 221.523 200.53 C 220.07 201.703 218.977 203.31 218.243 205.35 C 217.517 207.39 217.153 209.71 217.153 212.31 L 217.153 213.06 C 217.153 215.66 217.517 217.977 218.243 220.01 C 218.977 222.05 220.077 223.657 221.543 224.83 C 223.017 226.003 224.833 226.59 226.993 226.59 ZM 266.604 231.86 C 263.257 231.86 260.341 231.08 257.854 229.52 C 255.374 227.96 253.451 225.79 252.084 223.01 C 250.717 220.23 250.034 217.017 250.034 213.37 L 250.034 211.93 C 250.034 208.423 250.694 205.28 252.014 202.5 C 253.334 199.72 255.237 197.52 257.724 195.9 C 260.204 194.28 263.164 193.47 266.604 193.47 C 269.591 193.47 272.207 193.96 274.454 194.94 C 276.694 195.92 278.577 197.267 280.104 198.98 L 280.284 207.86 L 275.014 207.86 L 273.854 201.4 C 273.081 200.607 272.111 199.97 270.944 199.49 C 269.784 199.01 268.417 198.77 266.844 198.77 C 264.837 198.77 263.077 199.363 261.564 200.55 C 260.051 201.737 258.871 203.32 258.024 205.3 C 257.184 207.28 256.764 209.49 256.764 211.93 L 256.764 213.37 C 256.764 216.057 257.157 218.39 257.944 220.37 C 258.731 222.357 259.857 223.89 261.324 224.97 C 262.797 226.05 264.547 226.59 266.574 226.59 C 268.854 226.59 270.744 225.963 272.244 224.71 C 273.751 223.457 274.674 221.737 275.014 219.55 L 281.064 219.55 L 281.134 219.76 C 281.021 221.88 280.394 223.863 279.254 225.71 C 278.114 227.55 276.491 229.037 274.384 230.17 C 272.277 231.297 269.684 231.86 266.604 231.86 ZM 303.891 231.14 L 286.021 231.14 L 286.021 226.83 L 291.591 225.88 L 291.591 183.12 L 286.021 182.16 L 286.021 177.82 L 298.321 177.82 L 298.321 225.88 L 303.891 226.83 L 303.891 231.14 Z M 326.491 231.14 L 309.771 231.14 L 309.771 226.83 L 313.531 226.39 L 313.431 226.25 L 302.731 212.44 L 306.221 207.08 L 321.151 226.01 L 326.491 226.83 L 326.491 231.14 Z M 318.801 199.39 L 297.841 220.44 L 295.351 215.14 L 311.411 199.15 L 311.581 198.94 L 307.621 198.5 L 307.621 194.16 L 323.551 194.16 L 323.551 198.5 L 318.801 199.39 Z" transform="matrix(1, 0, 0, 1, 0, 0)" style="fill: rgb(51, 51, 51); white-space: pre;"/>
</svg>