<?xml version="1.0" encoding="utf-8"?>
<svg viewBox="0 0 500 500" width="500" height="500" xmlns="http://www.w3.org/2000/svg">
  <rect width="542.089" height="100" style="fill: rgb(57, 57, 57); stroke-width: 5px; stroke: rgb(38, 38, 38);" y="400" transform="matrix(0.624628, 0.780922, -0.780922, 0.624628, 433.319031, -242.228455)"/>
  <rect width="542.089" height="100" style="fill: rgb(57, 57, 57); stroke-width: 5px; stroke: rgb(38, 38, 38);" y="400" transform="matrix(0.625176, -0.780484, 0.780484, 0.625176, -269.293579, 180.621353)"/>
  <rect width="500" height="88.778" style="fill: rgb(57, 57, 57); stroke-width: 5px; stroke: rgb(38, 38, 38);" y="-38.778"/>
  <rect width="500" height="121.901" style="fill: rgb(57, 57, 57); stroke-width: 5px; stroke: rgb(38, 38, 38);" y="450"/>
  <rect width="100" height="603.408" style="paint-order: fill; stroke-dashoffset: -32px; fill: rgb(57, 57, 57); stroke-width: 5px; stroke: rgb(38, 38, 38);" x="400" y="-32.315"/>
  <rect width="100" height="621.99" style="paint-order: fill; stroke-dashoffset: -32px; fill: rgb(57, 57, 57); stroke-width: 5px; stroke: rgb(38, 38, 38);" y="-60.591"/>
  <circle style="fill: rgb(216, 216, 216); stroke: rgb(0, 0, 0);" cx="450" cy="500" r="20"/>
  <circle style="fill: rgb(216, 216, 216); stroke: rgb(0, 0, 0);" cx="50" cy="0" r="20"/>
  <circle style="fill: rgb(216, 216, 216); stroke: rgb(0, 0, 0);" cx="211.345" cy="256.263" r="20" transform="matrix(1, 0, 0, 1, 38.654907, -6.263306)"/>
  <circle style="fill: rgb(216, 216, 216); stroke: rgb(0, 0, 0);" cx="58.881" cy="35.513" r="20" transform="matrix(1, 0, 0, 1, 391.118958, -35.513191)"/>
  <circle style="fill: rgb(216, 216, 216); stroke: rgb(0, 0, 0);" cx="50" cy="500" r="20"/>
</svg>