<?xml version="1.0" encoding="utf-8"?>
<svg viewBox="161.223 115.997 202.261 184.254" width="202.261" height="184.254" xmlns="http://www.w3.org/2000/svg">
  <rect x="163.61" y="118.003" width="27.871" height="180.663" style="fill: rgb(43, 43, 43);"/>
  <path d="M 229.456 281.487 C 228.989 281.487 228.553 281.437 228.146 281.337 C 227.733 281.244 227.296 281.1 226.836 280.907 L 226.826 279.247 L 227.786 279.247 L 228.026 280.247 C 228.266 280.347 228.499 280.417 228.726 280.457 C 228.953 280.504 229.196 280.527 229.456 280.527 C 229.969 280.527 230.339 280.427 230.566 280.227 C 230.786 280.034 230.896 279.79 230.896 279.497 C 230.896 279.224 230.786 278.99 230.566 278.797 C 230.339 278.604 229.929 278.44 229.336 278.307 C 228.489 278.114 227.869 277.857 227.476 277.537 C 227.076 277.21 226.876 276.777 226.876 276.237 C 226.876 275.857 226.986 275.517 227.206 275.217 C 227.426 274.924 227.733 274.687 228.126 274.507 C 228.513 274.334 228.966 274.247 229.486 274.247 C 230.019 274.247 230.473 274.307 230.846 274.427 C 231.219 274.547 231.546 274.707 231.826 274.907 L 231.896 276.497 L 230.936 276.497 L 230.736 275.577 C 230.583 275.464 230.403 275.377 230.196 275.317 C 229.989 275.257 229.753 275.227 229.486 275.227 C 229.093 275.227 228.773 275.317 228.526 275.497 C 228.279 275.684 228.156 275.917 228.156 276.197 C 228.156 276.364 228.189 276.507 228.256 276.627 C 228.329 276.747 228.466 276.854 228.666 276.947 C 228.873 277.047 229.169 277.144 229.556 277.237 C 230.529 277.464 231.209 277.754 231.596 278.107 C 231.976 278.46 232.166 278.894 232.166 279.407 C 232.166 279.994 231.949 280.487 231.516 280.887 C 231.083 281.287 230.396 281.487 229.456 281.487 ZM 236.368 281.487 C 235.735 281.487 235.185 281.337 234.718 281.037 C 234.252 280.744 233.888 280.337 233.628 279.817 C 233.368 279.29 233.238 278.684 233.238 277.997 L 233.238 277.727 C 233.238 277.067 233.365 276.474 233.618 275.947 C 233.865 275.42 234.222 275.004 234.688 274.697 C 235.162 274.397 235.722 274.247 236.368 274.247 C 236.928 274.247 237.422 274.337 237.848 274.517 C 238.268 274.704 238.622 274.957 238.908 275.277 L 238.948 276.957 L 237.948 276.957 L 237.738 275.737 C 237.592 275.59 237.408 275.47 237.188 275.377 C 236.968 275.29 236.708 275.247 236.408 275.247 C 236.035 275.247 235.705 275.357 235.418 275.577 C 235.132 275.804 234.908 276.104 234.748 276.477 C 234.588 276.85 234.508 277.267 234.508 277.727 L 234.508 277.997 C 234.508 278.504 234.582 278.944 234.728 279.317 C 234.882 279.69 235.095 279.98 235.368 280.187 C 235.648 280.387 235.978 280.487 236.358 280.487 C 236.792 280.487 237.148 280.37 237.428 280.137 C 237.715 279.897 237.888 279.574 237.948 279.167 L 239.098 279.167 L 239.108 279.197 C 239.088 279.597 238.968 279.974 238.748 280.327 C 238.535 280.674 238.232 280.954 237.838 281.167 C 237.438 281.38 236.948 281.487 236.368 281.487 ZM 242.47 281.487 C 241.743 281.487 241.193 281.307 240.82 280.947 C 240.44 280.594 240.25 280.097 240.25 279.457 C 240.25 279.01 240.37 278.624 240.61 278.297 C 240.856 277.97 241.21 277.714 241.67 277.527 C 242.13 277.347 242.68 277.257 243.32 277.257 L 244.56 277.257 L 244.56 276.567 C 244.56 276.147 244.433 275.82 244.18 275.587 C 243.92 275.36 243.56 275.247 243.1 275.247 C 242.806 275.247 242.553 275.28 242.34 275.347 C 242.126 275.42 241.93 275.52 241.75 275.647 L 241.62 276.617 L 240.64 276.617 L 240.64 275.017 C 240.953 274.764 241.316 274.57 241.73 274.437 C 242.15 274.31 242.613 274.247 243.12 274.247 C 243.966 274.247 244.63 274.447 245.11 274.847 C 245.59 275.254 245.83 275.834 245.83 276.587 L 245.83 279.937 C 245.83 280.03 245.83 280.12 245.83 280.207 C 245.836 280.294 245.843 280.38 245.85 280.467 L 246.53 280.537 L 246.53 281.347 L 244.7 281.347 C 244.66 281.16 244.63 280.99 244.61 280.837 C 244.59 280.69 244.576 280.54 244.57 280.387 C 244.323 280.7 244.016 280.96 243.65 281.167 C 243.283 281.38 242.89 281.487 242.47 281.487 Z M 242.66 280.417 C 243.08 280.417 243.463 280.317 243.81 280.117 C 244.163 279.917 244.413 279.674 244.56 279.387 L 244.56 278.127 L 243.27 278.127 C 242.69 278.127 242.253 278.267 241.96 278.547 C 241.666 278.827 241.52 279.137 241.52 279.477 C 241.52 279.784 241.613 280.017 241.8 280.177 C 241.993 280.337 242.28 280.417 242.66 280.417 ZM 251.001 281.347 L 247.481 281.347 L 247.481 280.537 L 248.531 280.357 L 248.531 275.317 L 247.441 275.317 L 247.441 274.377 L 248.531 274.377 L 248.531 273.487 C 248.531 272.747 248.727 272.174 249.121 271.767 C 249.507 271.36 250.047 271.157 250.741 271.157 C 250.887 271.157 251.047 271.17 251.221 271.197 C 251.387 271.217 251.561 271.25 251.741 271.297 L 251.591 272.257 C 251.511 272.244 251.404 272.23 251.271 272.217 C 251.144 272.204 251.021 272.197 250.901 272.197 C 250.527 272.197 250.251 272.307 250.071 272.527 C 249.891 272.747 249.801 273.067 249.801 273.487 L 249.801 274.377 L 251.321 274.377 L 251.321 275.317 L 249.801 275.317 L 249.801 280.357 L 251.001 280.537 L 251.001 281.347 ZM 255.67 281.347 L 252.15 281.347 L 252.15 280.537 L 253.2 280.357 L 253.2 275.317 L 252.11 275.317 L 252.11 274.377 L 253.2 274.377 L 253.2 273.487 C 253.2 272.747 253.397 272.174 253.79 271.767 C 254.177 271.36 254.717 271.157 255.41 271.157 C 255.557 271.157 255.717 271.17 255.89 271.197 C 256.057 271.217 256.23 271.25 256.41 271.297 L 256.26 272.257 C 256.18 272.244 256.073 272.23 255.94 272.217 C 255.813 272.204 255.69 272.197 255.57 272.197 C 255.197 272.197 254.92 272.307 254.74 272.527 C 254.56 272.747 254.47 273.067 254.47 273.487 L 254.47 274.377 L 255.99 274.377 L 255.99 275.317 L 254.47 275.317 L 254.47 280.357 L 255.67 280.537 L 255.67 281.347 ZM 259.935 281.487 C 259.289 281.487 258.732 281.334 258.265 281.027 C 257.799 280.727 257.439 280.307 257.185 279.767 C 256.932 279.234 256.805 278.624 256.805 277.937 L 256.805 277.797 C 256.805 277.11 256.932 276.497 257.185 275.957 C 257.439 275.424 257.799 275.004 258.265 274.697 C 258.732 274.397 259.285 274.247 259.925 274.247 C 260.565 274.247 261.119 274.397 261.585 274.697 C 262.052 275.004 262.412 275.424 262.665 275.957 C 262.919 276.49 263.045 277.104 263.045 277.797 L 263.045 277.937 C 263.045 278.63 262.919 279.244 262.665 279.777 C 262.412 280.31 262.055 280.727 261.595 281.027 C 261.129 281.334 260.575 281.487 259.935 281.487 Z M 259.935 280.487 C 260.335 280.487 260.672 280.377 260.945 280.157 C 261.219 279.937 261.425 279.634 261.565 279.247 C 261.705 278.867 261.775 278.43 261.775 277.937 L 261.775 277.797 C 261.775 277.304 261.705 276.867 261.565 276.487 C 261.425 276.1 261.219 275.797 260.945 275.577 C 260.672 275.357 260.332 275.247 259.925 275.247 C 259.519 275.247 259.179 275.357 258.905 275.577 C 258.625 275.797 258.419 276.1 258.285 276.487 C 258.145 276.867 258.075 277.304 258.075 277.797 L 258.075 277.937 C 258.075 278.43 258.145 278.867 258.285 279.247 C 258.419 279.634 258.625 279.937 258.905 280.157 C 259.185 280.377 259.529 280.487 259.935 280.487 ZM 267.196 281.347 L 263.826 281.347 L 263.826 280.537 L 264.876 280.357 L 264.876 272.287 L 263.826 272.107 L 263.826 271.297 L 266.146 271.297 L 266.146 280.357 L 267.196 280.537 L 267.196 281.347 ZM 270.777 281.487 C 270.211 281.487 269.724 281.344 269.317 281.057 C 268.911 280.777 268.597 280.387 268.377 279.887 C 268.164 279.38 268.057 278.794 268.057 278.127 L 268.057 277.987 C 268.057 277.24 268.164 276.587 268.377 276.027 C 268.597 275.46 268.911 275.02 269.317 274.707 C 269.724 274.4 270.214 274.247 270.787 274.247 C 271.201 274.247 271.564 274.324 271.877 274.477 C 272.197 274.624 272.467 274.844 272.687 275.137 L 272.687 272.287 L 271.637 272.107 L 271.637 271.297 L 272.687 271.297 L 273.957 271.297 L 273.957 280.357 L 275.007 280.537 L 275.007 281.347 L 272.857 281.347 L 272.747 280.517 C 272.521 280.837 272.244 281.077 271.917 281.237 C 271.591 281.404 271.211 281.487 270.777 281.487 Z M 271.097 280.447 C 271.477 280.447 271.794 280.364 272.047 280.197 C 272.307 280.024 272.521 279.78 272.687 279.467 L 272.687 276.227 C 272.527 275.934 272.314 275.704 272.047 275.537 C 271.787 275.364 271.474 275.277 271.107 275.277 C 270.707 275.277 270.374 275.39 270.107 275.617 C 269.847 275.85 269.654 276.17 269.527 276.577 C 269.394 276.984 269.327 277.454 269.327 277.987 L 269.327 278.127 C 269.327 278.827 269.471 279.39 269.757 279.817 C 270.051 280.237 270.497 280.447 271.097 280.447 ZM 279.202 281.347 L 275.832 281.347 L 275.832 280.537 L 276.882 280.357 L 276.882 275.377 L 275.832 275.187 L 275.832 274.377 L 278.152 274.377 L 278.152 280.357 L 279.202 280.537 L 279.202 281.347 Z M 278.152 272.657 L 276.822 272.657 L 276.822 271.297 L 278.152 271.297 L 278.152 272.657 ZM 283.452 281.347 L 280.082 281.347 L 280.082 280.537 L 281.132 280.357 L 281.132 275.377 L 280.082 275.187 L 280.082 274.377 L 282.262 274.377 L 282.352 275.407 C 282.585 275.04 282.878 274.754 283.232 274.547 C 283.578 274.347 283.975 274.247 284.422 274.247 C 285.175 274.247 285.758 274.467 286.172 274.907 C 286.585 275.347 286.792 276.027 286.792 276.947 L 286.792 280.357 L 287.842 280.537 L 287.842 281.347 L 284.472 281.347 L 284.472 280.537 L 285.522 280.357 L 285.522 276.967 C 285.522 276.354 285.398 275.92 285.152 275.667 C 284.912 275.407 284.542 275.277 284.042 275.277 C 283.675 275.277 283.352 275.364 283.072 275.537 C 282.792 275.717 282.568 275.957 282.402 276.257 L 282.402 280.357 L 283.452 280.537 L 283.452 281.347 ZM 291.727 284.167 C 291.394 284.167 291.03 284.12 290.637 284.027 C 290.244 283.934 289.9 283.807 289.607 283.647 L 289.937 282.657 C 290.17 282.784 290.447 282.887 290.767 282.967 C 291.094 283.054 291.41 283.097 291.717 283.097 C 292.284 283.097 292.697 282.937 292.957 282.617 C 293.224 282.297 293.357 281.844 293.357 281.257 L 293.357 280.597 C 293.13 280.884 292.857 281.104 292.537 281.257 C 292.217 281.41 291.85 281.487 291.437 281.487 C 290.87 281.487 290.384 281.344 289.977 281.057 C 289.564 280.777 289.244 280.384 289.017 279.877 C 288.797 279.377 288.687 278.794 288.687 278.127 L 288.687 277.987 C 288.687 277.24 288.797 276.587 289.017 276.027 C 289.244 275.46 289.564 275.02 289.977 274.707 C 290.384 274.4 290.877 274.247 291.457 274.247 C 291.897 274.247 292.28 274.334 292.607 274.507 C 292.94 274.674 293.217 274.92 293.437 275.247 L 293.557 274.377 L 294.627 274.377 L 294.627 281.257 C 294.627 281.857 294.514 282.374 294.287 282.807 C 294.06 283.24 293.73 283.577 293.297 283.817 C 292.87 284.05 292.347 284.167 291.727 284.167 Z M 291.757 280.447 C 292.137 280.447 292.457 280.36 292.717 280.187 C 292.977 280.014 293.19 279.77 293.357 279.457 L 293.357 276.247 C 293.19 275.947 292.977 275.71 292.717 275.537 C 292.457 275.364 292.14 275.277 291.767 275.277 C 291.367 275.277 291.03 275.394 290.757 275.627 C 290.49 275.854 290.29 276.17 290.157 276.577 C 290.024 276.984 289.957 277.454 289.957 277.987 L 289.957 278.127 C 289.957 278.827 290.107 279.39 290.407 279.817 C 290.7 280.237 291.15 280.447 291.757 280.447 Z M 295.487 275.187 L 294.437 275.407 L 293.937 274.377 L 295.487 274.377 L 295.487 275.187 Z" transform="matrix(1, 0, 0, 1, 0, 0)" style="fill: rgb(51, 51, 51); white-space: pre;"/>
  <rect x="333.609" y="117.543" width="27.871" height="180.663" style="fill: rgb(43, 43, 43);"/>
  <rect x="333.61" y="144.353" width="27.871" height="221.869" style="fill: rgb(43, 43, 43);" transform="matrix(0.649948, 0.759979, -0.755815, 0.654817, 232.662979, -225.337494)"/>
  <rect x="333.61" y="144.353" width="27.871" height="221.869" style="fill: rgb(43, 43, 43);" transform="matrix(0.634891, -0.772602, 0.77667, 0.629941, -153.175308, 313.969055)"/>
</svg>