<?xml version="1.0" encoding="utf-8"?>
<svg viewBox="0 0 500 500" width="500" height="500" xmlns="http://www.w3.org/2000/svg" xmlns:bx="https://boxy-svg.com">
  <polygon style="stroke: rgb(0, 0, 0); fill: rgb(78, 78, 78);" points="336.116 417.041 383.798 472.386 267.147 473.238 308.018 422.15"/>
  <polygon style="stroke: rgb(0, 0, 0); fill: rgb(78, 78, 78);" points="171.357 433.218 219.039 488.563 102.388 489.415 143.259 438.327" bx:origin="-0.821 0.515"/>
  <polygon style="stroke: rgb(0, 0, 0); fill: rgb(78, 78, 78);" points="160.07 260.328 188.245 293.032 119.315 293.536 143.466 263.347" transform="matrix(0, 1, -1, 0, 340.153595, 214.70665)" bx:origin="-0.821 0.515"/>
  <polygon style="stroke: rgb(0, 0, 0); fill: rgb(78, 78, 78);" points="509.733 386.777 533.4 414.248 475.5 414.67 495.786 389.313" transform="matrix(0, -1, 1, 0, 26.822174, 829.105957)" bx:origin="-0.821 0.515"/>
  <polygon style="stroke: rgb(0, 0, 0); fill: rgb(78, 78, 78);" points="501.182 19.098 524.85 46.569 466.949 46.991 487.235 21.634" transform="matrix(-1, 0, 0, -1, 838.824646, 66.925789)" bx:origin="-0.821 0.515"/>
  <polygon style="stroke: rgb(0, 0, 0); fill: rgb(78, 78, 78);" points="341.026 25.429" transform="matrix(-1, 0, 0, -1, 682.052002, 50.858002)" bx:origin="0 0"/>
  <circle style="stroke: rgb(0, 0, 0); fill: rgb(71, 185, 223); stroke-width: 4.76237px;" cx="156.492" cy="154.7" r="122.621" transform="matrix(1.006404, 0, 0, 0.673433, 12.544781, 24.354219)"/>
  <circle style="fill: rgb(255, 239, 239);" cx="227.688" cy="130.463" r="55.797"/>
  <path style="fill: rgb(232, 206, 114);" transform="matrix(0.774926, -0.12644, 0.12644, 0.774926, -713.397644, -107.791168)" d="M 1065 512 A 72.533 72.533 0 0 1 1135 420.467 L 1135 493 Z" bx:shape="pie 1135 493 0 72.533 254.814 360 1@df184290"/>
  <polygon style="fill: rgb(113, 102, 99); stroke: rgb(0, 0, 0); stroke-width: 3px;" points="267.1470031738281 33.88100051879883 267.1470031738281 128.40899658203125 198.18099975585938 197.375 89.0719985961914 197.375 50.95199966430664 235.4949951171875 50.95199966430664 322.5429992675781 67.10800170898438 338.6990051269531 67.10800170898438 390.65301513671875 54.516998291015625 421.04998779296875 54.516998291015625 463.3009948730469 178.7969970703125 463.3009948730469 200.9759979248047 441.12200927734375 303.7619934082031 441.12200927734375 328.5639953613281 430.8489990234375 358.3479919433594 430.8489990234375 383.81201171875 456.31298828125 429.7829895019531 456.31298828125 455.718994140625 430.37701416015625 455.718994140625 358.9849853515625 425.42498779296875 358.9849853515625 425.42498779296875 292.4670104980469 460.4309997558594 292.4670104980469 460.4309997558594 192.25 426.1830139160156 109.56800079345703 426.1830139160156 73.71900177001953 385.0690002441406 33.45600128173828"/>
  <polygon style="stroke: rgb(0, 0, 0); fill: rgb(78, 78, 78);" points="329.304 462.168"/>
  <polygon style="stroke: rgb(0, 0, 0); fill: rgb(78, 78, 78);" points="164.545 478.345" bx:origin="0 0"/>
  <polygon style="stroke: rgb(0, 0, 0); fill: rgb(78, 78, 78);" points="53.159 370.751" transform="matrix(0, 1, -1, 0, 423.910004, 317.59201)" bx:origin="0 0"/>
  <polygon style="stroke: rgb(0, 0, 0); fill: rgb(78, 78, 78);" points="435.998 322.754" transform="matrix(0, -1, 1, 0, 113.243988, 758.752014)" bx:origin="0 0"/>
  <circle style="fill: rgb(230, 230, 230);" cx="340.373" cy="216.946" r="58.305"/>
  <rect x="113.883" y="257.816" width="156.67" height="37.464" style="fill: rgb(230, 230, 230);" transform="matrix(0.773062, -0.63433, 0.63433, 0.773062, -52.615017, 186.392029)"/>
  <circle style="fill: rgb(230, 230, 230);" cx="206.693" cy="331.042" r="27.722"/>
  <rect x="127.507" y="256.113" width="27.247" height="103.027" style="fill: rgb(230, 230, 230);" transform="matrix(0.447477, -0.894296, 0.894296, 0.447477, -188.616516, 295.331848)"/>
  <rect x="348.036" y="331.042" width="38.316" height="54.494" style="fill: rgb(43, 43, 43);"/>
  <rect x="311.423" y="63.682" width="61.306" height="22.138" style="fill: rgb(43, 43, 43);"/>
  <rect x="100.26" y="216.094" width="135.383" height="22.99" style="fill: rgb(43, 43, 43);"/>
  <rect x="87.488" y="346.369" width="24.693" height="97.067" style="fill: rgb(43, 43, 43);"/>
  <rect x="97.706" y="411.08" width="80.038" height="17.029" style="fill: rgb(43, 43, 43);"/>
  <rect x="138.576" y="373.616" width="15.326" height="45.128" style="fill: rgb(43, 43, 43);"/>
</svg>