<?xml version="1.0" encoding="utf-8"?>
<svg viewBox="161.223 115.997 202.261 184.254" width="202.261" height="184.254" xmlns="http://www.w3.org/2000/svg">
  <rect x="160.804" y="115.997" width="202.261" height="184.673" style="fill: rgb(216, 216, 216);"/>
  <path d="M 199.96 231.86 C 196.933 231.86 194.017 231.413 191.21 230.52 C 188.41 229.633 185.733 228.267 183.18 226.42 L 183.18 215.79 L 188.41 215.79 L 189.54 223.62 C 191.02 224.533 192.627 225.24 194.36 225.74 C 196.093 226.24 197.96 226.49 199.96 226.49 C 202.24 226.49 204.173 226.143 205.76 225.45 C 207.34 224.757 208.553 223.793 209.4 222.56 C 210.24 221.333 210.66 219.897 210.66 218.25 C 210.66 216.723 210.297 215.38 209.57 214.22 C 208.837 213.06 207.633 212.04 205.96 211.16 C 204.287 210.287 202.003 209.517 199.11 208.85 C 195.69 208.057 192.8 206.993 190.44 205.66 C 188.087 204.327 186.3 202.71 185.08 200.81 C 183.86 198.903 183.25 196.72 183.25 194.26 C 183.25 191.66 183.94 189.337 185.32 187.29 C 186.693 185.237 188.613 183.617 191.08 182.43 C 193.54 181.25 196.41 180.66 199.69 180.66 C 203.177 180.66 206.26 181.19 208.94 182.25 C 211.613 183.31 213.817 184.59 215.55 186.09 L 215.55 196.04 L 210.32 196.04 L 209.19 188.93 C 208.163 188.11 206.887 187.427 205.36 186.88 C 203.833 186.333 201.943 186.06 199.69 186.06 C 197.777 186.06 196.09 186.397 194.63 187.07 C 193.17 187.737 192.03 188.677 191.21 189.89 C 190.39 191.097 189.98 192.52 189.98 194.16 C 189.98 195.593 190.35 196.847 191.09 197.92 C 191.83 198.987 193.04 199.927 194.72 200.74 C 196.393 201.547 198.63 202.303 201.43 203.01 C 206.67 204.31 210.64 206.23 213.34 208.77 C 216.04 211.31 217.39 214.45 217.39 218.19 C 217.39 220.85 216.673 223.213 215.24 225.28 C 213.807 227.34 211.783 228.95 209.17 230.11 C 206.563 231.277 203.493 231.86 199.96 231.86 ZM 241.107 231.14 L 223.237 231.14 L 223.237 226.83 L 228.807 225.88 L 228.807 186.67 L 223.237 185.72 L 223.237 181.37 L 241.107 181.37 L 241.107 185.72 L 235.537 186.67 L 235.537 203.86 L 259.327 203.86 L 259.327 186.67 L 253.757 185.72 L 253.757 181.37 L 259.327 181.37 L 266.067 181.37 L 271.637 181.37 L 271.637 185.72 L 266.067 186.67 L 266.067 225.88 L 271.637 226.83 L 271.637 231.14 L 253.757 231.14 L 253.757 226.83 L 259.327 225.88 L 259.327 209.16 L 235.537 209.16 L 235.537 225.88 L 241.107 226.83 L 241.107 231.14 ZM 295.038 231.14 L 277.168 231.14 L 277.168 226.83 L 282.738 225.88 L 282.738 186.67 L 277.168 185.72 L 277.168 181.37 L 295.038 181.37 L 295.038 185.72 L 289.468 186.67 L 289.468 225.88 L 295.038 226.83 L 295.038 231.14 ZM 318.449 231.14 L 300.579 231.14 L 300.579 226.83 L 306.149 225.88 L 306.149 186.67 L 300.579 185.72 L 300.579 181.37 L 306.149 181.37 L 323.439 181.37 C 326.999 181.37 330.032 181.993 332.539 183.24 C 335.046 184.48 336.959 186.217 338.279 188.45 C 339.599 190.683 340.259 193.293 340.259 196.28 C 340.259 199.287 339.599 201.907 338.279 204.14 C 336.959 206.373 335.046 208.103 332.539 209.33 C 330.032 210.563 326.999 211.18 323.439 211.18 L 312.879 211.18 L 312.879 225.88 L 318.449 226.83 L 318.449 231.14 Z M 312.879 186.67 L 312.879 205.92 L 323.439 205.92 C 326.812 205.92 329.339 205.013 331.019 203.2 C 332.692 201.387 333.529 199.103 333.529 196.35 C 333.529 193.59 332.692 191.287 331.019 189.44 C 329.339 187.593 326.812 186.67 323.439 186.67 L 312.879 186.67 Z" transform="matrix(1, 0, 0, 1, 0, 0)" style="fill: rgb(51, 51, 51); white-space: pre;"/>
</svg>