<?xml version="1.0" encoding="utf-8"?>
<svg viewBox="0 0 500 500" width="500" height="500" xmlns="http://www.w3.org/2000/svg">
  <rect x="2.449" y="0.898" width="496.04" height="497.771" style="fill: rgb(216, 216, 216);"/>
  <path d="M 80.02 297.654 C 74.373 297.654 68.94 296.824 63.72 295.164 C 58.493 293.511 53.503 290.964 48.75 287.524 L 48.75 267.724 L 58.49 267.724 L 60.6 282.304 C 63.353 284.004 66.343 285.321 69.57 286.254 C 72.797 287.187 76.28 287.654 80.02 287.654 C 84.26 287.654 87.857 287.007 90.81 285.714 C 93.757 284.421 96.017 282.627 97.59 280.334 C 99.157 278.041 99.94 275.367 99.94 272.314 C 99.94 269.467 99.263 266.961 97.91 264.794 C 96.55 262.634 94.31 260.734 91.19 259.094 C 88.07 257.461 83.813 256.031 78.42 254.804 C 72.053 253.317 66.673 251.331 62.28 248.844 C 57.887 246.364 54.557 243.351 52.29 239.804 C 50.017 236.257 48.88 232.194 48.88 227.614 C 48.88 222.774 50.163 218.444 52.73 214.624 C 55.297 210.804 58.873 207.791 63.46 205.584 C 68.047 203.377 73.397 202.274 79.51 202.274 C 86.003 202.274 91.743 203.261 96.73 205.234 C 101.717 207.207 105.823 209.594 109.05 212.394 L 109.05 230.924 L 99.31 230.924 L 97.21 217.684 C 95.297 216.151 92.92 214.874 90.08 213.854 C 87.233 212.841 83.71 212.334 79.51 212.334 C 75.943 212.334 72.8 212.961 70.08 214.214 C 67.367 215.461 65.247 217.211 63.72 219.464 C 62.187 221.711 61.42 224.364 61.42 227.424 C 61.42 230.097 62.11 232.431 63.49 234.424 C 64.87 236.417 67.12 238.167 70.24 239.674 C 73.36 241.181 77.53 242.594 82.75 243.914 C 92.517 246.334 99.913 249.911 104.94 254.644 C 109.973 259.377 112.49 265.224 112.49 272.184 C 112.49 277.151 111.153 281.554 108.48 285.394 C 105.807 289.234 102.037 292.237 97.17 294.404 C 92.31 296.571 86.593 297.654 80.02 297.654 ZM 155.782 296.314 L 122.482 296.314 L 122.482 288.294 L 132.852 286.504 L 132.852 237.294 L 122.482 235.504 L 122.482 227.424 L 145.402 227.424 L 145.402 286.504 L 155.782 288.294 L 155.782 296.314 Z M 145.402 210.424 L 132.222 210.424 L 132.222 196.984 L 145.402 196.984 L 145.402 210.424 ZM 197.103 296.314 L 163.803 296.314 L 163.803 288.294 L 174.173 286.504 L 174.173 206.854 L 163.803 205.074 L 163.803 196.984 L 186.723 196.984 L 186.723 286.504 L 197.103 288.294 L 197.103 296.314 ZM 238.868 296.314 L 205.568 296.314 L 205.568 288.294 L 215.938 286.504 L 215.938 237.294 L 205.568 235.504 L 205.568 227.424 L 228.488 227.424 L 228.488 286.504 L 238.868 288.294 L 238.868 296.314 Z M 228.488 210.424 L 215.308 210.424 L 215.308 196.984 L 228.488 196.984 L 228.488 210.424 ZM 278.659 297.654 C 272.419 297.654 266.985 296.201 262.359 293.294 C 257.732 290.381 254.145 286.337 251.599 281.164 C 249.052 275.984 247.779 269.997 247.779 263.204 L 247.779 260.534 C 247.779 253.994 249.009 248.134 251.469 242.954 C 253.929 237.774 257.472 233.677 262.099 230.664 C 266.725 227.651 272.245 226.144 278.659 226.144 C 284.219 226.144 289.089 227.057 293.269 228.884 C 297.449 230.711 300.962 233.214 303.809 236.394 L 304.129 252.954 L 294.319 252.954 L 292.159 240.924 C 290.712 239.437 288.905 238.247 286.739 237.354 C 284.579 236.461 282.032 236.014 279.099 236.014 C 275.365 236.014 272.089 237.117 269.269 239.324 C 266.442 241.531 264.245 244.481 262.679 248.174 C 261.105 251.867 260.319 255.987 260.319 260.534 L 260.319 263.204 C 260.319 268.211 261.052 272.561 262.519 276.254 C 263.979 279.947 266.079 282.804 268.819 284.824 C 271.559 286.837 274.815 287.844 278.589 287.844 C 282.835 287.844 286.359 286.677 289.159 284.344 C 291.965 282.011 293.685 278.807 294.319 274.734 L 305.589 274.734 L 305.719 275.114 C 305.505 279.061 304.339 282.754 302.219 286.194 C 300.092 289.627 297.065 292.397 293.139 294.504 C 289.212 296.604 284.385 297.654 278.659 297.654 ZM 348.183 297.654 C 341.816 297.654 336.33 296.157 331.723 293.164 C 327.116 290.171 323.56 286.031 321.053 280.744 C 318.553 275.464 317.303 269.427 317.303 262.634 L 317.303 261.234 C 317.303 254.441 318.553 248.401 321.053 243.114 C 323.56 237.827 327.116 233.677 331.723 230.664 C 336.33 227.651 341.773 226.144 348.053 226.144 C 354.42 226.144 359.906 227.651 364.513 230.664 C 369.12 233.677 372.673 237.817 375.173 243.084 C 377.68 248.351 378.933 254.401 378.933 261.234 L 378.933 262.634 C 378.933 269.467 377.68 275.527 375.173 280.814 C 372.673 286.094 369.13 290.221 364.543 293.194 C 359.956 296.167 354.503 297.654 348.183 297.654 Z M 348.183 287.844 C 352.17 287.844 355.513 286.751 358.213 284.564 C 360.906 282.377 362.943 279.384 364.323 275.584 C 365.703 271.791 366.393 267.474 366.393 262.634 L 366.393 261.234 C 366.393 256.394 365.703 252.074 364.323 248.274 C 362.943 244.474 360.893 241.481 358.173 239.294 C 355.46 237.107 352.086 236.014 348.053 236.014 C 344.06 236.014 340.706 237.107 337.993 239.294 C 335.273 241.481 333.236 244.474 331.883 248.274 C 330.523 252.074 329.843 256.394 329.843 261.234 L 329.843 262.634 C 329.843 267.474 330.523 271.791 331.883 275.584 C 333.236 279.384 335.283 282.377 338.023 284.564 C 340.763 286.751 344.15 287.844 348.183 287.844 ZM 421.905 296.314 L 388.605 296.314 L 388.605 288.294 L 398.985 286.504 L 398.985 237.294 L 388.605 235.504 L 388.605 227.424 L 410.195 227.424 L 411.085 237.674 C 413.378 234.021 416.255 231.187 419.715 229.174 C 423.168 227.154 427.105 226.144 431.525 226.144 C 438.951 226.144 444.701 228.321 448.775 232.674 C 452.848 237.027 454.885 243.744 454.885 252.824 L 454.885 286.504 L 465.265 288.294 L 465.265 296.314 L 431.965 296.314 L 431.965 288.294 L 442.345 286.504 L 442.345 253.084 C 442.345 247.011 441.145 242.701 438.745 240.154 C 436.351 237.607 432.691 236.334 427.765 236.334 C 424.158 236.334 420.965 237.204 418.185 238.944 C 415.405 240.684 413.185 243.061 411.525 246.074 L 411.525 286.504 L 421.905 288.294 L 421.905 296.314 Z" transform="matrix(1, 0, 0, 1, 0, 0)" style="fill: rgb(51, 51, 51); white-space: pre;"/>
</svg>