<?xml version="1.0" encoding="utf-8"?>
<svg viewBox="0 0 500 500" width="500" height="500" xmlns="http://www.w3.org/2000/svg" xmlns:bx="https://boxy-svg.com">
  <rect x="79.495" y="96.989" width="338.484" height="306.454" style="fill: rgb(139, 139, 139);"/>
  <rect x="407.592" y="-0.833" width="90.897" height="94.36" style="fill: rgb(139, 139, 139);"/>
  <rect x="2.016" y="3.063" width="90.897" height="94.36" style="fill: rgb(139, 139, 139);"/>
  <rect x="408.89" y="403.01" width="90.897" height="94.36" style="fill: rgb(139, 139, 139);"/>
  <rect x="-0.581" y="405.608" width="90.897" height="94.36" style="fill: rgb(139, 139, 139);"/>
  <path d="M 244.842 107.095 H 310.664 L 302.664 92.095 L 355.664 122.095 L 302.664 152.095 L 310.664 137.095 H 244.842 V 107.095 Z" style="fill: rgb(247, 255, 12);" transform="matrix(0.015623, 0.999878, -0.999878, 0.015623, 363.096771, -124.624596)" bx:shape="arrow 244.842 92.095 110.822 60 30 53 8 1@aab75da1"/>
  <path d="M 259.559 243.008 H 366.93 L 358.93 228.008 L 411.93 258.008 L 358.93 288.008 L 366.93 273.008 H 259.559 V 243.008 Z" style="fill: rgb(136, 255, 0);" transform="matrix(0.999935, -0.011363, 0.011363, 0.999935, -2.914963, 2.965997)" bx:shape="arrow 259.559 228.008 152.371 60 30 53 8 1@7317df61"/>
  <path d="M 250.902 243.874 H 340.994 L 332.994 228.874 L 385.994 258.874 L 332.994 288.874 L 340.994 273.874 H 250.902 V 243.874 Z" style="fill: rgb(136, 255, 0);" transform="matrix(0.025633, 0.999671, -0.999671, 0.025633, 503.259155, 1.418825)" bx:shape="arrow 250.902 228.874 135.092 60 30 53 8 1@59379ce8"/>
  <path d="M 236.185 243.874 H 328.008 L 320.008 228.874 L 373.008 258.874 L 320.008 288.874 L 328.008 273.874 H 236.185 V 243.874 Z" style="fill: rgb(136, 255, 0);" transform="matrix(-0.99968, -0.025308, 0.025308, -0.99968, 465.742767, 523.642029)" bx:shape="arrow 236.185 228.874 136.823 60 30 53 8 1@80f941d9"/>
</svg>