<?xml version="1.0" encoding="utf-8"?>
<svg viewBox="0 0 500 500" width="500" height="500" xmlns="http://www.w3.org/2000/svg" xmlns:bx="https://boxy-svg.com">
  <defs>
    <linearGradient gradientUnits="userSpaceOnUse" x1="220.597" y1="120.606" x2="220.597" y2="141.041" id="gradient-8" gradientTransform="matrix(-0.349906, 0.936785, -1.537095, -0.574133, 493.385986, -95.339775)">
      <stop offset="0" style="stop-color: rgb(135, 135, 135);"/>
      <stop offset="1" style="stop-color: rgb(70, 70, 70);"/>
    </linearGradient>
    <linearGradient gradientUnits="userSpaceOnUse" x1="220.597" y1="120.606" x2="220.597" y2="141.041" id="gradient-9" gradientTransform="matrix(-0.349906, 0.936785, -1.537095, -0.574133, 576.832336, -95.718627)">
      <stop offset="0" style="stop-color: rgb(135, 135, 135);"/>
      <stop offset="1" style="stop-color: rgb(70, 70, 70);"/>
    </linearGradient>
    <linearGradient gradientUnits="userSpaceOnUse" x1="250" y1="0" x2="250" y2="500" id="gradient-6" gradientTransform="matrix(-0.000126, 0.496202, -0.134677, -0.000078, 341.798004, -45.521489)">
      <stop offset="0" style="stop-color: rgba(216, 216, 216, 1)"/>
      <stop offset="0.416" style="stop-color: rgb(169, 169, 169);"/>
      <stop offset="1" style="stop-color: rgb(97, 97, 97);"/>
    </linearGradient>
    <linearGradient gradientUnits="userSpaceOnUse" x1="250" y1="0" x2="250" y2="500" id="gradient-0" gradientTransform="matrix(-0.000281, 0.064159, -0.300531, -0.00001, 325.202732, 451.829254)">
      <stop offset="0" style="stop-color: rgba(216, 216, 216, 1)"/>
      <stop offset="0.416" style="stop-color: rgb(169, 169, 169);"/>
      <stop offset="1" style="stop-color: rgb(97, 97, 97);"/>
    </linearGradient>
    <linearGradient gradientUnits="userSpaceOnUse" x1="250" y1="0" x2="250" y2="500" id="gradient-5" gradientTransform="matrix(-0.000347, 0.313243, -0.370871, -0.000049, 354.336949, 236.526503)">
      <stop offset="0" style="stop-color: rgba(216, 216, 216, 1)"/>
      <stop offset="0.416" style="stop-color: rgb(169, 169, 169);"/>
      <stop offset="1" style="stop-color: rgb(97, 97, 97);"/>
    </linearGradient>
    <radialGradient gradientUnits="userSpaceOnUse" cx="261.21" cy="402.624" r="17.839" id="gradient-4" gradientTransform="matrix(1.073894, 0.077529, -0.060618, 0.978406, 66.760126, -130.091422)">
      <stop offset="0" style="stop-color: rgb(127, 135, 218);"/>
      <stop offset="1" style="stop-color: rgb(42, 59, 166);"/>
    </radialGradient>
    <radialGradient gradientUnits="userSpaceOnUse" cx="261.21" cy="402.624" r="17.839" id="gradient-3" gradientTransform="matrix(1.073894, 0.077529, -0.060618, 0.978406, 66.760126, -130.091422)">
      <stop offset="0" style="stop-color: rgb(127, 135, 218);"/>
      <stop offset="1" style="stop-color: rgb(42, 59, 166);"/>
    </radialGradient>
    <radialGradient gradientUnits="userSpaceOnUse" cx="264.507" cy="404.405" r="17.839" id="gradient-2" gradientTransform="matrix(1.480633, 0.118961, -0.078565, 0.977846, -83.04895, -63.050873)">
      <stop offset="0" style="stop-color: rgb(81, 91, 195);"/>
      <stop offset="1" style="stop-color: rgb(42, 59, 166);"/>
    </radialGradient>
    <radialGradient gradientUnits="userSpaceOnUse" cx="264.507" cy="404.405" r="17.839" id="gradient-1" gradientTransform="matrix(1.480633, 0.118961, -0.078565, 0.977846, -84.52755, 5.839701)">
      <stop offset="0" style="stop-color: rgb(81, 91, 195);"/>
      <stop offset="1" style="stop-color: rgb(42, 59, 166);"/>
    </radialGradient>
    <linearGradient gradientUnits="userSpaceOnUse" x1="250" y1="0" x2="250" y2="500" id="gradient-7" gradientTransform="matrix(-0.000347, 0.0998, -0.370871, -0.000016, 356.733612, 15.550301)">
      <stop offset="0" style="stop-color: rgba(216, 216, 216, 1)"/>
      <stop offset="0.416" style="stop-color: rgb(169, 169, 169);"/>
      <stop offset="1" style="stop-color: rgb(97, 97, 97);"/>
    </linearGradient>
    <radialGradient gradientUnits="userSpaceOnUse" cx="261.21" cy="402.624" r="17.839" id="gradient-10" gradientTransform="matrix(1.073894, 0.077529, -0.060618, 0.978406, 66.760126, -130.091422)">
      <stop offset="0" style="stop-color: rgb(127, 135, 218);"/>
      <stop offset="1" style="stop-color: rgb(42, 59, 166);"/>
    </radialGradient>
  </defs>
  <rect width="17.771" height="3.694" style="paint-order: fill; stroke-dashoffset: -32px; fill: rgb(57, 57, 57); stroke: rgb(38, 38, 38);" x="-25.996" y="-152.267" transform="matrix(0.926869, 0.375384, -0.375384, 0.926869, 32.464626, 560.268799)"/>
  <rect width="17.771" height="3.694" style="paint-order: fill; stroke-dashoffset: -32px; fill: rgb(57, 57, 57); stroke: rgb(38, 38, 38);" x="-25.996" y="-152.267" transform="matrix(0.041717, 0.999129, -0.999129, 0.041717, -83.6745, 442.689484)"/>
  <polygon style="stroke: rgb(0, 0, 0); fill: url(#gradient-8);" points="193.917 24.282 208.677 44.338 231.389 44.717 247.277 24.282"/>
  <polygon style="stroke: rgb(0, 0, 0); fill: url(#gradient-9);" points="277.363 23.903 292.123 43.959 314.835 44.338 330.723 23.903"/>
  <rect width="86.302" height="10.061" style="paint-order: fill; stroke-dashoffset: -32px; fill: rgb(57, 57, 57); stroke: rgb(38, 38, 38);" x="-281.219" y="-295.439" transform="matrix(-1, 0, 0, -1, 0, 0)"/>
  <rect width="86.302" height="10.061" style="paint-order: fill; stroke-dashoffset: -32px; fill: rgb(57, 57, 57); stroke: rgb(38, 38, 38);" x="-282.645" y="-271.181" transform="matrix(-1, 0, 0, -1, 0, 0)"/>
  <rect width="86.302" height="10.061" style="paint-order: fill; stroke-dashoffset: -32px; fill: rgb(57, 57, 57); stroke: rgb(38, 38, 38);" x="-286.018" y="-203.208" transform="matrix(-1, 0, 0, -1, 0, 0)"/>
  <rect width="43.972" height="10.061" style="paint-order: fill; stroke-dashoffset: -32px; fill: rgb(57, 57, 57); stroke: rgb(38, 38, 38);" x="-64.326" y="-414.715" transform="matrix(-0.737214, 0.67566, -0.67566, -0.737214, -223.149887, 121.12825)"/>
  <rect width="86.302" height="10.061" style="paint-order: fill; stroke-dashoffset: -32px; fill: rgb(57, 57, 57); stroke: rgb(38, 38, 38);" x="-188.898" y="-385.766" transform="matrix(-1, 0, 0, -1, 0, 0)"/>
  <circle style="fill: rgb(216, 216, 216); stroke: rgb(0, 0, 0);" cx="100.129" cy="380.932" r="7.845"/>
  <g>
    <rect width="54.868" height="10" style="paint-order: fill; stroke-dashoffset: -32px; fill: rgb(57, 57, 57); stroke: rgb(38, 38, 38);" x="340" y="425"/>
    <rect width="10" height="10" style="paint-order: fill; stroke-dashoffset: -32px; fill: rgb(37, 104, 149); stroke: rgb(169, 139, 76);" x="370.034" y="400"/>
    <rect width="10" height="10" style="paint-order: fill; stroke-dashoffset: -32px; fill: rgb(37, 104, 149); stroke: rgb(169, 139, 76);" x="370" y="410"/>
    <rect width="10" height="10" style="paint-order: fill; stroke-dashoffset: -32px; fill: rgb(37, 104, 149); stroke: rgb(169, 139, 76);" x="370" y="420"/>
    <rect width="10" height="10" style="paint-order: fill; stroke-dashoffset: -32px; fill: rgb(37, 104, 149); stroke: rgb(169, 139, 76);" x="370" y="430"/>
    <rect width="10" height="10" style="paint-order: fill; stroke-dashoffset: -32px; fill: rgb(37, 104, 149); stroke: rgb(169, 139, 76);" x="370.034" y="440"/>
    <rect width="10" height="10" style="paint-order: fill; stroke-dashoffset: -32px; fill: rgb(37, 104, 149); stroke: rgb(169, 139, 76);" x="370" y="450"/>
    <rect width="10" height="10" style="paint-order: fill; stroke-dashoffset: -32px; fill: rgb(37, 104, 149); stroke: rgb(169, 139, 76);" x="380.034" y="400"/>
    <rect width="10" height="10" style="paint-order: fill; stroke-dashoffset: -32px; fill: rgb(37, 104, 149); stroke: rgb(169, 139, 76);" x="380" y="410"/>
    <rect width="10" height="10" style="paint-order: fill; stroke-dashoffset: -32px; fill: rgb(37, 104, 149); stroke: rgb(169, 139, 76);" x="380" y="420"/>
    <rect width="10" height="10" style="paint-order: fill; stroke-dashoffset: -32px; fill: rgb(37, 104, 149); stroke: rgb(169, 139, 76);" x="380" y="430"/>
    <rect width="10" height="10" style="paint-order: fill; stroke-dashoffset: -32px; fill: rgb(37, 104, 149); stroke: rgb(169, 139, 76);" x="380.034" y="440"/>
    <rect width="10" height="10" style="paint-order: fill; stroke-dashoffset: -32px; fill: rgb(37, 104, 149); stroke: rgb(169, 139, 76);" x="380" y="450"/>
    <rect width="10" height="10" style="paint-order: fill; stroke-dashoffset: -32px; fill: rgb(37, 104, 149); stroke: rgb(169, 139, 76);" x="390.034" y="400"/>
    <rect width="10" height="10" style="paint-order: fill; stroke-dashoffset: -32px; fill: rgb(37, 104, 149); stroke: rgb(169, 139, 76);" x="390" y="410"/>
    <rect width="10" height="10" style="paint-order: fill; stroke-dashoffset: -32px; fill: rgb(37, 104, 149); stroke: rgb(169, 139, 76);" x="390" y="420"/>
    <rect width="10" height="10" style="paint-order: fill; stroke-dashoffset: -32px; fill: rgb(37, 104, 149); stroke: rgb(169, 139, 76);" x="390" y="430"/>
    <rect width="10" height="10" style="paint-order: fill; stroke-dashoffset: -32px; fill: rgb(37, 104, 149); stroke: rgb(169, 139, 76);" x="390.034" y="440"/>
    <rect width="10" height="10" style="paint-order: fill; stroke-dashoffset: -32px; fill: rgb(37, 104, 149); stroke: rgb(169, 139, 76);" x="390" y="450"/>
    <rect width="10" height="10" style="paint-order: fill; stroke-dashoffset: -32px; fill: rgb(37, 104, 149); stroke: rgb(169, 139, 76);" x="400.034" y="400"/>
    <rect width="10" height="10" style="paint-order: fill; stroke-dashoffset: -32px; fill: rgb(37, 104, 149); stroke: rgb(169, 139, 76);" x="400" y="410"/>
    <rect width="10" height="10" style="paint-order: fill; stroke-dashoffset: -32px; fill: rgb(37, 104, 149); stroke: rgb(169, 139, 76);" x="400" y="420"/>
    <rect width="10" height="10" style="paint-order: fill; stroke-dashoffset: -32px; fill: rgb(37, 104, 149); stroke: rgb(169, 139, 76);" x="400" y="430"/>
    <rect width="10" height="10" style="paint-order: fill; stroke-dashoffset: -32px; fill: rgb(37, 104, 149); stroke: rgb(169, 139, 76);" x="400.034" y="440"/>
    <rect width="10" height="10" style="paint-order: fill; stroke-dashoffset: -32px; fill: rgb(37, 104, 149); stroke: rgb(169, 139, 76);" x="400" y="450"/>
    <rect width="10" height="10" style="paint-order: fill; stroke-dashoffset: -32px; fill: rgb(37, 104, 149); stroke: rgb(169, 139, 76);" x="410.034" y="400"/>
    <rect width="10" height="10" style="paint-order: fill; stroke-dashoffset: -32px; fill: rgb(37, 104, 149); stroke: rgb(169, 139, 76);" x="410" y="410"/>
    <rect width="10" height="10" style="paint-order: fill; stroke-dashoffset: -32px; fill: rgb(37, 104, 149); stroke: rgb(169, 139, 76);" x="410" y="420"/>
    <rect width="10" height="10" style="paint-order: fill; stroke-dashoffset: -32px; fill: rgb(37, 104, 149); stroke: rgb(169, 139, 76);" x="410" y="430"/>
    <rect width="10" height="10" style="paint-order: fill; stroke-dashoffset: -32px; fill: rgb(37, 104, 149); stroke: rgb(169, 139, 76);" x="410.034" y="440"/>
    <rect width="10" height="10" style="paint-order: fill; stroke-dashoffset: -32px; fill: rgb(37, 104, 149); stroke: rgb(169, 139, 76);" x="410" y="450"/>
    <rect width="10" height="10" style="paint-order: fill; stroke-dashoffset: -32px; fill: rgb(37, 104, 149); stroke: rgb(169, 139, 76);" x="420.034" y="400"/>
    <rect width="10" height="10" style="paint-order: fill; stroke-dashoffset: -32px; fill: rgb(37, 104, 149); stroke: rgb(169, 139, 76);" x="420" y="410"/>
    <rect width="10" height="10" style="paint-order: fill; stroke-dashoffset: -32px; fill: rgb(37, 104, 149); stroke: rgb(169, 139, 76);" x="420" y="420"/>
    <rect width="10" height="10" style="paint-order: fill; stroke-dashoffset: -32px; fill: rgb(37, 104, 149); stroke: rgb(169, 139, 76);" x="420" y="430"/>
    <rect width="10" height="10" style="paint-order: fill; stroke-dashoffset: -32px; fill: rgb(37, 104, 149); stroke: rgb(169, 139, 76);" x="420.034" y="440"/>
    <rect width="10" height="10" style="paint-order: fill; stroke-dashoffset: -32px; fill: rgb(37, 104, 149); stroke: rgb(169, 139, 76);" x="420" y="450"/>
    <rect width="10" height="10" style="paint-order: fill; stroke-dashoffset: -32px; fill: rgb(37, 104, 149); stroke: rgb(169, 139, 76);" x="430.034" y="400"/>
    <rect width="10" height="10" style="paint-order: fill; stroke-dashoffset: -32px; fill: rgb(37, 104, 149); stroke: rgb(169, 139, 76);" x="430" y="410"/>
    <rect width="10" height="10" style="paint-order: fill; stroke-dashoffset: -32px; fill: rgb(37, 104, 149); stroke: rgb(169, 139, 76);" x="430" y="420"/>
    <rect width="10" height="10" style="paint-order: fill; stroke-dashoffset: -32px; fill: rgb(37, 104, 149); stroke: rgb(169, 139, 76);" x="430" y="430"/>
    <rect width="10" height="10" style="paint-order: fill; stroke-dashoffset: -32px; fill: rgb(37, 104, 149); stroke: rgb(169, 139, 76);" x="430.034" y="440"/>
    <rect width="10" height="10" style="paint-order: fill; stroke-dashoffset: -32px; fill: rgb(37, 104, 149); stroke: rgb(169, 139, 76);" x="430" y="450"/>
    <rect width="10" height="10" style="paint-order: fill; stroke-dashoffset: -32px; fill: rgb(37, 104, 149); stroke: rgb(169, 139, 76);" x="440.034" y="400"/>
    <rect width="10" height="10" style="paint-order: fill; stroke-dashoffset: -32px; fill: rgb(37, 104, 149); stroke: rgb(169, 139, 76);" x="440" y="410"/>
    <rect width="10" height="10" style="paint-order: fill; stroke-dashoffset: -32px; fill: rgb(37, 104, 149); stroke: rgb(169, 139, 76);" x="440" y="420"/>
    <rect width="10" height="10" style="paint-order: fill; stroke-dashoffset: -32px; fill: rgb(37, 104, 149); stroke: rgb(169, 139, 76);" x="440" y="430"/>
    <rect width="10" height="10" style="paint-order: fill; stroke-dashoffset: -32px; fill: rgb(37, 104, 149); stroke: rgb(169, 139, 76);" x="440.034" y="440"/>
    <rect width="10" height="10" style="paint-order: fill; stroke-dashoffset: -32px; fill: rgb(37, 104, 149); stroke: rgb(169, 139, 76);" x="440" y="450"/>
    <rect width="10" height="10" style="paint-order: fill; stroke-dashoffset: -32px; fill: rgb(37, 104, 149); stroke: rgb(169, 139, 76);" x="450.034" y="400"/>
    <rect width="10" height="10" style="paint-order: fill; stroke-dashoffset: -32px; fill: rgb(37, 104, 149); stroke: rgb(169, 139, 76);" x="450" y="410"/>
    <rect width="10" height="10" style="paint-order: fill; stroke-dashoffset: -32px; fill: rgb(37, 104, 149); stroke: rgb(169, 139, 76);" x="450" y="420"/>
    <rect width="10" height="10" style="paint-order: fill; stroke-dashoffset: -32px; fill: rgb(37, 104, 149); stroke: rgb(169, 139, 76);" x="450" y="430"/>
    <rect width="10" height="10" style="paint-order: fill; stroke-dashoffset: -32px; fill: rgb(37, 104, 149); stroke: rgb(169, 139, 76);" x="450.034" y="440"/>
    <rect width="10" height="10" style="paint-order: fill; stroke-dashoffset: -32px; fill: rgb(37, 104, 149); stroke: rgb(169, 139, 76);" x="450" y="450"/>
    <rect width="10" height="10" style="paint-order: fill; stroke-dashoffset: -32px; fill: rgb(37, 104, 149); stroke: rgb(169, 139, 76);" x="460.034" y="400"/>
    <rect width="10" height="10" style="paint-order: fill; stroke-dashoffset: -32px; fill: rgb(37, 104, 149); stroke: rgb(169, 139, 76);" x="460" y="410"/>
    <rect width="10" height="10" style="paint-order: fill; stroke-dashoffset: -32px; fill: rgb(37, 104, 149); stroke: rgb(169, 139, 76);" x="460" y="420"/>
    <rect width="10" height="10" style="paint-order: fill; stroke-dashoffset: -32px; fill: rgb(37, 104, 149); stroke: rgb(169, 139, 76);" x="460" y="430"/>
    <rect width="10" height="10" style="paint-order: fill; stroke-dashoffset: -32px; fill: rgb(37, 104, 149); stroke: rgb(169, 139, 76);" x="460.034" y="440"/>
    <rect width="10" height="10" style="paint-order: fill; stroke-dashoffset: -32px; fill: rgb(37, 104, 149); stroke: rgb(169, 139, 76);" x="460" y="450"/>
  </g>
  <g transform="matrix(1, 0, 0, 1, 0, -100)">
    <rect width="54.868" height="10" style="paint-order: fill; stroke-dashoffset: -32px; fill: rgb(57, 57, 57); stroke: rgb(38, 38, 38);" x="340" y="425"/>
    <rect width="10" height="10" style="paint-order: fill; stroke-dashoffset: -32px; fill: rgb(37, 104, 149); stroke: rgb(191, 144, 64);" x="370.034" y="400"/>
    <rect width="10" height="10" style="paint-order: fill; stroke-dashoffset: -32px; fill: rgb(37, 104, 149); stroke: rgb(191, 144, 64);" x="370" y="410"/>
    <rect width="10" height="10" style="paint-order: fill; stroke-dashoffset: -32px; fill: rgb(37, 104, 149); stroke: rgb(191, 144, 64);" x="370" y="420"/>
    <rect width="10" height="10" style="paint-order: fill; stroke-dashoffset: -32px; fill: rgb(37, 104, 149); stroke: rgb(191, 144, 64);" x="370" y="430"/>
    <rect width="10" height="10" style="paint-order: fill; stroke-dashoffset: -32px; fill: rgb(37, 104, 149); stroke: rgb(191, 144, 64);" x="370.034" y="440"/>
    <rect width="10" height="10" style="paint-order: fill; stroke-dashoffset: -32px; fill: rgb(37, 104, 149); stroke: rgb(191, 144, 64);" x="370" y="450"/>
    <rect width="10" height="10" style="paint-order: fill; stroke-dashoffset: -32px; fill: rgb(37, 104, 149); stroke: rgb(191, 144, 64);" x="380.034" y="400"/>
    <rect width="10" height="10" style="paint-order: fill; stroke-dashoffset: -32px; fill: rgb(37, 104, 149); stroke: rgb(191, 144, 64);" x="380" y="410"/>
    <rect width="10" height="10" style="paint-order: fill; stroke-dashoffset: -32px; fill: rgb(37, 104, 149); stroke: rgb(191, 144, 64);" x="380" y="420"/>
    <rect width="10" height="10" style="paint-order: fill; stroke-dashoffset: -32px; fill: rgb(37, 104, 149); stroke: rgb(191, 144, 64);" x="380" y="430"/>
    <rect width="10" height="10" style="paint-order: fill; stroke-dashoffset: -32px; fill: rgb(37, 104, 149); stroke: rgb(191, 144, 64);" x="380.034" y="440"/>
    <rect width="10" height="10" style="paint-order: fill; stroke-dashoffset: -32px; fill: rgb(37, 104, 149); stroke: rgb(191, 144, 64);" x="380" y="450"/>
    <rect width="10" height="10" style="paint-order: fill; stroke-dashoffset: -32px; fill: rgb(37, 104, 149); stroke: rgb(191, 144, 64);" x="390.034" y="400"/>
    <rect width="10" height="10" style="paint-order: fill; stroke-dashoffset: -32px; fill: rgb(37, 104, 149); stroke: rgb(191, 144, 64);" x="390" y="410"/>
    <rect width="10" height="10" style="paint-order: fill; stroke-dashoffset: -32px; fill: rgb(37, 104, 149); stroke: rgb(191, 144, 64);" x="390" y="420"/>
    <rect width="10" height="10" style="paint-order: fill; stroke-dashoffset: -32px; fill: rgb(37, 104, 149); stroke: rgb(191, 144, 64);" x="390" y="430"/>
    <rect width="10" height="10" style="paint-order: fill; stroke-dashoffset: -32px; fill: rgb(37, 104, 149); stroke: rgb(191, 144, 64);" x="390.034" y="440"/>
    <rect width="10" height="10" style="paint-order: fill; stroke-dashoffset: -32px; fill: rgb(37, 104, 149); stroke: rgb(191, 144, 64);" x="390" y="450"/>
    <rect width="10" height="10" style="paint-order: fill; stroke-dashoffset: -32px; fill: rgb(37, 104, 149); stroke: rgb(191, 144, 64);" x="400.034" y="400"/>
    <rect width="10" height="10" style="paint-order: fill; stroke-dashoffset: -32px; fill: rgb(37, 104, 149); stroke: rgb(191, 144, 64);" x="400" y="410"/>
    <rect width="10" height="10" style="paint-order: fill; stroke-dashoffset: -32px; fill: rgb(37, 104, 149); stroke: rgb(191, 144, 64);" x="400" y="420"/>
    <rect width="10" height="10" style="paint-order: fill; stroke-dashoffset: -32px; fill: rgb(37, 104, 149); stroke: rgb(191, 144, 64);" x="400" y="430"/>
    <rect width="10" height="10" style="paint-order: fill; stroke-dashoffset: -32px; fill: rgb(37, 104, 149); stroke: rgb(191, 144, 64);" x="400.034" y="440"/>
    <rect width="10" height="10" style="paint-order: fill; stroke-dashoffset: -32px; fill: rgb(37, 104, 149); stroke: rgb(191, 144, 64);" x="400" y="450"/>
    <rect width="10" height="10" style="paint-order: fill; stroke-dashoffset: -32px; fill: rgb(37, 104, 149); stroke: rgb(191, 144, 64);" x="410.034" y="400"/>
    <rect width="10" height="10" style="paint-order: fill; stroke-dashoffset: -32px; fill: rgb(37, 104, 149); stroke: rgb(191, 144, 64);" x="410" y="410"/>
    <rect width="10" height="10" style="paint-order: fill; stroke-dashoffset: -32px; fill: rgb(37, 104, 149); stroke: rgb(191, 144, 64);" x="410" y="420"/>
    <rect width="10" height="10" style="paint-order: fill; stroke-dashoffset: -32px; fill: rgb(37, 104, 149); stroke: rgb(191, 144, 64);" x="410" y="430"/>
    <rect width="10" height="10" style="paint-order: fill; stroke-dashoffset: -32px; fill: rgb(37, 104, 149); stroke: rgb(191, 144, 64);" x="410.034" y="440"/>
    <rect width="10" height="10" style="paint-order: fill; stroke-dashoffset: -32px; fill: rgb(37, 104, 149); stroke: rgb(191, 144, 64);" x="410" y="450"/>
    <rect width="10" height="10" style="paint-order: fill; stroke-dashoffset: -32px; fill: rgb(37, 104, 149); stroke: rgb(191, 144, 64);" x="420.034" y="400"/>
    <rect width="10" height="10" style="paint-order: fill; stroke-dashoffset: -32px; fill: rgb(37, 104, 149); stroke: rgb(191, 144, 64);" x="420" y="410"/>
    <rect width="10" height="10" style="paint-order: fill; stroke-dashoffset: -32px; fill: rgb(37, 104, 149); stroke: rgb(191, 144, 64);" x="420" y="420"/>
    <rect width="10" height="10" style="paint-order: fill; stroke-dashoffset: -32px; fill: rgb(37, 104, 149); stroke: rgb(191, 144, 64);" x="420" y="430"/>
    <rect width="10" height="10" style="paint-order: fill; stroke-dashoffset: -32px; fill: rgb(37, 104, 149); stroke: rgb(191, 144, 64);" x="420.034" y="440"/>
    <rect width="10" height="10" style="paint-order: fill; stroke-dashoffset: -32px; fill: rgb(37, 104, 149); stroke: rgb(191, 144, 64);" x="420" y="450"/>
    <rect width="10" height="10" style="paint-order: fill; stroke-dashoffset: -32px; fill: rgb(37, 104, 149); stroke: rgb(191, 144, 64);" x="430.034" y="400"/>
    <rect width="10" height="10" style="paint-order: fill; stroke-dashoffset: -32px; fill: rgb(37, 104, 149); stroke: rgb(191, 144, 64);" x="430" y="410"/>
    <rect width="10" height="10" style="paint-order: fill; stroke-dashoffset: -32px; fill: rgb(37, 104, 149); stroke: rgb(191, 144, 64);" x="430" y="420"/>
    <rect width="10" height="10" style="paint-order: fill; stroke-dashoffset: -32px; fill: rgb(37, 104, 149); stroke: rgb(191, 144, 64);" x="430" y="430"/>
    <rect width="10" height="10" style="paint-order: fill; stroke-dashoffset: -32px; fill: rgb(37, 104, 149); stroke: rgb(191, 144, 64);" x="430.034" y="440"/>
    <rect width="10" height="10" style="paint-order: fill; stroke-dashoffset: -32px; fill: rgb(37, 104, 149); stroke: rgb(191, 144, 64);" x="430" y="450"/>
    <rect width="10" height="10" style="paint-order: fill; stroke-dashoffset: -32px; fill: rgb(37, 104, 149); stroke: rgb(191, 144, 64);" x="440.034" y="400"/>
    <rect width="10" height="10" style="paint-order: fill; stroke-dashoffset: -32px; fill: rgb(37, 104, 149); stroke: rgb(191, 144, 64);" x="440" y="410"/>
    <rect width="10" height="10" style="paint-order: fill; stroke-dashoffset: -32px; fill: rgb(37, 104, 149); stroke: rgb(191, 144, 64);" x="440" y="420"/>
    <rect width="10" height="10" style="paint-order: fill; stroke-dashoffset: -32px; fill: rgb(37, 104, 149); stroke: rgb(191, 144, 64);" x="440" y="430"/>
    <rect width="10" height="10" style="paint-order: fill; stroke-dashoffset: -32px; fill: rgb(37, 104, 149); stroke: rgb(191, 144, 64);" x="440.034" y="440"/>
    <rect width="10" height="10" style="paint-order: fill; stroke-dashoffset: -32px; fill: rgb(37, 104, 149); stroke: rgb(191, 144, 64);" x="440" y="450"/>
    <rect width="10" height="10" style="paint-order: fill; stroke-dashoffset: -32px; fill: rgb(37, 104, 149); stroke: rgb(191, 144, 64);" x="450.034" y="400"/>
    <rect width="10" height="10" style="paint-order: fill; stroke-dashoffset: -32px; fill: rgb(37, 104, 149); stroke: rgb(191, 144, 64);" x="450" y="410"/>
    <rect width="10" height="10" style="paint-order: fill; stroke-dashoffset: -32px; fill: rgb(37, 104, 149); stroke: rgb(191, 144, 64);" x="450" y="420"/>
    <rect width="10" height="10" style="paint-order: fill; stroke-dashoffset: -32px; fill: rgb(37, 104, 149); stroke: rgb(191, 144, 64);" x="450" y="430"/>
    <rect width="10" height="10" style="paint-order: fill; stroke-dashoffset: -32px; fill: rgb(37, 104, 149); stroke: rgb(191, 144, 64);" x="450.034" y="440"/>
    <rect width="10" height="10" style="paint-order: fill; stroke-dashoffset: -32px; fill: rgb(37, 104, 149); stroke: rgb(191, 144, 64);" x="450" y="450"/>
    <rect width="10" height="10" style="paint-order: fill; stroke-dashoffset: -32px; fill: rgb(37, 104, 149); stroke: rgb(191, 144, 64);" x="460.034" y="400"/>
    <rect width="10" height="10" style="paint-order: fill; stroke-dashoffset: -32px; fill: rgb(37, 104, 149); stroke: rgb(191, 144, 64);" x="460" y="410"/>
    <rect width="10" height="10" style="paint-order: fill; stroke-dashoffset: -32px; fill: rgb(37, 104, 149); stroke: rgb(191, 144, 64);" x="460" y="420"/>
    <rect width="10" height="10" style="paint-order: fill; stroke-dashoffset: -32px; fill: rgb(37, 104, 149); stroke: rgb(191, 144, 64);" x="460" y="430"/>
    <rect width="10" height="10" style="paint-order: fill; stroke-dashoffset: -32px; fill: rgb(37, 104, 149); stroke: rgb(191, 144, 64);" x="460.034" y="440"/>
    <rect width="10" height="10" style="paint-order: fill; stroke-dashoffset: -32px; fill: rgb(37, 104, 149); stroke: rgb(191, 144, 64);" x="460" y="450"/>
  </g>
  <g transform="matrix(1, 0, 0, 1, -16.260458, -181.522202)">
    <rect width="54.868" height="10" style="paint-order: fill; stroke-dashoffset: -32px; fill: rgb(57, 57, 57); stroke: rgb(38, 38, 38);" x="340" y="425"/>
    <rect width="10" height="10" style="paint-order: fill; stroke-dashoffset: -32px; fill: rgb(37, 104, 149); stroke: rgb(191, 144, 64);" x="370.034" y="400"/>
    <rect width="10" height="10" style="paint-order: fill; stroke-dashoffset: -32px; fill: rgb(37, 104, 149); stroke: rgb(191, 144, 64);" x="370" y="410"/>
    <rect width="10" height="10" style="paint-order: fill; stroke-dashoffset: -32px; fill: rgb(37, 104, 149); stroke: rgb(191, 144, 64);" x="370" y="420"/>
    <rect width="10" height="10" style="paint-order: fill; stroke-dashoffset: -32px; fill: rgb(37, 104, 149); stroke: rgb(191, 144, 64);" x="370" y="430"/>
    <rect width="10" height="10" style="paint-order: fill; stroke-dashoffset: -32px; fill: rgb(37, 104, 149); stroke: rgb(191, 144, 64);" x="370.034" y="440"/>
    <rect width="10" height="10" style="paint-order: fill; stroke-dashoffset: -32px; fill: rgb(37, 104, 149); stroke: rgb(191, 144, 64);" x="370" y="450"/>
    <rect width="10" height="10" style="paint-order: fill; stroke-dashoffset: -32px; fill: rgb(37, 104, 149); stroke: rgb(191, 144, 64);" x="380.034" y="400"/>
    <rect width="10" height="10" style="paint-order: fill; stroke-dashoffset: -32px; fill: rgb(37, 104, 149); stroke: rgb(191, 144, 64);" x="380" y="410"/>
    <rect width="10" height="10" style="paint-order: fill; stroke-dashoffset: -32px; fill: rgb(37, 104, 149); stroke: rgb(191, 144, 64);" x="380" y="420"/>
    <rect width="10" height="10" style="paint-order: fill; stroke-dashoffset: -32px; fill: rgb(37, 104, 149); stroke: rgb(191, 144, 64);" x="380" y="430"/>
    <rect width="10" height="10" style="paint-order: fill; stroke-dashoffset: -32px; fill: rgb(37, 104, 149); stroke: rgb(191, 144, 64);" x="380.034" y="440"/>
    <rect width="10" height="10" style="paint-order: fill; stroke-dashoffset: -32px; fill: rgb(37, 104, 149); stroke: rgb(191, 144, 64);" x="380" y="450"/>
    <rect width="10" height="10" style="paint-order: fill; stroke-dashoffset: -32px; fill: rgb(37, 104, 149); stroke: rgb(191, 144, 64);" x="390.034" y="400"/>
    <rect width="10" height="10" style="paint-order: fill; stroke-dashoffset: -32px; fill: rgb(37, 104, 149); stroke: rgb(191, 144, 64);" x="390" y="410"/>
    <rect width="10" height="10" style="paint-order: fill; stroke-dashoffset: -32px; fill: rgb(37, 104, 149); stroke: rgb(191, 144, 64);" x="390" y="420"/>
    <rect width="10" height="10" style="paint-order: fill; stroke-dashoffset: -32px; fill: rgb(37, 104, 149); stroke: rgb(191, 144, 64);" x="390" y="430"/>
    <rect width="10" height="10" style="paint-order: fill; stroke-dashoffset: -32px; fill: rgb(37, 104, 149); stroke: rgb(191, 144, 64);" x="390.034" y="440"/>
    <rect width="10" height="10" style="paint-order: fill; stroke-dashoffset: -32px; fill: rgb(37, 104, 149); stroke: rgb(191, 144, 64);" x="390" y="450"/>
    <rect width="10" height="10" style="paint-order: fill; stroke-dashoffset: -32px; fill: rgb(37, 104, 149); stroke: rgb(191, 144, 64);" x="400.034" y="400"/>
    <rect width="10" height="10" style="paint-order: fill; stroke-dashoffset: -32px; fill: rgb(37, 104, 149); stroke: rgb(191, 144, 64);" x="400" y="410"/>
    <rect width="10" height="10" style="paint-order: fill; stroke-dashoffset: -32px; fill: rgb(37, 104, 149); stroke: rgb(191, 144, 64);" x="400" y="420"/>
    <rect width="10" height="10" style="paint-order: fill; stroke-dashoffset: -32px; fill: rgb(37, 104, 149); stroke: rgb(191, 144, 64);" x="400" y="430"/>
    <rect width="10" height="10" style="paint-order: fill; stroke-dashoffset: -32px; fill: rgb(37, 104, 149); stroke: rgb(191, 144, 64);" x="400.034" y="440"/>
    <rect width="10" height="10" style="paint-order: fill; stroke-dashoffset: -32px; fill: rgb(37, 104, 149); stroke: rgb(191, 144, 64);" x="400" y="450"/>
    <rect width="10" height="10" style="paint-order: fill; stroke-dashoffset: -32px; fill: rgb(37, 104, 149); stroke: rgb(191, 144, 64);" x="410.034" y="400"/>
    <rect width="10" height="10" style="paint-order: fill; stroke-dashoffset: -32px; fill: rgb(37, 104, 149); stroke: rgb(191, 144, 64);" x="410" y="410"/>
    <rect width="10" height="10" style="paint-order: fill; stroke-dashoffset: -32px; fill: rgb(37, 104, 149); stroke: rgb(191, 144, 64);" x="410" y="420"/>
    <rect width="10" height="10" style="paint-order: fill; stroke-dashoffset: -32px; fill: rgb(37, 104, 149); stroke: rgb(191, 144, 64);" x="410" y="430"/>
    <rect width="10" height="10" style="paint-order: fill; stroke-dashoffset: -32px; fill: rgb(37, 104, 149); stroke: rgb(191, 144, 64);" x="410.034" y="440"/>
    <rect width="10" height="10" style="paint-order: fill; stroke-dashoffset: -32px; fill: rgb(37, 104, 149); stroke: rgb(191, 144, 64);" x="410" y="450"/>
    <rect width="10" height="10" style="paint-order: fill; stroke-dashoffset: -32px; fill: rgb(37, 104, 149); stroke: rgb(191, 144, 64);" x="420.034" y="400"/>
    <rect width="10" height="10" style="paint-order: fill; stroke-dashoffset: -32px; fill: rgb(37, 104, 149); stroke: rgb(191, 144, 64);" x="420" y="410"/>
    <rect width="10" height="10" style="paint-order: fill; stroke-dashoffset: -32px; fill: rgb(37, 104, 149); stroke: rgb(191, 144, 64);" x="420" y="420"/>
    <rect width="10" height="10" style="paint-order: fill; stroke-dashoffset: -32px; fill: rgb(37, 104, 149); stroke: rgb(191, 144, 64);" x="420" y="430"/>
    <rect width="10" height="10" style="paint-order: fill; stroke-dashoffset: -32px; fill: rgb(37, 104, 149); stroke: rgb(191, 144, 64);" x="420.034" y="440"/>
    <rect width="10" height="10" style="paint-order: fill; stroke-dashoffset: -32px; fill: rgb(37, 104, 149); stroke: rgb(191, 144, 64);" x="420" y="450"/>
    <rect width="10" height="10" style="paint-order: fill; stroke-dashoffset: -32px; fill: rgb(37, 104, 149); stroke: rgb(191, 144, 64);" x="430.034" y="400"/>
    <rect width="10" height="10" style="paint-order: fill; stroke-dashoffset: -32px; fill: rgb(37, 104, 149); stroke: rgb(191, 144, 64);" x="430" y="410"/>
    <rect width="10" height="10" style="paint-order: fill; stroke-dashoffset: -32px; fill: rgb(37, 104, 149); stroke: rgb(191, 144, 64);" x="430" y="420"/>
    <rect width="10" height="10" style="paint-order: fill; stroke-dashoffset: -32px; fill: rgb(37, 104, 149); stroke: rgb(191, 144, 64);" x="430" y="430"/>
    <rect width="10" height="10" style="paint-order: fill; stroke-dashoffset: -32px; fill: rgb(37, 104, 149); stroke: rgb(191, 144, 64);" x="430.034" y="440"/>
    <rect width="10" height="10" style="paint-order: fill; stroke-dashoffset: -32px; fill: rgb(37, 104, 149); stroke: rgb(191, 144, 64);" x="430" y="450"/>
    <rect width="10" height="10" style="paint-order: fill; stroke-dashoffset: -32px; fill: rgb(37, 104, 149); stroke: rgb(191, 144, 64);" x="440.034" y="400"/>
    <rect width="10" height="10" style="paint-order: fill; stroke-dashoffset: -32px; fill: rgb(37, 104, 149); stroke: rgb(191, 144, 64);" x="440" y="410"/>
    <rect width="10" height="10" style="paint-order: fill; stroke-dashoffset: -32px; fill: rgb(37, 104, 149); stroke: rgb(191, 144, 64);" x="440" y="420"/>
    <rect width="10" height="10" style="paint-order: fill; stroke-dashoffset: -32px; fill: rgb(37, 104, 149); stroke: rgb(191, 144, 64);" x="440" y="430"/>
    <rect width="10" height="10" style="paint-order: fill; stroke-dashoffset: -32px; fill: rgb(37, 104, 149); stroke: rgb(191, 144, 64);" x="440.034" y="440"/>
    <rect width="10" height="10" style="paint-order: fill; stroke-dashoffset: -32px; fill: rgb(37, 104, 149); stroke: rgb(191, 144, 64);" x="440" y="450"/>
    <rect width="10" height="10" style="paint-order: fill; stroke-dashoffset: -32px; fill: rgb(37, 104, 149); stroke: rgb(191, 144, 64);" x="450.034" y="400"/>
    <rect width="10" height="10" style="paint-order: fill; stroke-dashoffset: -32px; fill: rgb(37, 104, 149); stroke: rgb(191, 144, 64);" x="450" y="410"/>
    <rect width="10" height="10" style="paint-order: fill; stroke-dashoffset: -32px; fill: rgb(37, 104, 149); stroke: rgb(191, 144, 64);" x="450" y="420"/>
    <rect width="10" height="10" style="paint-order: fill; stroke-dashoffset: -32px; fill: rgb(37, 104, 149); stroke: rgb(191, 144, 64);" x="450" y="430"/>
    <rect width="10" height="10" style="paint-order: fill; stroke-dashoffset: -32px; fill: rgb(37, 104, 149); stroke: rgb(191, 144, 64);" x="450.034" y="440"/>
    <rect width="10" height="10" style="paint-order: fill; stroke-dashoffset: -32px; fill: rgb(37, 104, 149); stroke: rgb(191, 144, 64);" x="450" y="450"/>
    <rect width="10" height="10" style="paint-order: fill; stroke-dashoffset: -32px; fill: rgb(37, 104, 149); stroke: rgb(191, 144, 64);" x="460.034" y="400"/>
    <rect width="10" height="10" style="paint-order: fill; stroke-dashoffset: -32px; fill: rgb(37, 104, 149); stroke: rgb(191, 144, 64);" x="460" y="410"/>
    <rect width="10" height="10" style="paint-order: fill; stroke-dashoffset: -32px; fill: rgb(37, 104, 149); stroke: rgb(191, 144, 64);" x="460" y="420"/>
    <rect width="10" height="10" style="paint-order: fill; stroke-dashoffset: -32px; fill: rgb(37, 104, 149); stroke: rgb(191, 144, 64);" x="460" y="430"/>
    <rect width="10" height="10" style="paint-order: fill; stroke-dashoffset: -32px; fill: rgb(37, 104, 149); stroke: rgb(191, 144, 64);" x="460.034" y="440"/>
    <rect width="10" height="10" style="paint-order: fill; stroke-dashoffset: -32px; fill: rgb(37, 104, 149); stroke: rgb(191, 144, 64);" x="460" y="450"/>
  </g>
  <g transform="matrix(-1, 0, 0, -1, 526.849487, 674.313049)">
    <rect width="54.868" height="10" style="paint-order: fill; stroke-dashoffset: -32px; fill: rgb(57, 57, 57); stroke: rgb(38, 38, 38);" x="340" y="425"/>
    <rect width="10" height="10" style="paint-order: fill; stroke-dashoffset: -32px; fill: rgb(37, 104, 149); stroke: rgb(191, 144, 64);" x="370.034" y="400"/>
    <rect width="10" height="10" style="paint-order: fill; stroke-dashoffset: -32px; fill: rgb(37, 104, 149); stroke: rgb(191, 144, 64);" x="370" y="410"/>
    <rect width="10" height="10" style="paint-order: fill; stroke-dashoffset: -32px; fill: rgb(37, 104, 149); stroke: rgb(191, 144, 64);" x="370" y="420"/>
    <rect width="10" height="10" style="paint-order: fill; stroke-dashoffset: -32px; fill: rgb(37, 104, 149); stroke: rgb(191, 144, 64);" x="370" y="430"/>
    <rect width="10" height="10" style="paint-order: fill; stroke-dashoffset: -32px; fill: rgb(37, 104, 149); stroke: rgb(191, 144, 64);" x="370.034" y="440"/>
    <rect width="10" height="10" style="paint-order: fill; stroke-dashoffset: -32px; fill: rgb(37, 104, 149); stroke: rgb(191, 144, 64);" x="370" y="450"/>
    <rect width="10" height="10" style="paint-order: fill; stroke-dashoffset: -32px; fill: rgb(37, 104, 149); stroke: rgb(191, 144, 64);" x="380.034" y="400"/>
    <rect width="10" height="10" style="paint-order: fill; stroke-dashoffset: -32px; fill: rgb(37, 104, 149); stroke: rgb(191, 144, 64);" x="380" y="410"/>
    <rect width="10" height="10" style="paint-order: fill; stroke-dashoffset: -32px; fill: rgb(37, 104, 149); stroke: rgb(191, 144, 64);" x="380" y="420"/>
    <rect width="10" height="10" style="paint-order: fill; stroke-dashoffset: -32px; fill: rgb(37, 104, 149); stroke: rgb(191, 144, 64);" x="380" y="430"/>
    <rect width="10" height="10" style="paint-order: fill; stroke-dashoffset: -32px; fill: rgb(37, 104, 149); stroke: rgb(191, 144, 64);" x="380.034" y="440"/>
    <rect width="10" height="10" style="paint-order: fill; stroke-dashoffset: -32px; fill: rgb(37, 104, 149); stroke: rgb(191, 144, 64);" x="380" y="450"/>
    <rect width="10" height="10" style="paint-order: fill; stroke-dashoffset: -32px; fill: rgb(37, 104, 149); stroke: rgb(191, 144, 64);" x="390.034" y="400"/>
    <rect width="10" height="10" style="paint-order: fill; stroke-dashoffset: -32px; fill: rgb(37, 104, 149); stroke: rgb(191, 144, 64);" x="390" y="410"/>
    <rect width="10" height="10" style="paint-order: fill; stroke-dashoffset: -32px; fill: rgb(37, 104, 149); stroke: rgb(191, 144, 64);" x="390" y="420"/>
    <rect width="10" height="10" style="paint-order: fill; stroke-dashoffset: -32px; fill: rgb(37, 104, 149); stroke: rgb(191, 144, 64);" x="390" y="430"/>
    <rect width="10" height="10" style="paint-order: fill; stroke-dashoffset: -32px; fill: rgb(37, 104, 149); stroke: rgb(191, 144, 64);" x="390.034" y="440"/>
    <rect width="10" height="10" style="paint-order: fill; stroke-dashoffset: -32px; fill: rgb(37, 104, 149); stroke: rgb(191, 144, 64);" x="390" y="450"/>
    <rect width="10" height="10" style="paint-order: fill; stroke-dashoffset: -32px; fill: rgb(37, 104, 149); stroke: rgb(191, 144, 64);" x="400.034" y="400"/>
    <rect width="10" height="10" style="paint-order: fill; stroke-dashoffset: -32px; fill: rgb(37, 104, 149); stroke: rgb(191, 144, 64);" x="400" y="410"/>
    <rect width="10" height="10" style="paint-order: fill; stroke-dashoffset: -32px; fill: rgb(37, 104, 149); stroke: rgb(191, 144, 64);" x="400" y="420"/>
    <rect width="10" height="10" style="paint-order: fill; stroke-dashoffset: -32px; fill: rgb(37, 104, 149); stroke: rgb(191, 144, 64);" x="400" y="430"/>
    <rect width="10" height="10" style="paint-order: fill; stroke-dashoffset: -32px; fill: rgb(37, 104, 149); stroke: rgb(191, 144, 64);" x="400.034" y="440"/>
    <rect width="10" height="10" style="paint-order: fill; stroke-dashoffset: -32px; fill: rgb(37, 104, 149); stroke: rgb(191, 144, 64);" x="400" y="450"/>
    <rect width="10" height="10" style="paint-order: fill; stroke-dashoffset: -32px; fill: rgb(37, 104, 149); stroke: rgb(191, 144, 64);" x="410.034" y="400"/>
    <rect width="10" height="10" style="paint-order: fill; stroke-dashoffset: -32px; fill: rgb(37, 104, 149); stroke: rgb(191, 144, 64);" x="410" y="410"/>
    <rect width="10" height="10" style="paint-order: fill; stroke-dashoffset: -32px; fill: rgb(37, 104, 149); stroke: rgb(191, 144, 64);" x="410" y="420"/>
    <rect width="10" height="10" style="paint-order: fill; stroke-dashoffset: -32px; fill: rgb(37, 104, 149); stroke: rgb(191, 144, 64);" x="410" y="430"/>
    <rect width="10" height="10" style="paint-order: fill; stroke-dashoffset: -32px; fill: rgb(37, 104, 149); stroke: rgb(191, 144, 64);" x="410.034" y="440"/>
    <rect width="10" height="10" style="paint-order: fill; stroke-dashoffset: -32px; fill: rgb(37, 104, 149); stroke: rgb(191, 144, 64);" x="410" y="450"/>
    <rect width="10" height="10" style="paint-order: fill; stroke-dashoffset: -32px; fill: rgb(37, 104, 149); stroke: rgb(191, 144, 64);" x="420.034" y="400"/>
    <rect width="10" height="10" style="paint-order: fill; stroke-dashoffset: -32px; fill: rgb(37, 104, 149); stroke: rgb(191, 144, 64);" x="420" y="410"/>
    <rect width="10" height="10" style="paint-order: fill; stroke-dashoffset: -32px; fill: rgb(37, 104, 149); stroke: rgb(191, 144, 64);" x="420" y="420"/>
    <rect width="10" height="10" style="paint-order: fill; stroke-dashoffset: -32px; fill: rgb(37, 104, 149); stroke: rgb(191, 144, 64);" x="420" y="430"/>
    <rect width="10" height="10" style="paint-order: fill; stroke-dashoffset: -32px; fill: rgb(37, 104, 149); stroke: rgb(191, 144, 64);" x="420.034" y="440"/>
    <rect width="10" height="10" style="paint-order: fill; stroke-dashoffset: -32px; fill: rgb(37, 104, 149); stroke: rgb(191, 144, 64);" x="420" y="450"/>
    <rect width="10" height="10" style="paint-order: fill; stroke-dashoffset: -32px; fill: rgb(37, 104, 149); stroke: rgb(191, 144, 64);" x="430.034" y="400"/>
    <rect width="10" height="10" style="paint-order: fill; stroke-dashoffset: -32px; fill: rgb(37, 104, 149); stroke: rgb(191, 144, 64);" x="430" y="410"/>
    <rect width="10" height="10" style="paint-order: fill; stroke-dashoffset: -32px; fill: rgb(37, 104, 149); stroke: rgb(191, 144, 64);" x="430" y="420"/>
    <rect width="10" height="10" style="paint-order: fill; stroke-dashoffset: -32px; fill: rgb(37, 104, 149); stroke: rgb(191, 144, 64);" x="430" y="430"/>
    <rect width="10" height="10" style="paint-order: fill; stroke-dashoffset: -32px; fill: rgb(37, 104, 149); stroke: rgb(191, 144, 64);" x="430.034" y="440"/>
    <rect width="10" height="10" style="paint-order: fill; stroke-dashoffset: -32px; fill: rgb(37, 104, 149); stroke: rgb(191, 144, 64);" x="430" y="450"/>
    <rect width="10" height="10" style="paint-order: fill; stroke-dashoffset: -32px; fill: rgb(37, 104, 149); stroke: rgb(191, 144, 64);" x="440.034" y="400"/>
    <rect width="10" height="10" style="paint-order: fill; stroke-dashoffset: -32px; fill: rgb(37, 104, 149); stroke: rgb(191, 144, 64);" x="440" y="410"/>
    <rect width="10" height="10" style="paint-order: fill; stroke-dashoffset: -32px; fill: rgb(37, 104, 149); stroke: rgb(191, 144, 64);" x="440" y="420"/>
    <rect width="10" height="10" style="paint-order: fill; stroke-dashoffset: -32px; fill: rgb(37, 104, 149); stroke: rgb(191, 144, 64);" x="440" y="430"/>
    <rect width="10" height="10" style="paint-order: fill; stroke-dashoffset: -32px; fill: rgb(37, 104, 149); stroke: rgb(191, 144, 64);" x="440.034" y="440"/>
    <rect width="10" height="10" style="paint-order: fill; stroke-dashoffset: -32px; fill: rgb(37, 104, 149); stroke: rgb(191, 144, 64);" x="440" y="450"/>
    <rect width="10" height="10" style="paint-order: fill; stroke-dashoffset: -32px; fill: rgb(37, 104, 149); stroke: rgb(191, 144, 64);" x="450.034" y="400"/>
    <rect width="10" height="10" style="paint-order: fill; stroke-dashoffset: -32px; fill: rgb(37, 104, 149); stroke: rgb(191, 144, 64);" x="450" y="410"/>
    <rect width="10" height="10" style="paint-order: fill; stroke-dashoffset: -32px; fill: rgb(37, 104, 149); stroke: rgb(191, 144, 64);" x="450" y="420"/>
    <rect width="10" height="10" style="paint-order: fill; stroke-dashoffset: -32px; fill: rgb(37, 104, 149); stroke: rgb(191, 144, 64);" x="450" y="430"/>
    <rect width="10" height="10" style="paint-order: fill; stroke-dashoffset: -32px; fill: rgb(37, 104, 149); stroke: rgb(191, 144, 64);" x="450.034" y="440"/>
    <rect width="10" height="10" style="paint-order: fill; stroke-dashoffset: -32px; fill: rgb(37, 104, 149); stroke: rgb(191, 144, 64);" x="450" y="450"/>
    <rect width="10" height="10" style="paint-order: fill; stroke-dashoffset: -32px; fill: rgb(37, 104, 149); stroke: rgb(191, 144, 64);" x="460.034" y="400"/>
    <rect width="10" height="10" style="paint-order: fill; stroke-dashoffset: -32px; fill: rgb(37, 104, 149); stroke: rgb(191, 144, 64);" x="460" y="410"/>
    <rect width="10" height="10" style="paint-order: fill; stroke-dashoffset: -32px; fill: rgb(37, 104, 149); stroke: rgb(191, 144, 64);" x="460" y="420"/>
    <rect width="10" height="10" style="paint-order: fill; stroke-dashoffset: -32px; fill: rgb(37, 104, 149); stroke: rgb(191, 144, 64);" x="460" y="430"/>
    <rect width="10" height="10" style="paint-order: fill; stroke-dashoffset: -32px; fill: rgb(37, 104, 149); stroke: rgb(191, 144, 64);" x="460.034" y="440"/>
    <rect width="10" height="10" style="paint-order: fill; stroke-dashoffset: -32px; fill: rgb(37, 104, 149); stroke: rgb(191, 144, 64);" x="460" y="450"/>
  </g>
  <rect width="67.22" height="248.097" style="stroke: rgb(44, 44, 44); fill: url(#gradient-6);" x="274.487" y="78.933"/>
  <rect width="150" height="32.079" style="fill: url(#gradient-0); stroke: rgb(44, 44, 44);" x="175" y="467.921"/>
  <rect width="23.777" height="249.333" style="paint-order: fill; stroke-dashoffset: -32px; fill: rgb(57, 57, 57); stroke: rgb(38, 38, 38);" x="-206.766" y="-327.238" transform="matrix(-1, 0, 0, -1, 0, 0)"/>
  <rect width="185.108" height="156.619" style="stroke: rgb(44, 44, 44); fill: url(#gradient-5);" x="168.978" y="315.092"/>
  <circle style="stroke: rgb(41, 41, 41); stroke-width: 5px; fill: url(#gradient-4);" cx="318.26" cy="285.881" r="17.5" transform="matrix(0.66212, 0, 0, 1, 113.958832, -64.205429)" bx:origin="6.132914 -0.200857"/>
  <circle style="stroke: rgb(41, 41, 41); stroke-width: 5px; fill: url(#gradient-3);" cx="318.26" cy="285.881" r="17.5" transform="matrix(0.66212, 0, 0, 1, 114.319321, -10.317226)" bx:origin="6.132914 -0.200857"/>
  <circle style="stroke: rgb(41, 41, 41); stroke-width: 5px; fill: url(#gradient-2);" cx="266.63" cy="363.435" r="17.5" bx:origin="6.132914 -0.200857"/>
  <circle style="fill: url(#gradient-1); stroke: rgb(41, 41, 41); stroke-width: 5px;" cx="265.152" cy="432.326" r="17.5" bx:origin="6.086371 0.574486"/>
  <rect width="185.108" height="49.899" style="stroke: rgb(44, 44, 44); fill: url(#gradient-7);" x="171.374" y="40.581"/>
  <circle style="fill: rgb(216, 216, 216); stroke: rgb(0, 0, 0);" cx="65.705" cy="411.78" r="7.845"/>
  <circle style="stroke: rgb(41, 41, 41); stroke-width: 5px; fill: url(#gradient-10);" cx="318.26" cy="285.881" r="17.5" transform="matrix(0.66212, 0, 0, 1, 113.132973, -167.435501)" bx:origin="6.132914 -0.200857"/>
  <circle style="stroke: rgb(41, 41, 41); stroke-width: 5px; fill: rgb(78, 78, 78);" cx="318.26" cy="285.881" r="17.5" transform="matrix(0.66212, 0, 0, 1, 113.619133, -116.419945)" bx:origin="6.132914 -0.200857"/>
  <line style="stroke: rgb(41, 41, 41);" x1="317.69331934604133" y1="156.79404601308016" x2="331.6727366958939" y2="181.43276909219531"/>
  <line style="stroke: rgb(41, 41, 41);" x1="316.6448630448024" y1="181.25802637532215" x2="331.84747941276703" y2="158.54147318181174"/>
  <line style="stroke: rgb(41, 41, 41);" x1="313.3247514242124" y1="168.851293477328" x2="336.21604733459594" y2="169.20077891107434"/>
  <line style="stroke: rgb(41, 41, 41);" x1="325.2072561715871" y1="153.64867710936335" x2="324.3335425872213" y2="185.6265942971511"/>
</svg>