<?xml version="1.0" encoding="utf-8"?>
<svg viewBox="161.223 115.997 202.261 184.254" width="202.261" height="184.254" xmlns="http://www.w3.org/2000/svg">
  <rect x="225.354" y="128.828" width="68.366" height="171.441" style="fill: rgb(107, 107, 107);"/>
  <path d="M 239.88 230.568 C 239.413 230.568 238.977 230.518 238.57 230.418 C 238.157 230.325 237.72 230.181 237.26 229.988 L 237.25 228.328 L 238.21 228.328 L 238.45 229.328 C 238.69 229.428 238.923 229.498 239.15 229.538 C 239.377 229.585 239.62 229.608 239.88 229.608 C 240.393 229.608 240.763 229.508 240.99 229.308 C 241.21 229.115 241.32 228.871 241.32 228.578 C 241.32 228.305 241.21 228.071 240.99 227.878 C 240.763 227.685 240.353 227.521 239.76 227.388 C 238.913 227.195 238.293 226.938 237.9 226.618 C 237.5 226.291 237.3 225.858 237.3 225.318 C 237.3 224.938 237.41 224.598 237.63 224.298 C 237.85 224.005 238.157 223.768 238.55 223.588 C 238.937 223.415 239.39 223.328 239.91 223.328 C 240.443 223.328 240.897 223.388 241.27 223.508 C 241.643 223.628 241.97 223.788 242.25 223.988 L 242.32 225.578 L 241.36 225.578 L 241.16 224.658 C 241.007 224.545 240.827 224.458 240.62 224.398 C 240.413 224.338 240.177 224.308 239.91 224.308 C 239.517 224.308 239.197 224.398 238.95 224.578 C 238.703 224.765 238.58 224.998 238.58 225.278 C 238.58 225.445 238.613 225.588 238.68 225.708 C 238.753 225.828 238.89 225.935 239.09 226.028 C 239.297 226.128 239.593 226.225 239.98 226.318 C 240.953 226.545 241.633 226.835 242.02 227.188 C 242.4 227.541 242.59 227.975 242.59 228.488 C 242.59 229.075 242.373 229.568 241.94 229.968 C 241.507 230.368 240.82 230.568 239.88 230.568 ZM 246.102 230.538 C 245.589 230.538 245.179 230.388 244.872 230.088 C 244.572 229.781 244.422 229.295 244.422 228.628 L 244.422 224.398 L 243.312 224.398 L 243.312 223.458 L 244.422 223.458 L 244.422 221.768 L 245.692 221.768 L 245.692 223.458 L 247.202 223.458 L 247.202 224.398 L 245.692 224.398 L 245.692 228.628 C 245.692 228.961 245.759 229.208 245.892 229.368 C 246.026 229.528 246.202 229.608 246.422 229.608 C 246.576 229.608 246.742 229.595 246.922 229.568 C 247.109 229.541 247.256 229.518 247.362 229.498 L 247.532 230.328 C 247.346 230.381 247.119 230.431 246.852 230.478 C 246.586 230.518 246.336 230.538 246.102 230.538 ZM 250.594 230.568 C 249.868 230.568 249.318 230.388 248.944 230.028 C 248.564 229.675 248.374 229.178 248.374 228.538 C 248.374 228.091 248.494 227.705 248.734 227.378 C 248.981 227.051 249.334 226.795 249.794 226.608 C 250.254 226.428 250.804 226.338 251.444 226.338 L 252.684 226.338 L 252.684 225.648 C 252.684 225.228 252.558 224.901 252.304 224.668 C 252.044 224.441 251.684 224.328 251.224 224.328 C 250.931 224.328 250.678 224.361 250.464 224.428 C 250.251 224.501 250.054 224.601 249.874 224.728 L 249.744 225.698 L 248.764 225.698 L 248.764 224.098 C 249.078 223.845 249.441 223.651 249.854 223.518 C 250.274 223.391 250.738 223.328 251.244 223.328 C 252.091 223.328 252.754 223.528 253.234 223.928 C 253.714 224.335 253.954 224.915 253.954 225.668 L 253.954 229.018 C 253.954 229.111 253.954 229.201 253.954 229.288 C 253.961 229.375 253.968 229.461 253.974 229.548 L 254.654 229.618 L 254.654 230.428 L 252.824 230.428 C 252.784 230.241 252.754 230.071 252.734 229.918 C 252.714 229.771 252.701 229.621 252.694 229.468 C 252.448 229.781 252.141 230.041 251.774 230.248 C 251.408 230.461 251.014 230.568 250.594 230.568 Z M 250.784 229.498 C 251.204 229.498 251.588 229.398 251.934 229.198 C 252.288 228.998 252.538 228.755 252.684 228.468 L 252.684 227.208 L 251.394 227.208 C 250.814 227.208 250.378 227.348 250.084 227.628 C 249.791 227.908 249.644 228.218 249.644 228.558 C 249.644 228.865 249.738 229.098 249.924 229.258 C 250.118 229.418 250.404 229.498 250.784 229.498 ZM 258.095 230.538 C 257.582 230.538 257.172 230.388 256.865 230.088 C 256.565 229.781 256.415 229.295 256.415 228.628 L 256.415 224.398 L 255.305 224.398 L 255.305 223.458 L 256.415 223.458 L 256.415 221.768 L 257.685 221.768 L 257.685 223.458 L 259.195 223.458 L 259.195 224.398 L 257.685 224.398 L 257.685 228.628 C 257.685 228.961 257.752 229.208 257.885 229.368 C 258.019 229.528 258.195 229.608 258.415 229.608 C 258.569 229.608 258.735 229.595 258.915 229.568 C 259.102 229.541 259.249 229.518 259.355 229.498 L 259.525 230.328 C 259.339 230.381 259.112 230.431 258.845 230.478 C 258.579 230.518 258.329 230.538 258.095 230.538 ZM 263.657 230.428 L 260.287 230.428 L 260.287 229.618 L 261.337 229.438 L 261.337 224.458 L 260.287 224.268 L 260.287 223.458 L 262.607 223.458 L 262.607 229.438 L 263.657 229.618 L 263.657 230.428 Z M 262.607 221.738 L 261.277 221.738 L 261.277 220.378 L 262.607 220.378 L 262.607 221.738 ZM 267.686 230.568 C 267.04 230.568 266.483 230.415 266.016 230.108 C 265.55 229.808 265.19 229.388 264.936 228.848 C 264.683 228.315 264.556 227.705 264.556 227.018 L 264.556 226.878 C 264.556 226.191 264.683 225.578 264.936 225.038 C 265.19 224.505 265.55 224.085 266.016 223.778 C 266.483 223.478 267.036 223.328 267.676 223.328 C 268.316 223.328 268.87 223.478 269.336 223.778 C 269.803 224.085 270.163 224.505 270.416 225.038 C 270.67 225.571 270.796 226.185 270.796 226.878 L 270.796 227.018 C 270.796 227.711 270.67 228.325 270.416 228.858 C 270.163 229.391 269.806 229.808 269.346 230.108 C 268.88 230.415 268.326 230.568 267.686 230.568 Z M 267.686 229.568 C 268.086 229.568 268.423 229.458 268.696 229.238 C 268.97 229.018 269.176 228.715 269.316 228.328 C 269.456 227.948 269.526 227.511 269.526 227.018 L 269.526 226.878 C 269.526 226.385 269.456 225.948 269.316 225.568 C 269.176 225.181 268.97 224.878 268.696 224.658 C 268.423 224.438 268.083 224.328 267.676 224.328 C 267.27 224.328 266.93 224.438 266.656 224.658 C 266.376 224.878 266.17 225.181 266.036 225.568 C 265.896 225.948 265.826 226.385 265.826 226.878 L 265.826 227.018 C 265.826 227.511 265.896 227.948 266.036 228.328 C 266.17 228.715 266.376 229.018 266.656 229.238 C 266.936 229.458 267.28 229.568 267.686 229.568 ZM 275.146 230.428 L 271.776 230.428 L 271.776 229.618 L 272.826 229.438 L 272.826 224.458 L 271.776 224.268 L 271.776 223.458 L 273.956 223.458 L 274.046 224.488 C 274.279 224.121 274.572 223.835 274.926 223.628 C 275.272 223.428 275.669 223.328 276.116 223.328 C 276.869 223.328 277.452 223.548 277.866 223.988 C 278.279 224.428 278.486 225.108 278.486 226.028 L 278.486 229.438 L 279.536 229.618 L 279.536 230.428 L 276.166 230.428 L 276.166 229.618 L 277.216 229.438 L 277.216 226.048 C 277.216 225.435 277.092 225.001 276.846 224.748 C 276.606 224.488 276.236 224.358 275.736 224.358 C 275.369 224.358 275.046 224.445 274.766 224.618 C 274.486 224.798 274.262 225.038 274.096 225.338 L 274.096 229.438 L 275.146 229.618 L 275.146 230.428 Z" transform="matrix(1, 0, 0, 1, 0, 0)" style="fill: rgb(51, 51, 51); white-space: pre;"/>
  <rect x="289.706" y="236.221" width="63.554" height="32.314" style="fill: rgb(10, 31, 123);"/>
  <rect x="169.023" y="163.652" width="63.554" height="32.314" style="fill: rgb(10, 31, 123);"/>
  <rect x="165.014" y="233.014" width="63.554" height="32.314" style="fill: rgb(10, 31, 123);"/>
  <rect x="291.711" y="162.85" width="63.554" height="32.314" style="fill: rgb(10, 31, 123);"/>
</svg>