<?xml version="1.0" encoding="utf-8"?>
<svg viewBox="0 0 500 500" width="500" height="500" xmlns="http://www.w3.org/2000/svg">
  <ellipse style="fill: rgb(239, 239, 239);" transform="matrix(-0.00369, 0.999993, -0.999993, -0.00369, 467.194763, -95.954948)" cx="247.006" cy="335.487" rx="97.962" ry="92.063"/>
  <ellipse style="fill: rgb(239, 239, 239);" transform="matrix(-0.00369, 0.999993, -0.999993, -0.00369, 445.324982, 39.078014)" cx="247.006" cy="335.487" rx="97.962" ry="92.063"/>
  <ellipse style="fill: rgb(239, 239, 239);" transform="matrix(-0.00369, 0.999993, -0.999993, -0.00369, 534.490906, 110.930168)" cx="247.006" cy="335.487" rx="97.962" ry="92.063"/>
  <ellipse style="fill: rgb(239, 239, 239);" transform="matrix(-0.00369, 0.999993, -0.999993, -0.00369, 670.404053, 104.870293)" cx="247.006" cy="335.487" rx="97.962" ry="92.063"/>
  <ellipse style="fill: rgb(239, 239, 239);" transform="matrix(-0.00369, 0.999993, -0.999993, -0.00369, 583.835144, -1.609348)" cx="247.006" cy="335.487" rx="97.962" ry="92.063"/>
  <ellipse style="fill: rgb(239, 239, 239);" transform="matrix(-0.00369, 0.999993, -0.999993, -0.00369, 717.151245, 0.121976)" cx="247.006" cy="335.487" rx="97.962" ry="92.063"/>
  <ellipse style="fill: rgb(239, 239, 239);" transform="matrix(-0.00369, 0.999993, -0.999993, -0.00369, 601.149231, -92.506866)" cx="247.006" cy="335.487" rx="97.962" ry="92.063"/>
  <ellipse style="fill: rgb(239, 239, 239);" transform="matrix(-0.00369, 0.999993, -0.999993, -0.00369, 656.552979, -52.684971)" cx="247.006" cy="335.487" rx="97.962" ry="92.063"/>
</svg>