<?xml version="1.0" encoding="utf-8"?>
<svg viewBox="0 0 500 500" width="500" height="500" xmlns="http://www.w3.org/2000/svg" xmlns:bx="https://boxy-svg.com">
  <rect x="25.822" y="7.824" width="460.547" height="112.539" style="fill: rgb(216, 216, 216);"/>
  <path d="M 8.048 215.306 H 65.674 L 60.658 200.306 L 93.887 230.306 L 60.658 260.306 L 65.674 245.306 H 8.048 V 215.306 Z" style="fill: rgb(167, 164, 255);" transform="matrix(0.999999, 0.001399, -0.001399, 0.999999, 33.612011, -168.916046)" bx:shape="arrow 8.048 200.306 85.839 60 30 33.229 5.016 1@72183a84"/>
  <rect x="15.434" y="351.935" width="460.547" height="139.376" style="fill: rgb(216, 216, 216);"/>
  <path d="M 8.048 215.306 H 65.674 L 60.658 200.306 L 93.887 230.306 L 60.658 260.306 L 65.674 245.306 H 8.048 V 215.306 Z" style="fill: rgb(167, 164, 255);" transform="matrix(0.999999, 0.001399, -0.001399, 0.999999, 24.521708, 196.440247)" bx:shape="arrow 8.048 200.306 85.839 60 30 33.229 5.016 1@72183a84"/>
  <path style="fill: rgb(216, 216, 216);" transform="matrix(-0.865029, 0.03379, -0.03379, -0.865029, 630.994324, 670.650208)" d="M 562 396.902 L 562 396.902 L 573.036 480.225 A 46.115 46.115 0 0 1 573.036 480.225 L 621.53 411.575 L 621.53 411.575 L 592.58 490.482 A 46.115 46.115 0 0 1 592.58 490.482 L 667.422 452.232 L 667.422 452.232 L 605.118 508.647 A 46.115 46.115 0 0 1 605.118 508.647 L 689.164 509.56 L 689.164 509.56 L 607.779 530.559 A 46.115 46.115 0 0 1 607.779 530.559 L 681.773 570.424 L 681.773 570.424 L 599.952 551.196 A 46.115 46.115 0 0 1 599.952 551.196 L 646.944 620.882 L 646.944 620.882 L 583.431 565.833 A 46.115 46.115 0 0 1 583.431 565.833 L 592.656 649.375 L 592.656 649.375 L 562 571.115 A 46.115 46.115 0 0 1 562 571.115 L 531.344 649.375 L 531.344 649.375 L 540.569 565.833 A 46.115 46.115 0 0 1 540.569 565.833 L 477.056 620.882 L 477.056 620.882 L 524.048 551.196 A 46.115 46.115 0 0 1 524.048 551.196 L 442.227 570.424 L 442.227 570.424 L 516.221 530.559 A 46.115 46.115 0 0 1 516.221 530.559 L 434.836 509.56 L 434.836 509.56 L 518.882 508.647 A 46.115 46.115 0 0 1 518.882 508.647 L 456.578 452.232 L 456.578 452.232 L 531.42 490.482 A 46.115 46.115 0 0 1 531.42 490.482 L 502.47 411.575 L 502.47 411.575 L 550.964 480.225 A 46.115 46.115 0 0 1 550.964 480.225 Z M 562 510.909 A 14.091 14.091 0 0 0 562 539.091 A 14.091 14.091 0 0 0 562 510.909" bx:shape="cog 562 525 14.091 46.115 128.098 1 13 1@a8cb8d68"/>
  <path style="fill: rgb(216, 216, 216);" transform="matrix(-0.859004, 0.107375, -0.107375, -0.859004, 1145.704834, 596.281677)" d="M 840 404.066 L 840 404.066 L 850.419 482.729 A 43.536 43.536 0 0 1 850.419 482.729 L 896.201 417.918 L 896.201 417.918 L 868.87 492.413 A 43.536 43.536 0 0 1 868.87 492.413 L 939.527 456.302 L 939.527 456.302 L 880.707 509.562 A 43.536 43.536 0 0 1 880.707 509.562 L 960.052 510.423 L 960.052 510.423 L 883.219 530.248 A 43.536 43.536 0 0 1 883.219 530.248 L 953.075 567.884 L 953.075 567.884 L 875.83 549.731 A 43.536 43.536 0 0 1 875.83 549.731 L 920.194 615.52 L 920.194 615.52 L 860.232 563.549 A 43.536 43.536 0 0 1 860.232 563.549 L 868.941 642.42 L 868.941 642.42 L 840 568.536 A 43.536 43.536 0 0 1 840 568.536 L 811.059 642.42 L 811.059 642.42 L 819.768 563.549 A 43.536 43.536 0 0 1 819.768 563.549 L 759.806 615.52 L 759.806 615.52 L 804.17 549.731 A 43.536 43.536 0 0 1 804.17 549.731 L 726.925 567.884 L 726.925 567.884 L 796.781 530.248 A 43.536 43.536 0 0 1 796.781 530.248 L 719.948 510.423 L 719.948 510.423 L 799.293 509.562 A 43.536 43.536 0 0 1 799.293 509.562 L 740.473 456.302 L 740.473 456.302 L 811.13 492.413 A 43.536 43.536 0 0 1 811.13 492.413 L 783.799 417.918 L 783.799 417.918 L 829.581 482.729 A 43.536 43.536 0 0 1 829.581 482.729 Z M 840 511.697 A 13.303 13.303 0 0 0 840 538.303 A 13.303 13.303 0 0 0 840 511.697" bx:shape="cog 840 525 13.303 43.536 120.934 1 13 1@b82f5ea9"/>
</svg>