<?xml version="1.0" encoding="utf-8"?>
<svg viewBox="0 0 500 500" width="500" height="500" xmlns="http://www.w3.org/2000/svg" xmlns:bx="https://boxy-svg.com">
  <defs>
    <linearGradient gradientUnits="userSpaceOnUse" x1="241.946" y1="164.953" x2="241.946" y2="333.609" id="gradient-0" gradientTransform="matrix(0.994849, 0.101363, -0.098182, 0.963637, 25.414286, -14.846047)">
      <stop offset="0" style="stop-color: rgb(188, 188, 188);"/>
      <stop offset="1" style="stop-color: rgb(23, 23, 23);"/>
    </linearGradient>
  </defs>
  <g transform="matrix(1, 0, 0, 1, 1.709145, 0)">
    <rect y="-130" width="125" height="125" style="fill: rgb(216, 216, 216);"/>
    <rect y="-130" width="125" height="125" style="fill: rgb(216, 216, 216);" x="375"/>
    <rect width="125" height="125" style="fill: rgb(216, 216, 216);" x="505"/>
    <rect width="125" height="125" style="fill: rgb(216, 216, 216);" x="-130"/>
    <rect width="125" height="125" style="fill: rgb(216, 216, 216);" x="-130" y="375"/>
    <rect width="125" height="125" style="fill: rgb(216, 216, 216);" y="505"/>
    <rect y="505" width="125" height="125" style="fill: rgb(216, 216, 216);" x="375"/>
    <rect width="125" height="125" style="fill: rgb(216, 216, 216);" x="505" y="375"/>
  </g>
  <rect x="50.369" y="227.029" width="374.047" height="35.822" style="fill: rgb(84, 84, 84);"/>
  <polygon style="stroke: rgb(0, 0, 0); fill: rgb(160, 160, 160);" points="2.0510001182556152 2.934000015258789 2.0510001182556152 127.46299743652344 92.81700134277344 165.05999755859375 92.2040023803711 334.74700927734375 4.74399995803833 377.9750061035156 4.74399995803833 478.4389953613281 21.042999267578125 494.7380065917969 472.7340087890625 494.7380065917969 493.8389892578125 473.63299560546875 493.8389892578125 375.2760009765625 392.79901123046875 332.51300048828125 390.34600830078125 166.58999633789062 491.2829895019531 116.91200256347656 491.2829895019531 2.8910000324249268"/>
  <polygon style="stroke: rgb(0, 0, 0); fill: rgb(22, 22, 22);" points="118.41799926757812 415.5989990234375 162.9029998779297 345.4320068359375 302.60198974609375 323.18798828125 381.6600036621094 383.49700927734375 385.3290100097656 415.1409912109375 304.1549987792969 468.8479919433594 211.51600646972656 483.0150146484375 189.6060028076172 456.7659912109375 120.71099853515625 439.906005859375"/>
  <path style="fill: rgb(84, 84, 84);" transform="matrix(-0.304977, -0.573357, 0.573357, -0.304977, 326.707275, 1361.641113)" d="M 1283.194 630.371 L 1302.806 630.371 L 1312.712 667.859 A 58.559 58.559 0 0 1 1323.821 673.208 L 1359.307 657.58 L 1371.534 672.913 L 1348.402 704.032 A 58.559 58.559 0 0 1 1351.145 716.052 L 1385.489 734.052 L 1381.125 753.172 L 1342.372 754.488 A 58.559 58.559 0 0 1 1334.685 764.128 L 1342.025 802.202 L 1324.356 810.711 L 1299.165 781.233 A 58.559 58.559 0 0 1 1286.835 781.233 L 1261.644 810.711 L 1243.975 802.202 L 1251.315 764.128 A 58.559 58.559 0 0 1 1243.628 754.488 L 1204.875 753.172 L 1200.511 734.052 L 1234.855 716.052 A 58.559 58.559 0 0 1 1237.598 704.032 L 1214.466 672.913 L 1226.693 657.58 L 1262.179 673.208 A 58.559 58.559 0 0 1 1273.288 667.859 Z M 1293 697.447 A 25.553 25.553 0 0 0 1293 748.553 A 25.553 25.553 0 0 0 1293 697.447" bx:shape="cog 1293 723 25.553 58.559 92.629 0.53 7 1@31534277"/>
  <path style="fill: rgb(84, 84, 84);" transform="matrix(-0.349753, -0.547194, 0.547194, -0.349753, 225.771774, 1273.495117)" d="M 1106.397 633.844 L 1127.603 633.844 L 1138.314 674.378 A 63.317 63.317 0 0 1 1150.325 680.162 L 1188.694 663.264 L 1201.916 679.843 L 1176.903 713.491 A 63.317 63.317 0 0 1 1179.87 726.487 L 1217.004 745.95 L 1212.285 766.624 L 1170.384 768.047 A 63.317 63.317 0 0 1 1162.072 778.469 L 1170.009 819.637 L 1150.903 828.838 L 1123.666 796.965 A 63.317 63.317 0 0 1 1110.334 796.965 L 1083.097 828.838 L 1063.991 819.637 L 1071.928 778.469 A 63.317 63.317 0 0 1 1063.616 768.047 L 1021.715 766.624 L 1016.996 745.95 L 1054.13 726.487 A 63.317 63.317 0 0 1 1057.097 713.491 L 1032.084 679.843 L 1045.306 663.264 L 1083.675 680.162 A 63.317 63.317 0 0 1 1095.686 674.378 Z M 1117 706.371 A 27.629 27.629 0 0 0 1117 761.629 A 27.629 27.629 0 0 0 1117 706.371" bx:shape="cog 1117 734 27.629 63.317 100.156 0.53 7 1@fffcc0a7"/>
  <path style="fill: rgb(84, 84, 84);" transform="matrix(-0.647983, -0.043199, 0.043199, -0.647983, 737.029175, 955.518433)" d="M 961.693 680.526 L 978.307 680.526 L 986.7 712.285 A 49.61 49.61 0 0 1 996.111 716.817 L 1026.174 703.577 L 1036.533 716.567 L 1016.935 742.93 A 49.61 49.61 0 0 1 1019.259 753.114 L 1048.355 768.363 L 1044.658 784.561 L 1011.827 785.676 A 49.61 49.61 0 0 1 1005.315 793.843 L 1011.533 826.098 L 996.564 833.307 L 975.223 808.334 A 49.61 49.61 0 0 1 964.777 808.334 L 943.436 833.307 L 928.467 826.098 L 934.685 793.843 A 49.61 49.61 0 0 1 928.173 785.676 L 895.342 784.561 L 891.645 768.363 L 920.741 753.114 A 49.61 49.61 0 0 1 923.065 742.93 L 903.467 716.567 L 913.826 703.577 L 943.889 716.817 A 49.61 49.61 0 0 1 953.3 712.285 Z M 970 737.352 A 21.648 21.648 0 0 0 970 780.648 A 21.648 21.648 0 0 0 970 737.352" bx:shape="cog 970 759 21.648 49.61 78.474 0.53 7 1@2fb88a88"/>
  <rect x="65.392" y="229.844" width="142.238" height="46.966" style="fill: rgb(160, 160, 160);" transform="matrix(0.525024, -0.851087, 0.851087, 0.525024, -169.198502, 354.356873)"/>
  <rect x="63.33" y="165.207" width="137.752" height="33.758" style="fill: rgb(160, 160, 160);" transform="matrix(0.80382, 0.594872, -0.594872, 0.80382, 364.696503, 122.019592)"/>
  <rect x="63.33" y="165.207" width="137.752" height="33.758" style="fill: rgb(160, 160, 160);" transform="matrix(0.824549, -0.56579, 0.56579, 0.824549, 170.155243, 361.189026)"/>
  <rect x="40.85" y="165.207" width="88.854" height="33.758" style="fill: rgb(160, 160, 160);" transform="matrix(-0.084814, -0.996397, 0.996397, -0.084814, 225.896332, 497.574127)"/>
  <rect x="40.85" y="165.207" width="88.854" height="33.758" style="fill: rgb(160, 160, 160);" transform="matrix(-0.084814, -0.996397, 0.996397, -0.084814, -72.220253, 524.557617)"/>
  <rect x="40.85" y="165.207" width="88.854" height="33.758" style="fill: rgb(160, 160, 160);" transform="matrix(-0.969644, -0.24452, 0.24452, -0.969644, 174.537384, 658.702759)"/>
  <polygon style="stroke: rgb(0, 0, 0); fill: none;" points="118.48699951171875 414.97198486328125 162.9720001220703 344.80499267578125 301.7460021972656 323.1960144042969 381.72900390625 382.8699951171875 385.39801025390625 414.5140075683594 304.2239990234375 469.0880126953125 211.5850067138672 482.38800048828125 189.57200622558594 456.70599365234375 120.77999877929688 439.27899169921875"/>
  <rect x="35.374" y="19.836" width="110.825" height="63.343" style="fill: rgb(92, 92, 92);"/>
  <rect x="91.995" y="164.953" width="299.901" height="168.656" style="fill: url(#gradient-0); stroke: rgb(0, 0, 0);"/>
  <rect x="361.557" y="20.936" width="110.825" height="63.343" style="fill: rgb(92, 92, 92);"/>
  <polygon style="fill: rgb(253, 220, 0);" points="261.202 28.931 219.456 67.561 258.71 101.207 239.394 139.837 283.633 102.453 248.117 68.807"/>
</svg>