<?xml version="1.0" encoding="utf-8"?>
<svg viewBox="0 0 500 500" width="500" height="500" xmlns="http://www.w3.org/2000/svg">
  <g transform="matrix(1, 0, 0, 1, 1.709145, 0)">
    <rect y="-130" width="125" height="125" style="fill: rgb(216, 216, 216);"/>
    <rect y="-130" width="125" height="125" style="fill: rgb(216, 216, 216);" x="375"/>
    <rect width="125" height="125" style="fill: rgb(216, 216, 216);" x="505"/>
    <rect width="125" height="125" style="fill: rgb(216, 216, 216);" x="-130"/>
    <rect width="125" height="125" style="fill: rgb(216, 216, 216);" x="-130" y="375"/>
    <rect width="125" height="125" style="fill: rgb(216, 216, 216);" y="505"/>
    <rect y="505" width="125" height="125" style="fill: rgb(216, 216, 216);" x="375"/>
    <rect width="125" height="125" style="fill: rgb(216, 216, 216);" x="505" y="375"/>
  </g>
  <polygon style="stroke: rgb(0, 0, 0); fill: rgb(13, 66, 59);" points="2.397 3.207 2.397 129.188 29.782 156.573 29.782 351.837 5.662 375.957 5.662 492.721 390.668 492.721 390.668 389.259 497.153 389.259 497.153 338.075 457.358 338.075 457.358 150.346 495.102 150.346 495.102 116.905 384.33 116.905 384.33 3.186"/>
  <rect x="119.297" y="178.556" width="254.673" height="123.161" style="fill: rgb(2, 32, 18);"/>
  <rect x="119.291" y="215.33" width="187.993" height="16.605" style=""/>
  <rect x="119.083" y="249.954" width="189.179" height="17.198" style=""/>
  <rect x="42.135" y="27.476" width="91.22" height="56.508" style="fill: rgb(31, 31, 31);"/>
  <rect x="160.801" y="30.705" width="32.29" height="104.136" style="fill: rgb(31, 31, 31);"/>
  <rect x="218.116" y="33.126" width="71.038" height="28.254" style="fill: rgb(31, 31, 31);"/>
  <rect x="214.079" y="87.213" width="129.161" height="46.821" style="fill: rgb(31, 31, 31);"/>
  <circle style="fill: rgb(31, 31, 31);" cx="120.438" cy="398.006" r="53.869"/>
  <rect x="153.536" y="380.246" width="168.716" height="31.483" style="fill: rgb(31, 31, 31);"/>
  <rect x="332.101" y="256.829" width="12.109" height="90.413" style="fill: rgb(216, 216, 216);"/>
  <circle style="fill: rgb(216, 216, 216);" cx="337.789" cy="346.519" r="10.954"/>
  <circle style="fill: rgb(216, 216, 216);" cx="337.051" cy="257.58" r="10.954"/>
  <rect x="303.687" y="238.945" width="12.109" height="90.413" style="fill: rgb(216, 216, 216);" transform="matrix(-0.14932, 0.988789, -0.988789, -0.14932, 619.982178, -14.008794)"/>
  <rect x="205.869" y="248.125" width="12.109" height="90.413" style="fill: rgb(216, 216, 216);" transform="matrix(0.508648, -0.860974, 0.860974, 0.508648, -189.016449, 347.25592)"/>
  <circle style="fill: rgb(216, 216, 216);" cx="211.557" cy="337.815" r="10.954"/>
  <circle style="fill: rgb(216, 216, 216);" cx="130.368" cy="289.101" r="10.954"/>
  <rect x="303.687" y="238.945" width="12.109" height="90.413" style="fill: rgb(216, 216, 216);" transform="matrix(0.621924, 0.783078, -0.783078, 0.621924, 197.517868, -159.693283)"/>
  <rect x="-175.215" y="-246.369" width="12.109" height="90.413" style="fill: rgb(216, 216, 216);" transform="matrix(-0.721605, 0.692305, -0.692305, -0.721605, -61.911018, 160.565842)"/>
  <circle style="fill: rgb(216, 216, 216);" cx="-169.527" cy="-156.679" r="10.954" transform="matrix(-1, 0, 0, -1, 0, 0)"/>
  <circle style="fill: rgb(216, 216, 216);" cx="-231.157" cy="-220.523" r="10.954" transform="matrix(-1, 0, 0, -1, 0, 0)"/>
  <rect x="303.688" y="238.945" width="12.109" height="90.413" style="fill: rgb(216, 216, 216);" transform="matrix(-0.963754, 0.266792, -0.266792, -0.963754, 616.920898, 454.916107)"/>
  <rect x="-295.522" y="-246.369" width="12.109" height="90.413" style="fill: rgb(216, 216, 216);" transform="matrix(-0.378622, 0.925551, -0.925551, -0.378622, 37.967281, 366.344025)"/>
  <circle style="fill: rgb(216, 216, 216);" cx="-289.834" cy="-156.679" r="10.954" transform="matrix(-1, 0, 0, -1, 0, 0)"/>
  <circle style="fill: rgb(216, 216, 216);" cx="-378.035" cy="-192.107" r="10.954" transform="matrix(-1, 0, 0, -1, 0, 0)"/>
  <rect x="303.687" y="238.945" width="12.109" height="90.413" style="fill: rgb(216, 216, 216);" transform="matrix(-0.323905, -0.94609, 0.94609, -0.323905, 168.564331, 591.949402)"/>
</svg>