<?xml version="1.0" encoding="utf-8"?>
<svg viewBox="0 0 500 500" width="500" height="500" xmlns="http://www.w3.org/2000/svg" xmlns:bx="https://boxy-svg.com">
  <rect x="4.18" y="5.227" width="487.383" height="487.383" style="fill: rgb(216, 216, 216);"/>
  <path d="M 50.928 219.634 H 387.721 L 379.721 204.634 L 432.721 234.634 L 379.721 264.634 L 387.721 249.634 H 50.928 V 219.634 Z" style="" transform="matrix(0.999936, 0.011337, -0.011337, 0.999936, 2.663357, -0.562295)" bx:shape="arrow 50.928 204.634 381.793 60 30 53 8 1@cc60ee27"/>
  <path d="M 86.334 308.218 L 84.024 308.218 L 80.134 295.348 L 78.474 295.158 L 78.474 293.428 L 84.584 293.428 L 84.584 295.158 L 82.764 295.458 L 84.804 302.828 L 85.274 304.578 L 85.354 304.578 L 85.954 302.828 L 89.164 293.428 L 91.434 293.428 L 94.494 302.808 L 95.154 304.878 L 95.234 304.878 L 95.884 302.808 L 97.944 295.448 L 96.084 295.158 L 96.084 293.428 L 102.054 293.428 L 102.054 295.158 L 100.414 295.398 L 96.594 308.218 L 94.034 308.218 L 91.044 299.328 L 90.324 296.948 L 90.244 296.968 L 89.554 299.328 L 86.334 308.218 ZM 110.164 308.508 C 108.797 308.508 107.607 308.195 106.594 307.568 C 105.587 306.941 104.807 306.075 104.254 304.968 C 103.701 303.855 103.424 302.568 103.424 301.108 L 103.424 300.508 C 103.424 299.101 103.714 297.845 104.294 296.738 C 104.874 295.631 105.644 294.758 106.604 294.118 C 107.564 293.471 108.614 293.148 109.754 293.148 C 111.087 293.148 112.201 293.421 113.094 293.968 C 113.994 294.515 114.671 295.285 115.124 296.278 C 115.584 297.265 115.814 298.428 115.814 299.768 L 115.814 301.448 L 106.214 301.448 L 106.174 301.518 C 106.194 302.465 106.361 303.305 106.674 304.038 C 106.987 304.771 107.441 305.348 108.034 305.768 C 108.627 306.188 109.337 306.398 110.164 306.398 C 111.077 306.398 111.877 306.268 112.564 306.008 C 113.251 305.748 113.847 305.391 114.354 304.938 L 115.404 306.688 C 114.877 307.195 114.177 307.625 113.304 307.978 C 112.431 308.331 111.384 308.508 110.164 308.508 Z M 106.274 299.278 L 106.294 299.348 L 113.124 299.348 L 113.124 298.988 C 113.124 298.281 112.997 297.645 112.744 297.078 C 112.491 296.518 112.117 296.078 111.624 295.758 C 111.124 295.431 110.501 295.268 109.754 295.268 C 109.154 295.268 108.607 295.445 108.114 295.798 C 107.621 296.151 107.214 296.628 106.894 297.228 C 106.581 297.828 106.374 298.511 106.274 299.278 ZM 122.898 308.508 C 121.358 308.508 120.184 308.131 119.378 307.378 C 118.578 306.625 118.178 305.565 118.178 304.198 C 118.178 303.258 118.434 302.441 118.948 301.748 C 119.468 301.048 120.214 300.505 121.188 300.118 C 122.161 299.731 123.328 299.538 124.688 299.538 L 127.328 299.538 L 127.328 298.088 C 127.328 297.195 127.054 296.501 126.508 296.008 C 125.968 295.515 125.204 295.268 124.218 295.268 C 123.598 295.268 123.061 295.345 122.608 295.498 C 122.154 295.645 121.741 295.851 121.368 296.118 L 121.078 298.178 L 118.998 298.178 L 118.998 294.788 C 119.664 294.255 120.438 293.848 121.318 293.568 C 122.204 293.288 123.184 293.148 124.258 293.148 C 126.058 293.148 127.468 293.578 128.488 294.438 C 129.508 295.291 130.018 296.518 130.018 298.118 L 130.018 305.238 C 130.018 305.431 130.021 305.618 130.028 305.798 C 130.028 305.978 130.038 306.161 130.058 306.348 L 131.498 306.498 L 131.498 308.218 L 127.628 308.218 C 127.541 307.818 127.478 307.458 127.438 307.138 C 127.391 306.818 127.358 306.498 127.338 306.178 C 126.818 306.845 126.168 307.398 125.388 307.838 C 124.608 308.285 123.778 308.508 122.898 308.508 Z M 123.288 306.248 C 124.181 306.248 124.998 306.035 125.738 305.608 C 126.478 305.181 127.008 304.665 127.328 304.058 L 127.328 301.378 L 124.588 301.378 C 123.348 301.378 122.418 301.675 121.798 302.268 C 121.178 302.861 120.868 303.525 120.868 304.258 C 120.868 304.905 121.071 305.398 121.478 305.738 C 121.878 306.078 122.481 306.248 123.288 306.248 ZM 141.889 308.218 L 139.519 308.218 L 134.259 295.368 L 132.729 295.158 L 132.729 293.428 L 138.929 293.428 L 138.929 295.158 L 136.999 295.438 L 140.289 303.858 L 140.669 305.048 L 140.749 305.048 L 141.189 303.858 L 144.239 295.438 L 142.249 295.158 L 142.249 293.428 L 148.449 293.428 L 148.449 295.158 L 146.889 295.368 L 141.889 308.218 ZM 156.265 308.508 C 154.899 308.508 153.709 308.195 152.695 307.568 C 151.689 306.941 150.909 306.075 150.355 304.968 C 149.802 303.855 149.525 302.568 149.525 301.108 L 149.525 300.508 C 149.525 299.101 149.815 297.845 150.395 296.738 C 150.975 295.631 151.745 294.758 152.705 294.118 C 153.665 293.471 154.715 293.148 155.855 293.148 C 157.189 293.148 158.302 293.421 159.195 293.968 C 160.095 294.515 160.772 295.285 161.225 296.278 C 161.685 297.265 161.915 298.428 161.915 299.768 L 161.915 301.448 L 152.315 301.448 L 152.275 301.518 C 152.295 302.465 152.462 303.305 152.775 304.038 C 153.089 304.771 153.542 305.348 154.135 305.768 C 154.729 306.188 155.439 306.398 156.265 306.398 C 157.179 306.398 157.979 306.268 158.665 306.008 C 159.352 305.748 159.949 305.391 160.455 304.938 L 161.505 306.688 C 160.979 307.195 160.279 307.625 159.405 307.978 C 158.532 308.331 157.485 308.508 156.265 308.508 Z M 152.375 299.278 L 152.395 299.348 L 159.225 299.348 L 159.225 298.988 C 159.225 298.281 159.099 297.645 158.845 297.078 C 158.592 296.518 158.219 296.078 157.725 295.758 C 157.225 295.431 156.602 295.268 155.855 295.268 C 155.255 295.268 154.709 295.445 154.215 295.798 C 153.722 296.151 153.315 296.628 152.995 297.228 C 152.682 297.828 152.475 298.511 152.375 299.278 ZM 171.124 308.218 L 163.974 308.218 L 163.974 306.498 L 166.204 306.108 L 166.204 295.548 L 163.974 295.158 L 163.974 293.428 L 168.614 293.428 L 168.844 295.308 L 168.874 295.568 C 169.294 294.815 169.81 294.225 170.424 293.798 C 171.037 293.365 171.74 293.148 172.534 293.148 C 172.82 293.148 173.11 293.175 173.404 293.228 C 173.704 293.275 173.917 293.321 174.044 293.368 L 173.684 295.868 L 171.814 295.758 C 171.1 295.718 170.504 295.881 170.024 296.248 C 169.537 296.615 169.164 297.108 168.904 297.728 L 168.904 306.108 L 171.124 306.498 L 171.124 308.218 Z" transform="matrix(3.3847949504852295, 0, 0, 3.696967124938965, -185.4178466796875, -751.86376953125)" style="fill: rgb(51, 51, 51); white-space: pre;"/>
</svg>